<svg width="50" height="50" viewBox="0 0 50 50" fill="none" xmlns="http://www.w3.org/2000/svg">
<path d="M24.9992 6.6001C17.943 6.6001 12.1992 12.3439 12.1992 19.4001C12.1992 29.0626 23.9023 42.5563 24.3992 43.1251C24.5523 43.3001 24.768 43.4001 24.9992 43.4001C25.2305 43.4001 25.4461 43.297 25.5992 43.1251C26.0961 42.5563 37.7992 29.122 37.7992 19.4001C37.7992 12.3439 32.0555 6.6001 24.9992 6.6001ZM24.9992 14.4751L31.3992 18.3251L30.5992 19.6751V25.8001H19.3992V19.6751L18.5992 18.3251L24.9992 14.4751ZM24.9992 16.3251L20.9992 18.7251V24.2001H23.3992V20.2001H26.5992V24.2001H28.9992V18.7251L24.9992 16.3251Z" fill="black"/>
</svg>
