<svg width="100" height="100" viewBox="0 0 100 100" fill="none" xmlns="http://www.w3.org/2000/svg">
<path d="M50 18.75C48.275 18.75 46.875 20.15 46.875 21.875V46.875H21.875C20.15 46.875 18.75 48.275 18.75 50C18.75 51.725 20.15 53.125 21.875 53.125H46.875V78.125C46.875 79.85 48.275 81.25 50 81.25C51.725 81.25 53.125 79.85 53.125 78.125V53.125H78.125C79.85 53.125 81.25 51.725 81.25 50C81.25 48.275 79.85 46.875 78.125 46.875H53.125V21.875C53.125 20.15 51.725 18.75 50 18.75Z" fill="#0F172A"/>
</svg>
