<svg width="100" height="100" viewBox="0 0 100 100" fill="none" xmlns="http://www.w3.org/2000/svg">
<path d="M23.6389 23.4375C22.6655 23.4375 21.875 24.2265 21.875 25.1984V34.1736C21.875 35.147 22.6655 35.9375 23.6389 35.9375H31.25V53.125H20.3125V48.4375C20.3125 46.7125 18.9125 45.3125 17.1875 45.3125C15.4625 45.3125 14.0625 46.7125 14.0625 48.4375V81.25C14.0625 82.975 15.4625 84.375 17.1875 84.375H82.8125C84.5375 84.375 85.9375 82.975 85.9375 81.25V48.4375C85.9375 46.7125 84.5375 45.3125 82.8125 45.3125C81.0875 45.3125 79.6875 46.7125 79.6875 48.4375V53.125H70.3125V42.4805C73.111 40.8589 75 37.8427 75 34.375C75 30.8938 73.0977 27.8622 70.2789 26.2482C69.6008 25.8591 68.75 26.3839 68.75 27.1667V32.6447C68.75 34.2025 67.6858 35.6448 66.1499 35.8948C64.1921 36.2135 62.5 34.7109 62.5 32.8125V27.1606C62.5 26.3825 61.6583 25.8546 60.9833 26.239C57.6473 28.1437 55.5907 32.0288 56.4423 36.3007C56.9666 38.9295 58.6626 41.19 60.9375 42.5049V53.125H40.625V35.9375H49.7986C50.772 35.9375 51.5625 35.147 51.5625 34.1736V32.1045C51.5625 31.5654 51.3146 31.0534 50.8911 30.719L42.9108 24.4263C42.0983 23.7856 41.0948 23.4375 40.0604 23.4375H23.6389ZM20.3125 59.375H79.6875V65.625H20.3125V59.375ZM20.3125 71.875H79.6875V78.125H20.3125V71.875Z" fill="#0F172A"/>
</svg>
