<svg width="30" height="30" viewBox="0 0 30 30" fill="none" xmlns="http://www.w3.org/2000/svg">
<path d="M12 2C11.765 2.00009 11.5375 2.08295 11.3575 2.23403C11.1775 2.3851 11.0565 2.59475 11.0156 2.82617L8.03516 15.7324L8.03711 15.7344C8.01287 15.8208 8.00039 15.9102 8 16C8 16.2652 8.10536 16.5196 8.29289 16.7071C8.48043 16.8946 8.73478 17 9 17H14.5L13.0195 26.8008C13.0064 26.8664 12.9998 26.9331 13 27C13 27.2652 13.1054 27.5196 13.2929 27.7071C13.4804 27.8946 13.7348 28 14 28C14.1817 27.9997 14.3599 27.9499 14.5154 27.856C14.671 27.762 14.798 27.6275 14.8828 27.4668H14.8848L21.8066 14.5898L21.7969 14.5723C21.9152 14.408 22 14.2178 22 14C22 13.448 21.552 13 21 13H15.5L18.9121 3.41016C18.9701 3.28119 19 3.14139 19 3C19 2.73478 18.8946 2.48043 18.7071 2.29289C18.5196 2.10536 18.2652 2 18 2H12Z" fill="black"/>
</svg>
