<svg width="30" height="30" viewBox="0 0 30 30" fill="none" xmlns="http://www.w3.org/2000/svg">
<path d="M12.5984 4.6001C12.2104 4.60025 11.8784 4.87888 11.8109 5.26103L9.42657 15.586L9.42813 15.5876C9.40873 15.6568 9.39875 15.7282 9.39844 15.8001C9.39844 16.2419 9.75661 16.6001 10.1984 16.6001H14.5984L13.4141 24.4407C13.4035 24.4932 13.3983 24.5466 13.3984 24.6001C13.3984 25.0419 13.7566 25.4001 14.1984 25.4001C14.4947 25.3996 14.7664 25.2355 14.9047 24.9735H14.9062L20.4437 14.672L20.4359 14.6579C20.5306 14.5265 20.5984 14.3743 20.5984 14.2001C20.5984 13.7585 20.24 13.4001 19.7984 13.4001H15.3984L18.1281 5.72823C18.1745 5.62505 18.1985 5.51322 18.1984 5.4001C18.1984 4.95827 17.8403 4.6001 17.3984 4.6001H12.5984Z" fill="black"/>
</svg>
