<svg width="100" height="100" viewBox="0 0 100 100" fill="none" xmlns="http://www.w3.org/2000/svg">
<path d="M50 7.8125C45.9709 7.8125 42.6438 10.8797 42.2302 14.801C28.9599 18.1044 18.8485 29.6337 17.5354 43.75H15.625C13.9 43.75 12.5 45.15 12.5 46.875C12.5 48.6 13.9 50 15.625 50H21.875V52.1973C20.5594 53.5004 18.75 55.8406 18.75 58.8562C18.75 66.2 24.382 69.1667 27.5726 70.462C34.9179 83.8948 44.725 85.9375 50 85.9375C55.275 85.9375 65.0821 83.8963 72.4274 70.4651C75.618 69.1698 81.25 66.2 81.25 58.8562C81.25 55.8406 79.4406 53.5004 78.125 52.1973V50H84.375C86.1 50 87.5 48.6 87.5 46.875C87.5 45.15 86.1 43.75 84.375 43.75H82.4646C81.1515 29.6337 71.0401 18.1044 57.7698 14.801C57.3562 10.8797 54.0291 7.8125 50 7.8125ZM50 14.0625C50.8625 14.0625 51.5625 14.7641 51.5625 15.625V26.5625C51.5625 28.2875 52.9625 29.6875 54.6875 29.6875C56.4125 29.6875 57.8125 28.2875 57.8125 26.5625V21.3074C67.5935 24.4054 74.9417 33.1221 76.1627 43.75H23.8373C25.0583 33.1221 32.4065 24.4054 42.1875 21.3074V26.5625C42.1875 28.2875 43.5875 29.6875 45.3125 29.6875C47.0375 29.6875 48.4375 28.2875 48.4375 26.5625V15.625C48.4375 14.7641 49.1375 14.0625 50 14.0625ZM28.125 50H71.875V55.2155L73.175 56.1523C73.6422 56.4883 75 57.8062 75 58.8562C75 62.1875 72.8443 63.6452 69.1193 65.0421L67.9871 65.4663L67.4347 66.5405C61.5519 77.9812 53.9875 79.6875 50 79.6875C46.0125 79.6875 38.4466 77.9796 32.5653 66.5405L32.0129 65.4663L30.8838 65.0452C27.1572 63.6483 25 62.1875 25 58.8562C25 57.8468 26.2671 56.5664 26.825 56.1523L28.125 55.2155V50Z" fill="#0F172A"/>
</svg>
