<svg width="30" height="30" viewBox="0 0 30 30" fill="none" xmlns="http://www.w3.org/2000/svg">
<path d="M21.1922 4.17884C19.5022 4.16824 17.4868 4.8319 16.3152 6.00348C14.659 7.65964 14.3251 9.89997 15.2587 11.9773C14.7763 12.4239 14.1694 12.9554 13.4679 13.5493L8.90583 8.98719V8.06525C8.90583 7.80134 8.77858 7.55341 8.56342 7.39966L6.25263 5.74988C5.98732 5.56051 5.62449 5.59067 5.39387 5.82129L4.41425 6.80091C4.18363 7.03153 4.15347 7.39436 4.34284 7.65967L5.99262 9.97046C6.14637 10.1856 6.39384 10.3129 6.65821 10.3129H7.58015L12.0223 14.755C11.6781 15.041 11.362 15.3092 11.0152 15.5964C9.02771 17.2422 7.14946 18.7975 6.18946 19.7575C4.81321 21.1332 4.81321 23.3717 6.18946 24.748C6.87759 25.4361 7.78144 25.7798 8.68519 25.7798C9.58894 25.7798 10.4928 25.4361 11.1809 24.748C12.0228 23.9061 13.6321 21.9738 15.3365 19.9277C16.7045 18.2861 18.0788 16.6428 18.9583 15.6834C19.7156 16.0238 20.4944 16.1951 21.259 16.1951C22.5922 16.1951 23.8807 15.6742 24.9331 14.6213C26.8076 12.7473 27.3821 8.71347 25.9749 7.30628C25.6088 6.94018 25.0158 6.94065 24.6492 7.30628L21.661 10.2946C21.3033 10.2617 20.9564 10.1906 20.8214 10.1151C20.746 9.97965 20.6743 9.63276 20.642 9.27558L23.6303 6.2873C23.9964 5.9212 23.9964 5.32862 23.6303 4.96253C23.1026 4.43501 22.2062 4.18519 21.1922 4.17884ZM21.2023 6.06574L19.0242 8.24378C18.8485 8.41956 18.7496 8.65818 18.7496 8.90662C18.7496 9.44615 18.8217 10.7737 19.493 11.4445C20.1638 12.1157 21.4913 12.1879 22.0308 12.1879C22.2793 12.1879 22.5179 12.0885 22.6937 11.9123L24.8717 9.73426C24.8614 10.8194 24.4999 12.4032 23.6074 13.2957C21.8688 15.0324 19.5942 14.3114 18.1096 12.8278C16.6246 11.3428 15.9042 9.0668 17.6409 7.33008C18.5338 6.43711 20.1171 6.07605 21.2023 6.06574ZM16.2767 13.5923C16.435 13.7826 16.6014 13.97 16.7839 14.1526C16.967 14.3356 17.1553 14.504 17.3461 14.6625C16.4471 15.6665 15.2017 17.1611 13.8964 18.7284C12.2937 20.6517 10.6366 22.6409 9.85523 23.4223C9.21023 24.0668 8.16108 24.0668 7.51515 23.4223C6.87015 22.7773 6.87015 21.7281 7.51515 21.0831C8.41327 20.1855 10.3448 18.5861 12.2118 17.0402C13.7646 15.7539 15.2358 14.5324 16.2767 13.5923ZM19.1597 17.2883L18.4035 18.158L22.1572 21.9117C22.6128 22.3673 22.6128 23.1091 22.1572 23.5642C21.7161 24.0053 20.9467 24.0058 20.5056 23.5642L16.8956 19.9543L15.689 21.3999L19.1799 24.8899C19.7546 25.4651 20.5186 25.7816 21.3314 25.7816C22.1442 25.7816 22.9086 25.4651 23.4838 24.8899C24.6702 23.7035 24.6702 21.7738 23.4838 20.5869L20.3792 17.4824L19.1597 17.2883Z" fill="white"/>
</svg>
