<svg width="50" height="50" viewBox="0 0 50 50" fill="none" xmlns="http://www.w3.org/2000/svg">
<path d="M25.0016 6.6001C14.8568 6.6001 6.60156 14.8553 6.60156 25.0001C6.60156 35.1449 14.8568 43.4001 25.0016 43.4001C35.1464 43.4001 43.4016 35.1449 43.4016 25.0001C43.4016 14.8553 35.1464 6.6001 25.0016 6.6001ZM31.9696 30.8321C32.2816 31.1441 32.2816 31.6561 31.9696 31.9681C31.8096 32.1201 31.6096 32.2001 31.4016 32.2001C31.1936 32.2001 30.9936 32.1201 30.8336 31.9681L25.0016 26.1361L19.1696 31.9681C19.0096 32.1201 18.8096 32.2001 18.6016 32.2001C18.3936 32.2001 18.1936 32.1201 18.0336 31.9681C17.7216 31.6561 17.7216 31.1441 18.0336 30.8321L23.8656 25.0001L18.0336 19.1681C17.7216 18.8561 17.7216 18.3441 18.0336 18.0321C18.3456 17.7201 18.8576 17.7201 19.1696 18.0321L25.0016 23.8641L30.8336 18.0321C31.1456 17.7201 31.6576 17.7201 31.9696 18.0321C32.2816 18.3441 32.2816 18.8561 31.9696 19.1681L26.1376 25.0001L31.9696 30.8321Z" fill="black"/>
</svg>
