<svg xmlns="http://www.w3.org/2000/svg"  viewBox="0 0 64 64" width="48px" height="48px"><path d="M 25.158203 14.841797 C 22.401203 14.841797 20.158203 16.987953 20.158203 19.626953 L 20.158203 20.841797 L 19.158203 20.841797 C 16.929203 20.841797 14.669328 21.901734 13.111328 23.677734 L 6.3984375 31.337891 C 4.9544375 32.975891 4.1582031 35.083484 4.1582031 37.271484 L 4.1582031 43.570312 C 4.1582031 48.064312 7.4923437 51.896422 11.902344 52.482422 C 12.233344 52.528422 18.529406 52.581219 19.191406 52.324219 C 19.978406 52.005219 28.844656 48.264109 33.222656 46.412109 C 34.057848 46.056787 34.762405 45.508902 35.316406 44.841797 L 52.158203 44.841797 C 54.914203 44.841797 57.158203 42.694641 57.158203 40.056641 L 57.158203 19.626953 C 57.158203 16.987953 54.915203 14.841797 52.158203 14.841797 L 25.158203 14.841797 z M 25.158203 18.841797 L 52.158203 18.841797 C 52.700203 18.841797 53.158203 19.200953 53.158203 19.626953 L 53.158203 21.880859 L 24.158203 21.880859 L 24.158203 19.626953 C 24.158203 19.200953 24.616203 18.841797 25.158203 18.841797 z M 20.158203 24.841797 L 20.158203 26.841797 C 20.158187 31.175841 20.159068 39.692272 20.158203 39.691406 C 20.158203 40.298406 20.433203 40.871953 20.908203 41.251953 C 21.381203 41.630953 22.003703 41.775578 22.595703 41.642578 L 30.730469 39.824219 C 31.501469 39.654219 32.264484 40.084469 32.521484 40.855469 C 32.572484 41.001469 32.599609 41.158266 32.599609 41.322266 C 32.599609 41.934266 32.229156 42.488469 31.660156 42.730469 C 26.776156 44.796469 18.826109 48.149125 17.787109 48.578125 C 16.967109 48.727125 13.529406 48.670531 12.441406 48.519531 C 10.000406 48.195531 8.1582031 46.068266 8.1582031 43.572266 L 8.1582031 37.271484 C 8.1582031 36.058484 8.5983437 34.891469 9.4023438 33.980469 L 16.119141 26.314453 C 17.158141 24.840453 19.158203 24.841797 20.158203 24.841797 z M 24.158203 25.880859 L 53.158203 25.880859 L 53.158203 40.054688 C 53.158203 40.480688 52.700203 40.841797 52.158203 40.841797 L 36.558594 40.841797 C 36.519389 40.395475 36.446483 39.95825 36.306641 39.558594 C 35.409641 36.869594 32.635328 35.305922 29.861328 35.919922 L 24.158203 37.195312 L 24.158203 26.841797 L 24.158203 25.880859 z"/></svg>