<svg width="100" height="100" viewBox="0 0 100 100" fill="none" xmlns="http://www.w3.org/2000/svg">
<path d="M36.7196 10.1562C30.6899 10.1562 25.7821 15.0625 25.7821 21.0938V26.5625H22.123C15.2465 26.5625 9.67188 32.1387 9.67188 39.0137V67.2211C9.67188 73.3476 12.8149 79.1688 18.7509 79.6875C19.1399 79.7219 19.9821 79.6875 20.3134 79.6875C21.8759 79.6875 21.8759 80.8438 21.8759 81.25V82.8125C21.8759 85.2531 22.6373 86.9341 23.8076 87.9669C24.8607 88.8997 26.244 89.3088 27.6956 89.2822C29.7877 89.2447 32.0222 88.2987 33.616 86.7096L40.9921 79.8767C41.1374 79.7439 41.3262 79.6692 41.5231 79.6692H62.5497C69.4262 79.6692 75.0009 74.0946 75.0009 67.218C75.0009 67.218 75.0115 64.3277 75.0161 63.2813H80.4696C86.4993 63.2813 91.4071 58.375 91.4071 52.3438V21.0938C91.4071 15.0625 86.4993 10.1562 80.4696 10.1562H36.7196ZM36.7196 16.4063H80.4696C83.054 16.4063 85.1571 18.5094 85.1571 21.0938V52.3438C85.1571 54.9281 83.054 57.0313 80.4696 57.0313H75.0375C75.0564 50.2113 75.0616 42.3574 74.9978 38.2507C74.9306 33.9085 72.2322 26.5625 63.215 26.5625H32.0321V21.0938C32.0321 18.5094 34.1352 16.4063 36.7196 16.4063ZM22.123 32.8125H63.215C68.0118 32.8125 68.6884 36.6831 68.7509 38.4003V67.1875C68.7509 70.6063 65.97 73.4192 62.5497 73.4192L40.6259 73.4375C39.0634 73.4375 37.5009 75 37.5009 75L29.3588 82.132C28.8885 82.5695 28.4975 82.391 28.2021 82.1472C28.0537 82.0238 27.9031 81.7073 27.9031 81.2714V78.1067C27.9031 75.5223 25.8 73.4192 23.2156 73.4192H22.123C18.7043 73.4192 15.9219 70.6368 15.9219 67.218V39.0137C15.9219 35.5949 18.7043 32.8125 22.123 32.8125ZM26.5634 48.4375C23.9743 48.4375 21.8759 50.5359 21.8759 53.125C21.8759 55.7141 23.9743 57.8125 26.5634 57.8125C29.1524 57.8125 31.2509 55.7141 31.2509 53.125C31.2509 50.5359 29.1524 48.4375 26.5634 48.4375ZM42.1884 48.4375C39.5993 48.4375 37.5009 50.5359 37.5009 53.125C37.5009 55.7141 39.5993 57.8125 42.1884 57.8125C44.7774 57.8125 46.8759 55.7141 46.8759 53.125C46.8759 50.5359 44.7774 48.4375 42.1884 48.4375ZM57.8134 48.4375C55.2243 48.4375 53.1259 50.5359 53.1259 53.125C53.1259 55.7141 55.2243 57.8125 57.8134 57.8125C60.4024 57.8125 62.5009 55.7141 62.5009 53.125C62.5009 50.5359 60.4024 48.4375 57.8134 48.4375Z" fill="#0F172A"/>
</svg>
