<svg width="100" height="100" viewBox="0 0 100 100" fill="none" xmlns="http://www.w3.org/2000/svg">
<path d="M42.1875 14.0625C26.6797 14.0625 14.0625 26.6797 14.0625 42.1875C14.0625 57.6953 26.6797 70.3125 42.1875 70.3125C48.6394 70.3125 54.5723 68.1053 59.3231 64.4379L79.7638 84.8785C81.1763 86.291 83.466 86.291 84.8785 84.8785C86.291 83.466 86.291 81.1763 84.8785 79.7638L64.4379 59.3231C68.1053 54.5723 70.3125 48.6394 70.3125 42.1875C70.3125 26.6797 57.6953 14.0625 42.1875 14.0625ZM42.1875 20.3125C54.2484 20.3125 64.0625 30.1266 64.0625 42.1875C64.0625 54.2484 54.2484 64.0625 42.1875 64.0625C30.1266 64.0625 20.3125 54.2484 20.3125 42.1875C20.3125 30.1266 30.1266 20.3125 42.1875 20.3125Z" fill="#0F172A"/>
</svg>
