<svg width="100" height="100" viewBox="0 0 100 100" fill="none" xmlns="http://www.w3.org/2000/svg">
<path d="M59.9688 54.1406L83.0156 77.1406C81.5937 77.7969 79.9375 78.125 78.0156 78.125H23.2656C20.8594 78.125 18.8281 77.75 17.1562 77.0312L40.0625 54.1562C42.9672 57.0187 45.4578 59.9219 50.0156 59.9219C54.4594 59.9219 56.9203 57.1234 59.9688 54.1406ZM88.4063 33.3594V66.6406C88.4063 69.1406 88.0156 71.2344 87.2344 72.9219L64.2188 49.9531L87.25 27.2812C88.0156 28.9375 88.4063 30.9531 88.4063 33.3594ZM35.7969 49.9531L12.8125 72.8437C12 71.1719 11.5938 69.1094 11.5938 66.6406V33.3594C11.5938 30.9219 11.9688 28.8594 12.7188 27.2031L35.7969 49.9531ZM45.6719 51.4219C43.5781 49.3703 16.8906 22.9062 16.8906 22.9062C18.3281 22.2187 20.0312 21.875 21.9844 21.875H76.7344C79.2188 21.875 81.2969 22.2656 82.9844 23.0469C82.9844 23.0469 55.5297 50.2437 54.3281 51.4219C53.1266 52.6 51.6812 53.6563 50.0156 53.6563C49.1734 53.6563 47.7656 53.4734 45.6719 51.4219Z" fill="#0F172A"/>
</svg>
