<svg width="100" height="100" viewBox="0 0 100 100" fill="none" xmlns="http://www.w3.org/2000/svg">
<path d="M35.401 16.0367L44.7135 28.8179C46.526 31.3179 46.2604 34.7242 44.0729 36.9117L41.3229 39.6461C40.7447 40.2398 40.7135 41.1929 41.2916 41.8179L53.9635 55.5523C54.526 56.1617 55.4635 56.2242 56.1041 55.6773L60.1822 52.2867C62.3854 50.4586 65.5416 50.3492 67.8541 52.0367C69.901 53.5211 74.1666 56.5836 79.6979 60.3023C81.901 61.8023 82.9479 64.4898 82.276 67.0211C80.3697 74.1461 75.3541 77.2242 72.5885 78.5679C70.3072 79.6929 66.8854 79.5836 66.4791 79.5523C60.0572 78.9273 43.6979 75.7554 30.4166 59.8179C18.5104 45.5367 16.8541 33.6773 16.9322 27.8648C16.9791 24.6304 18.2135 21.6304 20.401 19.4273C22.4791 17.3179 25.2135 15.4898 27.151 14.3336C29.9322 12.6617 33.4947 13.3961 35.401 16.0367Z" fill="#0F172A"/>
</svg>
