<svg width="50" height="50" viewBox="0 0 50 50" fill="none" xmlns="http://www.w3.org/2000/svg">
<path d="M22.5983 9C21.4477 9 20.3231 9.11773 19.2404 9.33594C18.8072 9.4231 18.5267 9.84493 18.6139 10.2781C18.701 10.7113 19.1229 10.9918 19.5561 10.9047C20.5374 10.7069 21.5567 10.6 22.5982 10.6C31.0063 10.6 37.7982 17.392 37.7982 25.8C37.7982 28.4466 37.1208 30.9228 35.9373 33.0828C34.3238 32.0102 32.6894 30.9122 32.3201 30.6859C31.6721 30.2891 30.728 30.3478 29.7936 30.8422C29.2968 31.1038 27.7971 31.9556 27.0483 32.3828C26.3843 31.9124 24.8401 30.7255 22.4545 28.3391C20.0681 25.9535 18.8827 24.4093 18.4139 23.7469C18.8403 22.9989 19.6937 21.4999 19.9545 21.0031C20.4553 20.0527 20.5101 19.1017 20.1029 18.4609C19.7253 17.8657 16.2817 12.6437 15.9217 12.1469C15.3593 11.3661 13.9934 11.0549 12.767 11.9109C12.7206 11.9429 8.13902 15.2369 8.19982 17.1641C8.37182 22.4705 13.5188 28.6979 17.8076 32.9875C22.0964 37.2787 28.3219 42.4272 33.6483 42.6H33.6842C35.5706 42.6 38.8491 38.0745 38.8795 38.0297C39.2611 37.4873 39.4409 36.8623 39.3889 36.2703C39.3369 35.6783 39.0629 35.1687 38.6373 34.8703C38.5354 34.7988 37.7225 34.2679 37.2733 33.9672C38.6223 31.5503 39.3983 28.7658 39.3983 25.8C39.3983 16.528 31.8702 9 22.5983 9ZM25.0467 17.8C23.6059 17.8 22.5983 18.7153 22.5983 20.0297V20.0484H23.7764V20.0297C23.7764 19.3137 24.2724 18.8312 25.0076 18.8312C25.6988 18.8312 26.2061 19.28 26.2061 19.8984C26.2061 20.3952 25.9668 20.7608 25.0076 21.7344L22.667 24.1281V25H27.5436V23.9344H24.3889V23.8516L25.8592 22.3766C27.052 21.1982 27.4373 20.5747 27.4373 19.8203C27.4373 18.6475 26.4339 17.8 25.0467 17.8ZM31.6279 17.975C30.3863 19.8438 29.3998 21.4071 28.767 22.5703V23.6906H32.1983V25H33.4014V23.6906H34.3498V22.6281H33.4014V17.975H31.6279ZM32.1498 18.9969H32.217V22.6578H29.9295V22.5859C30.7471 21.1451 31.4778 19.9897 32.1498 18.9969Z" fill="black"/>
</svg>
