<svg width="20" height="20" viewBox="0 0 20 20" fill="none" xmlns="http://www.w3.org/2000/svg">
<path d="M4.39636 4.375C3.74355 4.375 3.23459 4.56504 2.86865 4.94629C2.50271 5.32754 2.31934 5.903 2.31934 6.67175V13.3276C2.31934 14.0964 2.51496 14.6712 2.90527 15.0525C3.2959 15.4337 3.87802 15.6244 4.65271 15.6244H15.6036C16.2561 15.6244 16.7654 15.4337 17.1313 15.0525C17.4973 14.6712 17.6801 14.0964 17.6801 13.3276V6.67175C17.6801 5.903 17.485 5.32754 17.0947 4.94629C16.7041 4.56504 16.1214 4.375 15.3467 4.375H4.39636ZM4.59839 5.61951H15.3931C15.453 5.61951 15.5078 5.62586 15.5627 5.63171L10.8649 10.2832C10.7064 10.4357 10.5583 10.5488 10.4211 10.6219C10.284 10.6951 10.1452 10.7318 10.0049 10.7318C9.85832 10.7318 9.71604 10.6951 9.57886 10.6219C9.44167 10.5488 9.29388 10.4357 9.13513 10.2832L4.43726 5.6311C4.48962 5.62582 4.54148 5.61951 4.59839 5.61951ZM3.58704 6.46912L7.1582 9.99023L3.58826 13.5461C3.57945 13.477 3.57361 13.4053 3.57361 13.3276V6.6626C3.57361 6.59406 3.57992 6.53103 3.58704 6.46912ZM16.4136 6.47583C16.4208 6.53858 16.427 6.60214 16.427 6.67175V13.3368C16.427 13.4135 16.4214 13.485 16.4124 13.5535L12.8424 9.99084L16.4136 6.47583ZM11.9934 10.8264L15.5438 14.3695C15.4945 14.3741 15.4463 14.3799 15.3931 14.3799H4.59839C4.55091 14.3799 4.50841 14.3738 4.46411 14.3701L8.01086 10.8307L8.43994 11.2537C8.70213 11.5099 8.96128 11.6956 9.21753 11.8115C9.47378 11.9275 9.73645 11.9855 10.0049 11.9855C10.2733 11.9855 10.5339 11.9275 10.7874 11.8115C11.0405 11.6956 11.2979 11.5093 11.5601 11.2531L11.9934 10.8264Z" fill="#424D5C"/>
</svg>
