<svg width="20" height="20" viewBox="0 0 20 20" fill="none" xmlns="http://www.w3.org/2000/svg">
<path d="M15.9395 12.0618C16.3817 12.3597 16.5886 12.899 16.4542 13.404C16.0751 14.83 15.0698 15.4437 14.5189 15.714C14.0623 15.9375 13.3757 15.9178 13.2957 15.91C12.012 15.785 8.73825 15.1497 6.08231 11.9625C3.70262 9.10715 3.372 6.73403 3.38668 5.57372C3.39512 4.92684 3.64106 4.32684 4.0795 3.88403C4.49543 3.46372 5.04356 3.09903 5.42981 2.86715C5.98762 2.53184 6.69793 2.67778 7.08137 3.2059L8.94106 5.76278C9.30481 6.26372 9.25137 6.94434 8.8145 7.38184L8.26606 7.92997C8.14731 8.04872 8.14356 8.23965 8.25731 8.36309L10.7923 11.1087C10.9051 11.2309 11.0942 11.2434 11.222 11.1368L12.0364 10.4581C12.4767 10.0906 13.1076 10.0693 13.5704 10.4065C13.9798 10.7047 14.8329 11.3162 15.9395 12.0618ZM13.4173 14.6659C14.0623 14.6875 14.9014 14.0418 15.1673 13.3315C15.2195 13.1922 15.1717 13.0337 15.0476 12.9518C14.1657 12.3678 13.4601 11.8687 13.0292 11.5584C12.9132 11.475 12.7576 11.4818 12.6479 11.5734L11.7939 12.2872C11.282 12.714 10.527 12.6647 10.0748 12.1747L7.13543 8.99028C6.68012 8.49715 6.69575 7.73247 7.17012 7.25809L7.74137 6.68715C7.85012 6.5784 7.86356 6.40684 7.77325 6.28247L6.24168 4.17684C6.14418 4.04278 5.96012 4.00653 5.82106 4.09653C5.53856 4.27903 4.68731 4.99997 4.63668 5.58965C4.58918 6.1409 4.71918 7.02559 5.17231 8.14247C5.52825 9.01997 6.10856 10.0418 7.04231 11.1625C7.882 12.17 8.78793 12.89 9.65793 13.4047C11.2326 14.3365 12.6857 14.6412 13.4173 14.6659Z" fill="#424D5C"/>
</svg>
