<svg width="100" height="100" viewBox="0 0 100 100" fill="none" xmlns="http://www.w3.org/2000/svg">
<path d="M50 15.625C45.6859 15.625 42.1875 19.1234 42.1875 23.4375C42.1875 23.7761 42.2159 24.1081 42.2577 24.4354L31.0791 31.1462C29.8016 30.2359 28.2504 29.6875 26.5625 29.6875C22.2484 29.6875 18.75 33.1859 18.75 37.5C18.75 41.8141 22.2484 45.3125 26.5625 45.3125C30.8766 45.3125 34.375 41.8141 34.375 37.5C34.375 37.1603 34.3469 36.8273 34.3048 36.499L45.4834 29.7943C46.7606 30.704 48.3128 31.25 50 31.25C52.1368 31.25 54.0704 30.3884 55.481 28.9978L65.6372 33.0597C65.7688 37.2585 69.2068 40.625 73.4375 40.625C77.7516 40.625 81.25 37.1266 81.25 32.8125C81.25 28.4984 77.7516 25 73.4375 25C71.3 25 69.3673 25.8639 67.9565 27.2552L57.8003 23.1903C57.6687 18.9915 54.2307 15.625 50 15.625ZM43.75 43.75C42.025 43.75 40.625 45.15 40.625 46.875V81.25C40.625 82.975 42.025 84.375 43.75 84.375H56.25C57.975 84.375 59.375 82.975 59.375 81.25V46.875C59.375 45.15 57.975 43.75 56.25 43.75H43.75ZM67.1875 51.5625C65.4625 51.5625 64.0625 52.9625 64.0625 54.6875V81.25C64.0625 82.975 65.4625 84.375 67.1875 84.375H79.6875C81.4125 84.375 82.8125 82.975 82.8125 81.25V54.6875C82.8125 52.9625 81.4125 51.5625 79.6875 51.5625H67.1875ZM20.3125 60.9375C18.5875 60.9375 17.1875 62.3375 17.1875 64.0625V81.25C17.1875 82.975 18.5875 84.375 20.3125 84.375H32.8125C34.5375 84.375 35.9375 82.975 35.9375 81.25V64.0625C35.9375 62.3375 34.5375 60.9375 32.8125 60.9375H20.3125Z" fill="#0F172A"/>
</svg>
