<svg width="100" height="100" viewBox="0 0 100 100" fill="none" xmlns="http://www.w3.org/2000/svg">
<path d="M43.5852 15.625C39.3618 15.625 35.9375 19.0493 35.9375 23.2727V28.125H37.5092C40.5295 28.125 43.4438 29.3916 45.5048 31.601L62.6862 50.0214C64.583 52.0573 65.625 54.7033 65.625 57.4799V70.3125H72.1588C76.3166 70.3125 79.6875 66.9416 79.6875 62.7838V39.0625H63.2324C59.3824 39.0625 56.25 35.9078 56.25 32.0312V15.625H43.5852ZM60.9375 17.7277V32.0312C60.9375 33.3234 61.9668 34.375 63.2324 34.375H76.4648L60.9375 17.7277ZM27.9602 32.8125C23.7368 32.8125 20.3125 36.2368 20.3125 40.4602V76.4801C20.3125 80.841 23.8465 84.375 28.2074 84.375H53.4088C57.5666 84.375 60.9375 81.0041 60.9375 76.8463V56.25H44.4824C40.6324 56.25 37.5 53.0953 37.5 49.2188V32.8125H27.9602ZM42.1875 34.9152V49.2188C42.1875 50.5109 43.2168 51.5625 44.4824 51.5625H57.7148L42.1875 34.9152ZM32.0312 60.9375H49.2188C50.5125 60.9375 51.5625 61.9859 51.5625 63.2812C51.5625 64.5766 50.5125 65.625 49.2188 65.625H32.0312C30.7375 65.625 29.6875 64.5766 29.6875 63.2812C29.6875 61.9859 30.7375 60.9375 32.0312 60.9375ZM32.0312 70.3125H49.2188C50.5125 70.3125 51.5625 71.3609 51.5625 72.6562C51.5625 73.9516 50.5125 75 49.2188 75H32.0312C30.7375 75 29.6875 73.9516 29.6875 72.6562C29.6875 71.3609 30.7375 70.3125 32.0312 70.3125Z" fill="#0F172A"/>
</svg>
