<svg width="24" height="24" viewBox="0 0 24 24" fill="none" xmlns="http://www.w3.org/2000/svg">
<path d="M9.75 3.375C8.50725 3.375 7.5 4.38225 7.5 5.625V6.75H7.125C5.88225 6.75 4.875 7.75725 4.875 9V18.375C4.875 19.6178 5.88225 20.625 7.125 20.625H13.5C14.7428 20.625 15.75 19.6178 15.75 18.375V18H16.875C18.1178 18 19.125 16.9928 19.125 15.75V9.27539C19.125 8.67877 18.8877 8.10682 18.4658 7.68457L14.8154 4.03418C14.3932 3.6123 13.8212 3.375 13.2246 3.375H9.75ZM9.75 4.875H12.375V7.875C12.375 9.11775 13.3822 10.125 14.625 10.125H17.625V15.75C17.625 16.1644 17.2894 16.5 16.875 16.5H9.75C9.33563 16.5 9 16.1644 9 15.75V5.625C9 5.21062 9.33563 4.875 9.75 4.875ZM13.875 5.21484L17.2844 8.625H14.625C14.2106 8.625 13.875 8.28937 13.875 7.875V5.21484ZM7.125 8.25H7.5V16.125C7.5 17.1604 8.33963 18 9.375 18H14.25V18.375C14.25 18.7894 13.9144 19.125 13.5 19.125H7.125C6.71062 19.125 6.375 18.7894 6.375 18.375V9C6.375 8.58563 6.71062 8.25 7.125 8.25ZM11.2903 11.25C10.9164 11.25 10.5703 11.5054 10.5103 11.874C10.4341 12.3439 10.7944 12.75 11.25 12.75H15.3347C15.7082 12.75 16.0547 12.4946 16.1147 12.126C16.1909 11.6561 15.8306 11.25 15.375 11.25H11.2903ZM11.2903 13.875C10.9164 13.875 10.5703 14.1304 10.5103 14.499C10.4341 14.9689 10.7944 15.375 11.25 15.375H15.3347C15.7082 15.375 16.0547 15.1196 16.1147 14.751C16.1909 14.2811 15.8306 13.875 15.375 13.875H11.2903Z" fill="#424D5C"/>
</svg>
