<svg width="30" height="30" viewBox="0 0 30 30" fill="none" xmlns="http://www.w3.org/2000/svg">
<path d="M23.8016 7H6.20156C5.31756 7 4.60156 7.716 4.60156 8.6V21.4C4.60156 22.284 5.31756 23 6.20156 23H23.8016C24.6856 23 25.4016 22.284 25.4016 21.4V8.6C25.4016 7.716 24.6856 7 23.8016 7ZM21.4016 15H18.2016C17.7592 15 17.4016 14.6416 17.4016 14.2C17.4016 13.7584 17.7592 13.4 18.2016 13.4H21.4016C21.844 13.4 22.2016 13.7584 22.2016 14.2C22.2016 14.6416 21.844 15 21.4016 15ZM21.4016 11.8H18.2016C17.7592 11.8 17.4016 11.4416 17.4016 11C17.4016 10.5584 17.7592 10.2 18.2016 10.2H21.4016C21.844 10.2 22.2016 10.5584 22.2016 11C22.2016 11.4416 21.844 11.8 21.4016 11.8ZM11.0016 8.6C13.2072 8.6 15.0016 10.3944 15.0016 12.6C15.0016 14.8056 13.2072 16.6 11.0016 16.6C8.79596 16.6 7.00156 14.8056 7.00156 12.6C7.00156 10.3944 8.79596 8.6 11.0016 8.6ZM11.0016 15C9.67836 15 8.60156 13.9232 8.60156 12.6C8.60156 11.2768 9.67836 10.2 11.0016 10.2V12.6H13.4016C13.4016 13.9232 12.3248 15 11.0016 15ZM16.6016 20.6V19H22.2016C22.6432 19 23.0016 19.3584 23.0016 19.8C23.0016 20.2416 22.6432 20.6 22.2016 20.6H16.6016ZM15.0016 19V20.6C15.0016 21.0416 14.644 21.4 14.2016 21.4C13.7592 21.4 13.4016 21.0416 13.4016 20.6H7.80156C7.35916 20.6 7.00156 20.2416 7.00156 19.8C7.00156 19.3584 7.35916 19 7.80156 19H13.4016C13.4016 18.5584 13.7592 18.2 14.2016 18.2C14.644 18.2 15.0016 18.5584 15.0016 19Z" fill="black"/>
</svg>
