<svg width="50" height="50" viewBox="0 0 50 50" fill="none" xmlns="http://www.w3.org/2000/svg">
<path d="M25.0016 6.6001C14.849 6.6001 6.60156 14.8475 6.60156 25.0001C6.60156 35.1527 14.849 43.4001 25.0016 43.4001C35.1541 43.4001 43.4016 35.1527 43.4016 25.0001C43.4016 14.8475 35.1541 6.6001 25.0016 6.6001ZM25.0016 8.2001C34.2894 8.2001 41.8016 15.7122 41.8016 25.0001C41.8016 34.288 34.2894 41.8001 25.0016 41.8001C15.7137 41.8001 8.20156 34.288 8.20156 25.0001C8.20156 15.7122 15.7137 8.2001 25.0016 8.2001ZM25.0016 9.8001C16.62 9.8001 9.80156 16.6185 9.80156 25.0001C9.80156 33.3817 16.62 40.2001 25.0016 40.2001C33.3832 40.2001 40.2016 33.3817 40.2016 25.0001C40.2016 16.6185 33.3832 9.8001 25.0016 9.8001ZM24.2016 15.4001H25.8016C26.2432 15.4001 26.6016 15.7585 26.6016 16.2001V26.6001C26.6016 27.0417 26.2432 27.4001 25.8016 27.4001H24.2016C23.76 27.4001 23.4016 27.0417 23.4016 26.6001V16.2001C23.4016 15.7585 23.76 15.4001 24.2016 15.4001ZM24.2016 30.6001H25.8016C26.2432 30.6001 26.6016 30.9585 26.6016 31.4001V33.0001C26.6016 33.4417 26.2432 33.8001 25.8016 33.8001H24.2016C23.76 33.8001 23.4016 33.4417 23.4016 33.0001V31.4001C23.4016 30.9585 23.76 30.6001 24.2016 30.6001Z" fill="black"/>
</svg>
