<svg width="30" height="30" viewBox="0 0 30 30" fill="none" xmlns="http://www.w3.org/2000/svg">
<path d="M26.3422 2.36678C26.0801 2.38518 25.8138 2.50423 25.6042 2.71376L24.7272 3.58077L26.4539 5.31935L27.3154 4.43678C27.7462 3.9835 27.7805 3.35922 27.3502 2.92891L27.0554 2.62312C26.8627 2.43047 26.6042 2.34838 26.3422 2.36678ZM23.8931 4.41298L14.6381 13.6799L13.6182 15.9239C13.5047 16.1845 13.7997 16.4788 14.0604 16.3771L16.3831 15.4021L25.6381 6.14699L23.8931 4.41298ZM7.97852 5.16646C6.42742 5.16646 5.16602 6.42787 5.16602 7.97896V22.0213C5.16602 23.5724 6.42742 24.8338 7.97852 24.8338H22.0209C23.572 24.8338 24.8334 23.5724 24.8334 22.0213V8.94026L22.9593 10.8153V22.0213C22.9593 22.5383 22.5388 22.9588 22.0218 22.9588H7.97852C7.46148 22.9588 7.04102 22.5383 7.04102 22.0213V7.97896C7.04102 7.46193 7.46148 7.04146 7.97852 7.04146H19.2816L21.1539 5.16646H7.97852Z" fill="white"/>
</svg>
