<svg width="50" height="50" viewBox="0 0 50 50" fill="none" xmlns="http://www.w3.org/2000/svg">
<path d="M15.8797 8.2002C12.0853 8.2002 9 11.2863 9 15.0799V29.4799V30.1205V35.7205C9 39.5105 12.0896 42.6002 15.8797 42.6002H34.1203C37.9103 42.6002 41 39.5105 41 35.7205V30.1205V29.4799V15.0799C41 11.2863 37.9147 8.2002 34.1203 8.2002H15.8797ZM27.8719 15.4174C29.4556 15.4913 31.174 15.8048 33 16.4221C29.8 21.0005 31.4 24.2006 27.4 27.7502C24.84 29.8038 22.2778 28.9667 20.7578 27.7971C20.0266 28.7795 19.5306 29.7694 19.3906 30.7174C19.3322 31.1142 18.9912 31.4002 18.6016 31.4002C18.5624 31.4002 18.522 31.3972 18.4828 31.3908C18.0853 31.3318 17.815 30.9879 17.8156 30.5971C17.9844 29.531 18.4817 28.3853 19.2219 27.2455C19.3611 27.0437 19.4944 26.8409 19.65 26.6408C19.6482 26.638 19.6472 26.6359 19.6453 26.633C20.0944 26.0155 20.6023 25.4042 21.1734 24.8143C23.0188 22.9081 25.4072 21.2193 27.7391 20.1252C28.081 19.9715 28.2703 19.6009 28.1945 19.2338C28.1188 18.8667 27.7983 18.6013 27.4234 18.5955C27.298 18.5933 27.1739 18.6206 27.0609 18.6752C24.5384 19.8587 22.0196 21.6414 20.025 23.7017C19.4492 24.2965 18.9216 24.9162 18.4453 25.5517C17.864 25.1738 17.1946 24.3918 17.0203 22.6721C16.67 19.2719 21.009 15.0973 27.8719 15.4174ZM10.6 34.5236C11.8629 36.0357 13.7596 37.0002 15.8797 37.0002H34.1203C36.2399 37.0002 38.1369 36.0357 39.4 34.5236V35.7205C39.4 38.6457 37.0455 41.0002 34.1203 41.0002H15.8797C12.9545 41.0002 10.6 38.6457 10.6 35.7205V34.5236Z" fill="black"/>
</svg>
