<svg width="50" height="50" viewBox="0 0 50 50" fill="none" xmlns="http://www.w3.org/2000/svg">
<path d="M20.2497 5.7998C18.1997 5.92168 16.7529 6.64668 15.9497 7.9748L10.6747 17.1248L14.1997 19.1498L5.12475 20.2748L7.89975 21.8748L5.47475 25.9998C4.96537 26.8811 4.67162 28.8561 5.62475 30.2998C6.00288 30.8717 7.22162 33.0529 8.29975 34.9748C9.231 36.6342 10.1029 38.1967 10.4997 38.8498C10.9623 39.4779 11.4185 40.0967 11.4747 40.1748C11.4779 40.1748 10.4529 38.4529 12.2747 35.2998L16.9997 27.1248L19.7747 28.7248L16.2247 20.3248L19.7497 22.3498L27.2997 9.2748C28.8279 6.42168 30.0497 5.92793 30.3247 5.8498C30.4623 5.8498 30.5748 5.8498 30.6998 5.8498C30.5935 5.84668 30.4841 5.82168 30.3747 5.8248C30.3091 5.8248 30.2404 5.82168 30.1747 5.8248C29.0591 5.84668 27.131 5.84043 24.7997 5.8248C23.4154 5.81543 21.8966 5.80293 20.2497 5.7998ZM31.3748 5.9248C30.8966 6.15605 29.8623 6.91543 28.5997 9.2748L25.6997 14.2998L27.3997 17.2748L24.6247 18.8998L33.6748 19.9998L30.1497 22.0248L34.7248 29.9498H40.6748C43.1779 29.9498 44.4216 29.1436 44.9498 28.6248C45.0966 27.6436 44.9466 26.7342 44.4998 25.9248L39.2248 16.7998L35.6998 18.8248L39.2748 10.4248L36.4998 12.0248L34.1248 7.8748C33.7216 7.1748 32.6623 6.22793 31.3748 5.9248ZM30.7248 27.9748L25.2247 35.2748V31.1998H16.0747L13.0997 36.3498C11.8497 38.5186 11.9404 40.0061 12.1247 40.7248C12.9029 41.3436 13.7497 41.6811 14.6747 41.6998H25.2247V37.5998L30.7248 44.8998V41.6998L35.4998 41.7248C36.5185 41.7248 38.3748 41.0248 39.1498 39.4748C39.456 38.8623 40.7498 36.6936 41.8748 34.7998C42.8466 33.1623 43.756 31.6217 44.1248 30.9498C44.4404 30.2342 44.7341 29.5373 44.7748 29.4498C44.7748 29.4498 43.8154 31.1998 40.1748 31.1998H30.7248V27.9748Z" fill="black"/>
</svg>
