<svg width="18" height="18" viewBox="0 0 18 18" fill="none" xmlns="http://www.w3.org/2000/svg">
<path d="M6.18838 3.375C4.63757 3.375 3.37588 4.63669 3.37588 6.1875V6.46875C3.37588 6.77925 3.62788 7.03125 3.93838 7.03125C4.24888 7.03125 4.50088 6.77925 4.50088 6.46875V6.1875C4.50088 5.25684 5.25772 4.5 6.18838 4.5H11.8134C12.744 4.5 13.5009 5.25684 13.5009 6.1875V6.75H12.6873C12.4359 6.75 12.2874 7.03217 12.4308 7.23889L13.8074 9.22852C13.9311 9.40767 14.1959 9.40767 14.3199 9.22852L15.6965 7.23889C15.8394 7.03217 15.6914 6.75 15.44 6.75H14.6259V6.1875C14.6259 4.63669 13.3642 3.375 11.8134 3.375H6.18838ZM3.93838 8.6369C3.84117 8.6369 3.74386 8.68191 3.68185 8.77148L2.30581 10.7611C2.16294 10.9678 2.3109 11.25 2.56234 11.25H3.37588V11.8125C3.37588 13.3633 4.63757 14.625 6.18838 14.625H11.8134C13.3642 14.625 14.6259 13.3633 14.6259 11.8125V11.5312C14.6259 11.2207 14.3739 10.9688 14.0634 10.9688C13.7529 10.9688 13.5009 11.2207 13.5009 11.5312V11.8125C13.5009 12.7432 12.744 13.5 11.8134 13.5H6.18838C5.25772 13.5 4.50088 12.7432 4.50088 11.8125V11.25H5.31442C5.56585 11.25 5.71438 10.9678 5.57095 10.7611L4.19436 8.77148C4.13248 8.68191 4.03559 8.6369 3.93838 8.6369Z" fill="#000483"/>
</svg>
