<svg width="100" height="100" viewBox="0 0 100 100" fill="none" xmlns="http://www.w3.org/2000/svg">
<path d="M29.6883 18.75C24.5179 18.75 20.3133 23.3062 20.3133 28.9062C20.3133 34.5063 24.5179 39.0625 29.6883 39.0625C34.8586 39.0625 39.0633 34.5063 39.0633 28.9062C39.0633 23.3062 34.8586 18.75 29.6883 18.75ZM70.3133 18.75C65.1429 18.75 60.9383 23.3062 60.9383 28.9062C60.9383 34.5063 65.1429 39.0625 70.3133 39.0625C75.4836 39.0625 79.6883 34.5063 79.6883 28.9062C79.6883 23.3062 75.4836 18.75 70.3133 18.75ZM29.6883 42.1875C20.6945 42.1875 13.3158 47.6883 12.5252 54.9805C12.2377 57.6008 14.4413 59.375 16.5413 59.375H42.8261C44.9198 59.375 47.1326 57.5916 46.8513 54.9713C46.0513 47.6838 38.6742 42.1875 29.6883 42.1875ZM70.3133 42.1875C61.3195 42.1875 53.9439 47.6883 53.1502 54.9805C52.8642 57.6008 55.0663 59.375 57.1663 59.375H83.4511C85.5448 59.375 87.7623 57.5916 87.4763 54.9713C86.6857 47.6823 79.2992 42.1875 70.3133 42.1875ZM26.3191 64.3097C26.0105 64.3224 25.6968 64.4195 25.4097 64.6179L12.1254 73.8068C11.1301 74.4943 11.1301 75.965 12.1254 76.6541L25.4097 85.8429C26.5581 86.6366 28.1258 85.8146 28.1258 84.4177V78.125H39.0633C40.7883 78.125 42.1883 76.725 42.1883 75C42.1883 73.275 40.7883 71.875 39.0633 71.875H28.1258V66.0431C28.1258 64.9954 27.2448 64.2715 26.3191 64.3097ZM73.6824 64.3097C72.7567 64.2715 71.8758 64.9954 71.8758 66.0431V71.875H60.9383C59.2133 71.875 57.8133 73.275 57.8133 75C57.8133 76.725 59.2133 78.125 60.9383 78.125H71.8758V84.4177C71.8758 85.8146 73.4434 86.6366 74.5918 85.8429L87.8761 76.6541C88.8714 75.9666 88.8714 74.4958 87.8761 73.8068L74.5918 64.6179C74.3047 64.4195 73.991 64.3224 73.6824 64.3097ZM50.0008 71.875C48.2742 71.875 46.8758 73.2734 46.8758 75C46.8758 76.7266 48.2742 78.125 50.0008 78.125C51.7273 78.125 53.1258 76.7266 53.1258 75C53.1258 73.2734 51.7273 71.875 50.0008 71.875Z" fill="#0F172A"/>
</svg>
