<svg width="44" height="44" viewBox="0 0 44 44" fill="none" xmlns="http://www.w3.org/2000/svg">
<path d="M16.3442 8.25C8.83811 8.25 8.25 8.83743 8.25 16.3442V27.6558C8.25 35.1619 8.83811 35.75 16.3442 35.75H27.6558C35.1619 35.75 35.75 35.1626 35.75 27.6558V16.3442C35.75 8.83743 35.1626 8.25 27.6558 8.25H16.3442ZM14.553 11H29.447C32.7422 11 33 11.2578 33 14.553V29.447C33 32.7422 32.7415 33 29.447 33H14.553C11.2578 33 11 32.7415 11 29.447V14.553C11 11.2578 11.2578 11 14.553 11ZM22.5089 13.5392V24.9528C22.5089 26.5216 21.1448 27.3322 20.1658 27.3322C19.4281 27.3322 17.7501 26.7538 17.7501 24.934C17.7501 23.0234 19.3156 22.5358 20.1832 22.5358C20.6885 22.5358 20.8868 22.6445 20.8868 22.6445V19.5991C20.8868 19.5991 20.5082 19.5427 20.0758 19.5427C16.969 19.5427 14.7571 22.0575 14.7571 24.934C14.7571 27.3643 16.6576 30.3064 20.1295 30.3064C23.8276 30.3064 25.5208 27.2222 25.5208 24.9514V19.2903C25.5208 19.2903 27.1689 20.4437 29.3785 20.4437V17.5594C26.8437 17.3786 25.4887 15.6759 25.3945 13.5392H22.5089Z" fill="#0F172A"/>
</svg>
