<svg width="44" height="44" viewBox="0 0 44 44" fill="none" xmlns="http://www.w3.org/2000/svg">
<path d="M22 10.3125C10.2699 10.3125 8.70351 10.4347 7.19995 11.9816C5.69639 13.5284 5.5 15.9857 5.5 22C5.5 28.0142 5.69639 30.4722 7.19995 32.0184C8.70351 33.5646 10.2699 33.6875 22 33.6875C33.7301 33.6875 35.2965 33.5646 36.8 32.0184C38.3036 30.4716 38.5 28.0142 38.5 22C38.5 15.9857 38.3036 13.5284 36.8 11.9816C35.2965 10.4347 33.7301 10.3125 22 10.3125ZM22 13.0625C31.6037 13.0625 33.9482 13.1054 34.7429 13.9098C35.5377 14.7142 35.75 16.8699 35.75 22C35.75 27.1301 35.5377 29.2858 34.7429 30.0902C33.9482 30.8946 31.6037 30.9375 22 30.9375C12.3963 30.9375 10.0518 30.8946 9.25708 30.0902C8.46233 29.2858 8.27148 27.1301 8.27148 22C8.27148 16.8699 8.46233 14.7142 9.25708 13.9098C10.0518 13.1054 12.3963 13.0625 22 13.0625ZM19.2151 17.1996V26.8004L27.5658 21.9624L19.2151 17.1996Z" fill="#0F172A"/>
</svg>
