<svg width="44" height="44" viewBox="0 0 44 44" fill="none" xmlns="http://www.w3.org/2000/svg">
<path d="M21.8765 8.25C9.23953 8.25 8.25 9.23953 8.25 21.8765V22.1235C8.25 34.7605 9.23953 35.75 21.8765 35.75H22.1235C34.7605 35.75 35.75 34.7605 35.75 22.1235V22C35.75 9.24825 34.7518 8.25 22 8.25H21.8765ZM19.25 11H24.75C32.4012 11 33 11.5988 33 19.25V24.75C33 32.4012 32.4012 33 24.75 33H19.25C11.5988 33 11 32.4012 11 24.75V19.25C11 11.5988 11.5988 11 19.25 11ZM28.871 13.75C28.1113 13.7521 27.4979 14.3693 27.5 15.129C27.5021 15.8887 28.1193 16.5021 28.879 16.5C29.6387 16.4979 30.2521 15.8807 30.25 15.121C30.2479 14.3613 29.6307 13.7479 28.871 13.75ZM21.9839 15.125C18.1875 15.1339 15.1161 18.2197 15.125 22.0161C15.1339 25.8125 18.2197 28.8839 22.0161 28.875C25.8125 28.8661 28.8839 25.7803 28.875 21.9839C28.8661 18.1875 25.7803 15.1161 21.9839 15.125ZM21.9906 17.875C24.2683 17.8695 26.1195 19.7129 26.125 21.9906C26.1298 24.2683 24.2871 26.1195 22.0094 26.125C19.7317 26.1305 17.8805 24.2878 17.875 22.0094C17.8695 19.7317 19.7129 17.8805 21.9906 17.875Z" fill="#0F172A"/>
</svg>
