<svg width="44" height="44" viewBox="0 0 44 44" fill="none" xmlns="http://www.w3.org/2000/svg">
<path d="M16.3442 8.25C8.83811 8.25 8.25 8.83743 8.25 16.3442V27.6558C8.25 35.1619 8.83811 35.75 16.3442 35.75H27.6558C35.1619 35.75 35.75 35.1626 35.75 27.6558V16.3442C35.75 8.83743 35.1626 8.25 27.6558 8.25H16.3442ZM14.553 11H29.447C32.7422 11 33 11.2578 33 14.553V29.447C33 32.7422 32.7415 33 29.447 33H26.5493V24.7769H29.8055L30.3185 21.1178H26.5493C26.5493 21.1178 26.5438 18.9745 26.5493 18.4403C26.5603 17.3946 27.4341 16.8657 28.1848 16.8733C28.9356 16.8815 30.4904 16.876 30.4904 16.876V13.5029C30.4904 13.5029 29.1444 13.328 27.7323 13.3136C26.5457 13.3012 25.2354 13.623 24.178 14.6886C23.102 15.7721 22.9324 17.3863 22.9117 19.3588C22.9056 19.9287 22.9117 21.1165 22.9117 21.1165H19.7253V24.7755H22.9117V33H14.553C11.2578 33 11 32.7415 11 29.447V14.553C11 11.2578 11.2578 11 14.553 11Z" fill="#0F172A"/>
</svg>
