<svg width="44" height="44" viewBox="0 0 44 44" fill="none" xmlns="http://www.w3.org/2000/svg">
<path d="M16.3442 8.25C8.83811 8.25 8.25 8.83743 8.25 16.3442V27.6558C8.25 35.1619 8.83811 35.75 16.3442 35.75H27.6558C35.1619 35.75 35.75 35.1626 35.75 27.6558V16.3442C35.75 8.83743 35.1626 8.25 27.6558 8.25H16.3442ZM14.553 11H29.447C32.7422 11 33 11.2578 33 14.553V29.447C33 32.7422 32.7415 33 29.447 33H14.553C11.2578 33 11 32.7415 11 29.447V14.553C11 11.2578 11.2578 11 14.553 11ZM15.4701 12.7214C14.3502 12.7214 13.4425 13.6291 13.4425 14.7477C13.4425 15.8662 14.3495 16.7753 15.4701 16.7753C16.5873 16.7753 17.495 15.8669 17.495 14.7477C17.495 13.6305 16.5873 12.7214 15.4701 12.7214ZM26.0793 18.0966C24.3881 18.0966 23.2536 19.0246 22.7896 19.9039H22.7412V18.3759H19.4071V29.5625H22.8809V24.0276C22.8809 22.568 23.1601 21.1554 24.9689 21.1554C26.7522 21.1554 26.7749 22.8256 26.7749 24.1229V29.5625H30.25V23.426C30.25 20.4134 29.6 18.0966 26.0793 18.0966ZM13.7312 18.3759V29.5625H17.2076V18.3759H13.7312Z" fill="#0F172A"/>
</svg>
