<svg width="30" height="30" viewBox="0 0 30 30" fill="none" xmlns="http://www.w3.org/2000/svg">
<path d="M22.6819 4.43994H7.32187C5.99813 4.43994 4.92188 5.51619 4.92188 6.83994V19.3199C4.92188 20.6437 5.99813 21.7199 7.32187 21.7199H9.24187C9.22687 22.9274 9.10125 24.0281 8.03438 24.6693C7.85063 24.7799 7.76063 25.0012 7.81875 25.2093C7.87687 25.4156 8.06625 25.5599 8.28187 25.5599C9.98813 25.5599 12.2362 24.8831 13.4212 21.7199H22.6819C24.0056 21.7199 25.0819 20.6437 25.0819 19.3199V6.83994C25.0819 5.51619 24.0056 4.43994 22.6819 4.43994ZM9.92813 7.31994L11.6419 8.34932V8.87244L13.8994 11.1281L13.05 11.9774L10.7925 9.71994H10.2694L9.24188 8.00619L9.92813 7.31994ZM20.7375 17.8743C20.7319 17.9099 20.7188 17.9437 20.7075 17.9774C20.6962 18.0168 20.6869 18.0599 20.67 18.0993C20.6531 18.1387 20.6306 18.1743 20.61 18.2118C20.5931 18.2437 20.58 18.2756 20.5594 18.3056C20.4713 18.4368 20.3588 18.5493 20.2275 18.6374C20.1975 18.6581 20.1656 18.6712 20.1338 18.6881C20.0963 18.7087 20.0606 18.7312 20.0213 18.7481C19.98 18.7649 19.9388 18.7743 19.8994 18.7856C19.8656 18.7968 19.8319 18.8099 19.7963 18.8156C19.6406 18.8474 19.4813 18.8474 19.3275 18.8156C19.2919 18.8099 19.2581 18.7968 19.2244 18.7856C19.1831 18.7743 19.1419 18.7649 19.1025 18.7481C19.0631 18.7312 19.0275 18.7087 18.99 18.6881C18.9581 18.6712 18.9263 18.6581 18.8963 18.6374C18.8306 18.5943 18.7688 18.5437 18.7125 18.4893L15.6806 15.4556L17.3775 13.7587L20.4113 16.7906C20.4656 16.8468 20.5163 16.9087 20.5594 16.9743C20.58 17.0043 20.5931 17.0362 20.61 17.0681C20.6306 17.1056 20.6531 17.1412 20.67 17.1806C20.6869 17.22 20.6963 17.2612 20.7075 17.3025C20.7188 17.3362 20.7319 17.37 20.7375 17.4056C20.7694 17.5612 20.7694 17.7187 20.7375 17.8743ZM17.8819 13.0799C17.5294 13.0799 17.1938 13.0143 16.8806 12.8981L11.2912 18.4893C11.235 18.5437 11.1731 18.5943 11.1075 18.6374C11.0775 18.6581 11.0456 18.6712 11.0138 18.6881C10.9763 18.7087 10.9406 18.7312 10.9013 18.7481C10.8619 18.7649 10.8206 18.7743 10.7794 18.7856C10.7456 18.7968 10.7119 18.8099 10.6763 18.8156C10.5225 18.8474 10.3631 18.8474 10.2075 18.8156C10.1719 18.8099 10.1381 18.7968 10.1044 18.7856C10.065 18.7743 10.0238 18.7649 9.98251 18.7481C9.94313 18.7312 9.90751 18.7087 9.87001 18.6881C9.83813 18.6712 9.80626 18.6581 9.77626 18.6374C9.64501 18.5493 9.53251 18.4368 9.44438 18.3056C9.42376 18.2756 9.41063 18.2437 9.39376 18.2118C9.37313 18.1743 9.35063 18.1387 9.33376 18.0993C9.31688 18.0581 9.30751 18.0168 9.29626 17.9774C9.28501 17.9437 9.27188 17.9099 9.26626 17.8743C9.23438 17.7206 9.23438 17.5612 9.26626 17.4056C9.27188 17.3699 9.28501 17.3362 9.29626 17.3024C9.30751 17.2631 9.31688 17.2218 9.33376 17.1806C9.35064 17.1412 9.37314 17.1056 9.39376 17.0681C9.41064 17.0362 9.42376 17.0043 9.44439 16.9743C9.48751 16.9087 9.53814 16.8468 9.59251 16.7924L15.1838 11.2012C15.0675 10.8881 15.0019 10.5524 15.0019 10.1999C15.0019 8.60995 16.2919 7.31995 17.8819 7.31995C18.3263 7.31995 18.7463 7.42307 19.1213 7.60307L16.9631 9.76119L18.3206 11.1187L20.4788 8.96057C20.6588 9.33557 20.7619 9.75557 20.7619 10.1999C20.7619 11.7899 19.4719 13.0799 17.8819 13.0799Z" fill="black"/>
</svg>
