<svg width="40" height="40" viewBox="0 0 40 40" fill="none" xmlns="http://www.w3.org/2000/svg">
<path d="M33.1253 5.625C31.1922 5.625 21.2325 5.94317 14.9368 12.2375C14.3293 12.8452 13.8156 13.4913 13.367 14.1504C12.2491 14.2596 10.0674 14.6631 8.31452 16.1731C5.88515 18.2668 5.63775 21.6501 5.62775 21.7932C5.60338 22.1601 5.7418 22.5184 6.00617 22.7734C6.24055 22.9997 6.55281 23.125 6.87531 23.125C6.91656 23.125 6.95798 23.1233 6.9986 23.1189L10.6302 22.7551C10.6231 22.9726 10.6247 23.114 10.6253 23.1482C10.6316 23.4719 10.7628 23.78 10.9915 24.0088L15.9915 29.0088C16.2203 29.2375 16.5284 29.3682 16.8521 29.3738C16.8652 29.3744 16.8933 29.375 16.9339 29.375C16.9931 29.375 17.1323 29.3697 17.2452 29.3665L16.8814 33.0005C16.8452 33.3661 16.9719 33.7298 17.2269 33.9941C17.4625 34.2385 17.7872 34.375 18.1253 34.375C18.1522 34.375 18.1796 34.3744 18.2071 34.3726C18.3496 34.3632 21.7329 34.1158 23.826 31.6858C25.3345 29.9357 25.7398 27.7514 25.8499 26.6333C26.509 26.1846 27.1539 25.6712 27.7615 25.0635C34.0565 18.7697 34.3753 8.80812 34.3753 6.875C34.3753 6.185 33.8153 5.625 33.1253 5.625ZM31.8375 8.16284C31.6631 11.3366 30.7321 18.5578 25.994 23.2959C23.0096 26.2803 18.7895 26.7766 17.377 26.8591L13.1412 22.6233C13.2237 21.2102 13.7207 16.9907 16.7044 14.0063C21.4432 9.26822 28.6643 8.33722 31.8375 8.16284ZM25.0003 12.5C23.6197 12.5 22.5003 13.6194 22.5003 15C22.5003 16.3806 23.6197 17.5 25.0003 17.5C26.3809 17.5 27.5003 16.3806 27.5003 15C27.5003 13.6194 26.3809 12.5 25.0003 12.5ZM11.8521 17.0203C11.3954 18.1689 11.1058 19.2676 10.9268 20.2136L8.4488 20.4614C8.70692 19.6789 9.1591 18.7445 9.9466 18.0664C10.5349 17.5594 11.2141 17.2363 11.8521 17.0203ZM9.74152 25.3662C8.6584 26.4493 7.50031 28.5638 7.50031 31.25C7.50031 31.94 8.06031 32.5 8.75031 32.5C11.4353 32.5 13.5504 31.3425 14.6341 30.2588L12.8665 28.4912C12.7434 28.615 11.8598 28.9386 11.0623 28.938C11.0623 28.138 11.386 27.2569 11.5091 27.1338L9.74152 25.3662ZM22.9788 28.1494C22.7625 28.7868 22.4394 29.4658 21.9327 30.0537C21.2533 30.8425 20.3208 31.2946 19.5389 31.5515L19.7867 29.0735C20.7323 28.8946 21.8309 28.6058 22.9788 28.1494Z" fill="#0F172A"/>
</svg>
