<svg width="49" height="49" viewBox="0 0 49 49" fill="none" xmlns="http://www.w3.org/2000/svg">
<path d="M40.5785 6.89062C38.2104 6.89062 26.0098 7.28039 18.2976 14.991C17.5534 15.7354 16.9241 16.5269 16.3746 17.3342C15.0052 17.468 12.3326 17.9623 10.1853 19.812C7.2093 22.3769 6.90625 26.5214 6.894 26.6967C6.86414 27.1461 7.0337 27.5851 7.35756 27.8975C7.64467 28.1746 8.02719 28.3281 8.42226 28.3281C8.47279 28.3281 8.52352 28.326 8.57329 28.3206L13.022 27.875C13.0133 28.1414 13.0152 28.3147 13.016 28.3565C13.0237 28.7531 13.1844 29.1305 13.4646 29.4108L19.5896 35.5358C19.8698 35.816 20.2473 35.976 20.6438 35.9829C20.6599 35.9836 20.6943 35.9844 20.744 35.9844C20.8165 35.9844 20.987 35.9779 21.1254 35.9739L20.6797 40.4256C20.6353 40.8735 20.7905 41.319 21.1029 41.6428C21.3916 41.9422 21.7893 42.1094 22.2035 42.1094C22.2364 42.1094 22.27 42.1087 22.3037 42.1064C22.4783 42.0949 26.6228 41.7918 29.1868 38.8151C31.0348 36.6712 31.5312 33.9955 31.6662 32.6258C32.4735 32.0762 33.2635 31.4472 34.0079 30.7028C41.7193 22.9929 42.1098 10.79 42.1098 8.42188C42.1098 7.57663 41.4238 6.89062 40.5785 6.89062ZM39.0009 9.99948C38.7873 13.8873 37.6468 22.7333 31.8426 28.5375C28.1867 32.1933 23.0172 32.8014 21.2868 32.9024L16.0979 27.7135C16.199 25.9825 16.8078 20.8136 20.4629 17.1578C26.2679 11.3536 35.1138 10.2131 39.0009 9.99948ZM30.6254 15.3125C28.9341 15.3125 27.5629 16.6837 27.5629 18.375C27.5629 20.0663 28.9341 21.4375 30.6254 21.4375C32.3166 21.4375 33.6879 20.0663 33.6879 18.375C33.6879 16.6837 32.3166 15.3125 30.6254 15.3125ZM14.5188 20.8498C13.9594 22.2569 13.6047 23.6028 13.3854 24.7617L10.3498 25.0652C10.666 24.1067 11.2199 22.9621 12.1846 22.1313C12.9053 21.5103 13.7373 21.1145 14.5188 20.8498ZM11.9334 31.0736C10.6065 32.4004 9.18788 34.9906 9.18788 38.2812C9.18788 39.1265 9.87388 39.8125 10.7191 39.8125C14.0083 39.8125 16.5992 38.3946 17.9268 37.067L15.7615 34.9017C15.6107 35.0533 14.5283 35.4498 13.5513 35.449C13.5513 34.469 13.9478 33.3897 14.0986 33.2389L11.9334 31.0736ZM28.1491 34.483C27.8841 35.2639 27.4883 36.0956 26.8675 36.8158C26.0353 37.782 24.8929 38.3359 23.9351 38.6506L24.2387 35.615C25.3971 35.3958 26.7429 35.0421 28.1491 34.483Z" fill="#F97316"/>
</svg>
