<svg xmlns="http://www.w3.org/2000/svg"  viewBox="0 0 64 64" width="48px" height="48px"><path d="M 32 10 C 18.215 10 7 18.950125 7 29.953125 C 7 36.826125 11.346375 43.104953 18.484375 46.751953 C 16.447375 50.185953 14.503469 52.951375 14.480469 52.984375 C 14.027469 53.628375 13.994484 54.47825 14.396484 55.15625 C 14.760484 55.76725 15.417188 56.136719 16.117188 56.136719 C 16.193188 56.136719 16.269703 56.132047 16.345703 56.123047 C 16.606703 56.093047 22.648578 55.345797 30.017578 49.841797 C 30.689578 49.884797 31.354 49.90625 32 49.90625 C 45.785 49.90625 57 40.956125 57 29.953125 C 57 18.950125 45.785 10 32 10 z M 32 14 C 43.579 14 53 21.156125 53 29.953125 C 53 38.750125 43.579 45.90625 32 45.90625 C 31.222 45.90625 30.408984 45.871828 29.583984 45.798828 C 29.083984 45.752828 28.581594 45.900937 28.183594 46.210938 C 25.435594 48.341937 22.881312 49.723328 20.820312 50.611328 C 21.535312 49.459328 22.307641 48.167219 23.056641 46.824219 C 23.336641 46.325219 23.388219 45.729453 23.199219 45.189453 C 23.010219 44.649453 22.599312 44.217 22.070312 44 C 15.241313 41.197 11 35.813125 11 29.953125 C 11 21.156125 20.421 14 32 14 z M 32.003906 19.226562 C 28.853906 19.226563 26.510266 20.470297 25.572266 22.404297 C 25.279266 22.960297 25.134766 23.518438 25.134766 24.148438 C 25.134766 25.261437 25.852766 25.978516 27.009766 25.978516 C 27.903766 25.978516 28.561734 25.568859 28.927734 24.630859 C 29.396734 23.326859 30.362828 22.623047 31.798828 22.623047 C 33.410828 22.623047 34.523438 23.620641 34.523438 25.056641 C 34.523438 26.404641 33.9525 27.135672 32.0625 28.263672 C 30.3345 29.274672 29.441406 30.417484 29.441406 32.146484 L 29.441406 32.351562 C 29.441406 33.552563 30.173969 34.401344 31.417969 34.402344 C 32.448969 34.402344 33.018188 33.839047 33.242188 32.873047 L 33.248047 32.849609 C 33.438047 31.619609 33.878172 30.989328 35.826172 29.861328 C 37.892172 28.645328 38.962891 27.135828 38.962891 24.923828 C 38.962891 21.510828 36.163906 19.226562 32.003906 19.226562 z M 31.449219 36.320312 C 30.130219 36.320312 29.060547 37.330141 29.060547 38.619141 C 29.060547 39.908141 30.130219 40.919922 31.449219 40.919922 C 32.782219 40.919922 33.851562 39.908141 33.851562 38.619141 C 33.851562 37.330141 32.782219 36.320312 31.449219 36.320312 z"/></svg>