<svg xmlns="http://www.w3.org/2000/svg"  viewBox="0 0 64 64" width="48px" height="48px"><path d="M32,10c12.15,0,22,9.85,22,22s-9.85,22-22,22s-22-9.85-22-22S19.85,10,32,10z M31.496,43.007	c1.568,0,2.506-1.227,2.506-2.398c0-1.171-0.972-2.398-2.506-2.398c-1.534,0-2.507,1.297-2.507,2.398	C28.989,41.71,29.928,43.007,31.496,43.007z M33.512,34.588c0-3.316,5.803-2.978,5.803-8.284c0-2.664-2.444-5.475-7.056-5.475	c-3.589,0-7.111,1.881-7.111,4.713c0,0.527,0.329,1.635,1.662,1.635c0.725,0,1.201-0.294,1.609-0.7	c0.912-0.908,1.478-2.379,3.704-2.379c0.89,0,2.942,0.451,2.942,2.588c0,3.232-5.449,3.105-5.449,7.71	c0,1.441,0.63,2.071,1.934,2.071C33.616,36.468,33.512,34.776,33.512,34.588z"/></svg>