<svg width="48" height="48" viewBox="0 0 48 48" fill="none" xmlns="http://www.w3.org/2000/svg">
<path d="M34.7992 13.7999C36.4552 13.7999 37.7992 15.1439 37.7992 16.7999V31.1999C37.7992 32.8559 36.4552 34.1999 34.7992 34.1999H32.3992V33.2999C32.3992 32.4719 31.7272 31.7999 30.8992 31.7999C30.0712 31.7999 29.3992 32.4719 29.3992 33.2999V34.1999H18.5992V33.2999C18.5992 32.4719 17.9272 31.7999 17.0992 31.7999C16.2712 31.7999 15.5992 32.4719 15.5992 33.2999V34.1999H13.1992C11.5432 34.1999 10.1992 32.8559 10.1992 31.1999V14.3999C10.1992 12.7439 11.5432 11.3999 13.1992 11.3999H20.3992C21.8512 11.3999 23.0572 12.4319 23.3392 13.7999H34.7992ZM22.6834 27.6077C22.8628 27.6077 23.4376 27.5405 23.4376 26.9795C23.4376 25.9385 22.5586 25.0337 22.0564 24.6701C20.974 23.8859 19.9288 23.6633 18.8992 23.6633C17.8696 23.6633 16.8244 23.8859 15.742 24.6701C15.2398 25.0337 14.3608 25.9385 14.3608 26.9795C14.3608 27.5405 14.9356 27.6077 15.115 27.6077C15.2944 27.6077 22.504 27.6077 22.6834 27.6077ZM18.9094 22.6853C20.08 22.6853 21.0286 21.6383 21.0286 20.3465C21.0286 19.0547 20.08 18.0077 18.9094 18.0077C17.7394 18.0077 16.7902 19.0547 16.7902 20.3465C16.7902 21.6383 17.7394 22.6853 18.9094 22.6853ZM32.0992 26.3999C32.596 26.3999 32.9992 25.9973 32.9992 25.4999C32.9992 25.0025 32.596 24.5999 32.0992 24.5999H27.2992C26.8024 24.5999 26.3992 25.0025 26.3992 25.4999C26.3992 25.9973 26.8024 26.3999 27.2992 26.3999H32.0992ZM32.0992 22.1999C32.596 22.1999 32.9992 21.7973 32.9992 21.2999C32.9992 20.8025 32.596 20.3999 32.0992 20.3999H27.2992C26.8024 20.3999 26.3992 20.8025 26.3992 21.2999C26.3992 21.7973 26.8024 22.1999 27.2992 22.1999H32.0992Z" fill="black"/>
</svg>
