<svg width="50" height="50" viewBox="0 0 50 50" fill="none" xmlns="http://www.w3.org/2000/svg">
<path d="M25.0016 6.6001C14.8392 6.6001 6.60156 14.8377 6.60156 25.0001C6.60156 35.1625 14.8392 43.4001 25.0016 43.4001C35.164 43.4001 43.4016 35.1625 43.4016 25.0001C43.4016 14.8377 35.164 6.6001 25.0016 6.6001ZM25.0016 13.8001C26.3272 13.8001 27.4016 14.8745 27.4016 16.2001C27.4016 17.5257 26.3272 18.6001 25.0016 18.6001C23.676 18.6001 22.6016 17.5257 22.6016 16.2001C22.6016 14.8745 23.676 13.8001 25.0016 13.8001ZM28.2016 35.4001H26.6016H23.4016H21.8016V33.8001H23.4016V23.4001H21.8016V21.8001H23.4016H26.6016V23.4001V33.8001H28.2016V35.4001Z" fill="black"/>
</svg>
