<svg width="40" height="40" viewBox="0 0 40 40" fill="none" xmlns="http://www.w3.org/2000/svg">
<path d="M9.59106 7.54395C8.17731 7.54395 6.99027 7.79346 6.03027 8.29346C5.07027 8.79346 4.34617 9.5234 3.85742 10.4834C3.3693 11.4434 3.125 12.6194 3.125 14.01V18.4204C3.125 19.811 3.36989 20.9858 3.85864 21.9458C4.34739 22.9058 5.07027 23.6357 6.03027 24.1357C6.99027 24.6357 8.0528 24.8865 9.46655 24.8865V25.5115V28.3179C9.46655 28.9154 9.61288 29.3894 9.90601 29.74C10.1991 30.0906 10.616 30.2661 11.156 30.2661C11.5354 30.2661 11.8799 30.1652 12.1899 29.9646C12.5006 29.7633 12.8918 29.4503 13.363 29.0247L17.9834 24.8865H21.7126C23.1264 24.8865 24.3134 24.6357 25.2734 24.1357C26.2334 23.6357 26.9563 22.9058 27.4451 21.9458C27.9332 20.9858 28.1787 19.811 28.1787 18.4204V14.01C28.1787 12.6188 27.9338 11.4434 27.4451 10.4834C26.9563 9.5234 26.2334 8.79346 25.2734 8.29346C24.3134 7.79346 23.1264 7.54395 21.7126 7.54395H9.59106ZM9.59106 10.0439H21.7126C23.1039 10.0439 24.116 10.3739 24.7485 11.0352C25.3804 11.6964 25.6958 12.6869 25.6958 14.0088V18.4192C25.6958 19.7411 25.381 20.7357 24.7485 21.4026C24.116 22.0695 23.1033 22.4023 21.7126 22.4023H17.8467C17.4329 22.4023 17.0959 22.4455 16.8372 22.5317C16.5784 22.618 16.3108 22.8104 16.0352 23.1091L11.7944 27.4365V23.5583C11.7944 23.1327 11.7052 22.8336 11.5271 22.6611C11.349 22.4886 11.0522 22.4023 10.6384 22.4023H9.59106C8.19981 22.4023 7.1889 22.0695 6.5564 21.4026C5.92452 20.7357 5.60791 19.7411 5.60791 18.4192V14.0088C5.60791 12.6869 5.9239 11.6964 6.5564 11.0352C7.1889 10.3745 8.20044 10.0439 9.59106 10.0439ZM29.9622 12.5439C30.0247 13.0127 30.0562 13.5 30.0562 14.0125V15.0439H30.2441C31.6379 15.0439 32.65 15.3751 33.2812 16.0376C33.9125 16.6938 34.231 17.6875 34.231 19.0125V23.5315C34.231 24.8565 33.9125 25.85 33.2812 26.5125C32.65 27.1812 31.6379 27.5122 30.2441 27.5122H29.2004C28.7879 27.5122 28.488 27.5997 28.313 27.7747C28.1317 27.9434 28.0432 28.2432 28.0432 28.6682V32.55L23.8 28.2251C23.525 27.9251 23.2567 27.7315 23.0005 27.644C22.7442 27.5565 22.4059 27.5122 21.9934 27.5122C17.8053 27.5122 18.0582 27.5155 17.9932 27.5061L15.5872 29.6558C16.1003 29.8151 16.9156 30 18.125 30H21.8506L26.4746 34.137C26.9434 34.562 27.3378 34.8745 27.644 35.0745C27.9565 35.2745 28.3004 35.3748 28.6816 35.3748C29.2191 35.3748 29.6379 35.1999 29.9316 34.8499C30.2254 34.4999 30.3687 34.0251 30.3687 33.4314V30C31.7874 30 32.8437 29.7505 33.8062 29.2505C34.7687 28.7505 35.4877 28.0182 35.9814 27.0557C36.4689 26.0994 36.7126 24.9252 36.7126 23.5315V19.0125C36.7126 17.6187 36.4689 16.4435 35.9814 15.481C35.4877 14.5247 34.7687 13.7935 33.8062 13.2935C32.8437 12.7935 31.6629 12.5439 30.2441 12.5439H29.9622ZM9.61792 13.7964C9.12792 13.7964 8.7561 14.1953 8.7561 14.6765C8.7561 15.1596 9.12854 15.5554 9.61792 15.5554H22.0068C22.4968 15.5554 22.8687 15.1578 22.8687 14.6765C22.8687 14.1934 22.4962 13.7964 22.0068 13.7964H9.61792ZM9.61792 17.5684C9.01542 17.5684 8.7561 18.0962 8.7561 18.4656C8.7561 18.9475 9.12854 19.3274 9.61792 19.3274H17.821C18.3029 19.3274 18.6829 18.955 18.6829 18.4656C18.6829 18.1018 18.4254 17.5684 17.821 17.5684H9.61792Z" fill="#0F172A"/>
</svg>
