<svg width="68" height="68" viewBox="0 0 68 68" fill="none" xmlns="http://www.w3.org/2000/svg">
<path d="M53.81 10C51.3863 10 49.575 11.7224 49.575 14.0116C49.575 14.6875 49.9075 15.5814 50.485 17.0465C51.7275 20.2035 54.055 26.0727 54.055 34C54.055 41.8881 51.8238 47.4956 50.485 50.8488C49.9031 52.314 49.5138 53.282 49.47 54.093C49.47 55.6672 50.7738 58 53.6 58C55.0131 58 56.2644 57.2805 57.03 56.0116C59.0381 52.6759 62 43.4012 62 34.1047C62 24.1977 58.9681 15.3939 56.96 11.9535C56.365 10.7631 55.1138 10 53.81 10ZM43.31 14.6744C40.8863 14.6744 39.04 16.4317 39.04 18.7209C39.04 19.4448 39.3725 20.2776 39.88 21.5465C40.8644 23.9927 42.505 28.0741 42.505 34C42.505 40.4884 40.9081 44.1424 39.845 46.5581C39.3419 47.7049 38.9788 48.5552 38.935 49.4186C38.935 50.9927 40.2388 53.3256 43.065 53.3256C44.4781 53.3256 45.7338 52.5669 46.495 51.3023C48.3281 48.2631 50.45 41.9404 50.45 34.1047C50.45 27.5073 48.9406 20.9448 46.425 16.6279C45.83 15.4419 44.6138 14.6744 43.31 14.6744ZM31.095 19.4884C28.9206 19.4884 27.63 20.984 27.63 23.5C27.63 24.4462 28.0106 25.5538 28.505 26.9535C29.1613 28.811 29.975 31.1134 29.975 33.5465C29.975 35.016 29.7563 36.141 29.555 36.7907C22.8438 31.5887 12.9825 23.9099 12.51 23.5C12.4575 23.4477 12.3963 23.3997 12.335 23.3605C11.8231 23.0204 11.3769 22.8372 10.48 22.8372C9.1325 22.8372 6 23.8794 6 33.6512C6 42.2936 8.79125 45.3721 11.39 45.3721C13.4944 45.3721 14.75 43.7718 14.75 41.0465C14.75 40.1875 14.4613 38.6003 14.19 37.0698C14.0456 36.2631 13.84 35.1599 13.84 34.907C13.84 34.8241 13.8356 34.7282 13.84 34.6628C13.9538 34.7413 14.1025 34.8503 14.26 34.9767C14.82 35.4564 17.6419 37.6105 25.565 43.593C27.5163 45.0669 29.0431 46.218 29.345 46.4535C29.8175 46.8983 30.7056 47.3954 32.32 47.3954C36.3056 47.3954 38.025 38.5262 38.025 34C38.025 27.2892 35.0063 19.4884 31.095 19.4884Z" fill="#0F172A"/>
</svg>
