<svg width="100" height="100" viewBox="0 0 100 100" fill="none" xmlns="http://www.w3.org/2000/svg">
<path d="M64.3579 15.3413C59.1587 15.3413 53.9603 17.3191 49.9994 21.28L41.1554 30.1088C33.2335 38.0306 33.2335 50.9222 41.1554 58.8441C43.5616 61.2347 46.3914 62.8901 49.4226 63.8276C51.2367 62.0308 52.6165 60.9104 53.3899 58.3589C50.5305 57.937 47.7805 56.6252 45.5774 54.4221C40.093 48.9377 40.093 40.0151 45.5774 34.5308L54.4214 25.6868C59.9058 20.218 68.8284 20.218 74.3127 25.6868C79.5815 30.9711 79.772 39.4339 74.9048 44.9464C74.7345 45.1402 74.5566 45.3312 74.3738 45.5171C75.1269 45.4077 78.2388 45.0013 81.9513 45.7826C82.081 45.5576 82.2064 45.3302 82.3267 45.1021C86.3689 37.4489 85.1679 27.7285 78.7195 21.28C74.7585 17.3191 69.5571 15.3413 64.3579 15.3413ZM50.5762 36.1726L48.8885 37.845C47.7948 38.9387 47.0308 40.2507 46.6089 41.6414C49.4683 42.0632 52.2183 43.375 54.4214 45.5781C57.1089 48.2656 58.4852 51.8121 58.5321 55.359C59.9852 53.1715 61.8118 51.2666 63.9368 49.7041C63.0149 46.5791 61.3121 43.6249 58.8434 41.1561C56.4371 38.7655 53.6074 37.1101 50.5762 36.1726ZM30.874 40.439C30.624 40.6733 30.358 40.9218 30.108 41.1561L21.2793 50.0001C13.3574 57.922 13.3574 70.7983 21.2793 78.7202C29.2012 86.6421 42.0775 86.6421 49.9994 78.7202L55.343 73.3766C54.6118 70.475 54.5398 67.4315 54.8914 64.969C54.7351 65.1409 45.5774 74.3135 45.5774 74.3135C40.093 79.7822 31.1704 79.7822 25.686 74.3135C20.2173 68.8291 20.2173 59.9065 25.686 54.4221L30.9839 49.1243C30.437 46.2493 30.4053 43.2983 30.874 40.439ZM77.3431 50.0001C67.4197 50.0001 59.3744 58.0454 59.3744 67.9689C59.3744 77.8923 67.4197 85.9376 77.3431 85.9376C87.2666 85.9376 95.3119 77.8923 95.3119 67.9689C95.3119 58.0454 87.2666 50.0001 77.3431 50.0001ZM77.3431 57.8126C78.6369 57.8126 79.6869 58.8611 79.6869 60.1564V65.6251H85.1556C86.4494 65.6251 87.4994 66.6736 87.4994 67.9689C87.4994 69.2642 86.4494 70.3126 85.1556 70.3126H79.6869V75.7814C79.6869 77.0767 78.6369 78.1251 77.3431 78.1251C76.0494 78.1251 74.9994 77.0767 74.9994 75.7814V70.3126H69.5306C68.2369 70.3126 67.1869 69.2642 67.1869 67.9689C67.1869 66.6736 68.2369 65.6251 69.5306 65.6251H74.9994V60.1564C74.9994 58.8611 76.0494 57.8126 77.3431 57.8126Z" fill="#0F172A"/>
</svg>
