<svg width="100" height="100" viewBox="0 0 100 100" fill="none" xmlns="http://www.w3.org/2000/svg">
<path d="M37.5 15.625C33.1 15.625 29.4026 18.6601 28.4058 22.757C28.3511 22.9804 28.3029 23.2078 28.2654 23.4375H64.0625C71.8125 23.4375 78.125 29.75 78.125 37.5V73.2971C78.3891 73.2534 78.65 73.1979 78.9062 73.1323C82.9531 72.0995 85.9375 68.4266 85.9375 64.0625V25C85.9375 19.8281 81.7344 15.625 76.5625 15.625H37.5ZM26.5625 28.125C21.3906 28.125 17.1875 32.3281 17.1875 37.5V75C17.1875 80.1719 21.3906 84.375 26.5625 84.375H64.0625C69.2344 84.375 73.4375 80.1719 73.4375 75V37.5C73.4375 32.3281 69.2344 28.125 64.0625 28.125H26.5625ZM52.0691 39.0656C54.739 39.0656 57.4048 40.0874 59.436 42.1265C63.5142 46.189 63.5142 52.7975 59.436 56.8756L56.4117 59.9152C56.3305 59.998 56.3152 60.0148 56.2042 60.1257C56.2355 59.7351 56.25 59.3296 56.25 58.9233C56.25 57.2827 55.9546 55.7195 55.4077 54.2664L56.1249 53.5492C58.3749 51.3148 58.3749 47.672 56.1249 45.4376C53.8905 43.1876 50.2507 43.2032 48.0164 45.4376L44.6899 48.7671C47.9665 49.4437 50.1158 51.4498 49.9939 51.5717C54.0595 55.6373 54.0595 62.2536 49.9939 66.3208L45.932 70.3827C43.8976 72.4155 41.2278 73.4314 38.5559 73.4314C35.8856 73.4314 33.2172 72.4125 31.1829 70.3796C27.1047 66.3171 27.1108 59.7025 31.189 55.6244L34.1553 52.6428C34.2584 52.5381 34.3098 52.4852 34.4208 52.3743C34.3895 52.7649 34.375 53.1704 34.375 53.5767C34.375 55.2173 34.6719 56.7805 35.2203 58.2336L34.5001 58.9539C32.2501 61.1882 32.2501 64.828 34.5001 67.0624C34.1423 67.4139 39.11 70.5763 42.6178 67.0685L45.9167 63.7695C43.9839 63.3758 42.1344 62.4344 40.625 60.9375C38.5938 58.9063 37.5793 56.2177 37.5793 53.5614C37.5793 50.8739 38.5938 48.22 40.625 46.1731L44.6869 42.1265C46.726 40.0874 49.3992 39.0656 52.0691 39.0656ZM42.3004 53.1799C42.1957 54.7706 42.7342 56.3955 43.9545 57.608C45.1576 58.8096 46.7573 59.3572 48.3276 59.2712C48.4167 57.6947 47.8782 56.0874 46.6766 54.8859C46.5548 55.0077 44.9192 53.0237 42.3004 53.1799Z" fill="#0F172A"/>
</svg>
