<svg width="30" height="30" viewBox="0 0 30 30" fill="none" xmlns="http://www.w3.org/2000/svg">
<path d="M18.538 6.46729C17.2576 6.46729 15.9766 6.95453 15.0016 7.92953L12.1715 10.7564C10.2248 12.7064 10.2248 15.8799 12.1715 17.8299C12.4148 18.0699 12.6748 18.2834 12.9514 18.4634C14.4824 16.9324 14.4737 16.9378 14.9247 16.4901C14.6081 16.3801 14.3115 16.1965 14.0582 15.9432C13.1482 15.0332 13.1482 13.5531 14.0582 12.6431L16.8883 9.813C17.7983 8.90299 19.2784 8.90299 20.1884 9.813C21.0984 10.723 21.1008 12.2055 20.1884 13.1131C20.1011 13.2001 19.9562 13.3421 19.8382 13.4601C21.2448 13.1461 22.4057 13.4796 22.9983 13.7199C23.0233 13.6702 23.0473 13.6205 23.0706 13.5702C23.9276 11.7195 23.5939 9.45153 22.0719 7.92953C21.0986 6.95453 19.8185 6.46729 18.538 6.46729ZM17.0517 11.5363L16.2613 12.3267C15.9647 12.6233 15.5317 13.0596 15.0784 13.5096C15.3951 13.6196 15.6916 13.8032 15.9449 14.0565C16.3783 14.4898 16.6046 15.0497 16.6246 15.6164C17.1913 14.8031 17.978 14.1562 18.9013 13.7629C18.658 13.1829 18.3017 12.6431 17.8317 12.1698C17.5883 11.9298 17.3284 11.7163 17.0517 11.5363ZM9.428 13.5031C9.36466 13.5598 9.31175 13.6201 9.27175 13.6568L7.93125 14.9999C5.98125 16.9499 5.98125 20.1235 7.93125 22.0702C9.87792 24.0202 13.0516 24.0202 15.0016 22.0702L16.1617 20.91C15.6584 19.8237 15.5472 18.617 15.7952 17.5064L13.1149 20.1867C12.2049 21.0967 10.7247 21.0967 9.81472 20.1867C8.90472 19.2767 8.90472 17.7966 9.81472 16.8866L9.89479 16.8065C9.44479 15.7598 9.288 14.6131 9.428 13.5031ZM21.0016 14.6665C18.7926 14.6665 17.0016 16.4575 17.0016 18.6665C17.0016 20.8755 18.7926 22.6665 21.0016 22.6665C23.2106 22.6665 25.0016 20.8755 25.0016 18.6665C25.0016 16.4575 23.2106 14.6665 21.0016 14.6665ZM21.0016 16.3332C21.3696 16.3332 21.6682 16.6319 21.6682 16.9999V17.9999H22.6682C23.0362 17.9999 23.3349 18.2985 23.3349 18.6665C23.3349 19.0345 23.0362 19.3332 22.6682 19.3332H21.6682V20.3332C21.6682 20.7012 21.3696 20.9999 21.0016 20.9999C20.6336 20.9999 20.3349 20.7012 20.3349 20.3332V19.3332H19.3349C18.9669 19.3332 18.6682 19.0345 18.6682 18.6665C18.6682 18.2985 18.9669 17.9999 19.3349 17.9999H20.3349V16.9999C20.3349 16.6319 20.6336 16.3332 21.0016 16.3332Z" fill="black"/>
</svg>
