<svg width="40" height="40" viewBox="0 0 40 40" fill="none" xmlns="http://www.w3.org/2000/svg">
<path d="M9.59106 7.54297C8.17731 7.54297 6.99027 7.79248 6.03027 8.29248C5.07027 8.79248 4.34617 9.52242 3.85742 10.4824C3.3693 11.4424 3.125 12.6184 3.125 14.009V18.4194C3.125 19.8101 3.36989 20.9848 3.85864 21.9448C4.34739 22.9048 5.07027 23.6348 6.03027 24.1348C6.99027 24.6348 8.0528 24.8855 9.46655 24.8855V25.5105V28.3169C9.46655 28.9144 9.61288 29.3884 9.90601 29.739C10.1991 30.0896 10.616 30.2651 11.156 30.2651C11.5354 30.2651 11.8799 30.1642 12.1899 29.9636C12.5006 29.7624 12.8918 29.4493 13.363 29.0237L17.9834 24.8855H21.7126C23.1264 24.8855 24.3134 24.6348 25.2734 24.1348C26.2334 23.6348 26.9563 22.9048 27.4451 21.9448C27.9332 20.9848 28.1787 19.8101 28.1787 18.4194V14.009C28.1787 12.6178 27.9338 11.4424 27.4451 10.4824C26.9563 9.52242 26.2334 8.79248 25.2734 8.29248C24.3134 7.79248 23.1264 7.54297 21.7126 7.54297H9.59106ZM9.59106 10.043H21.7126C23.1039 10.043 24.116 10.3729 24.7485 11.0342C25.3804 11.6954 25.6958 12.6859 25.6958 14.0078V18.4182C25.6958 19.7401 25.381 20.7347 24.7485 21.4016C24.116 22.0685 23.1033 22.4014 21.7126 22.4014H17.8467C17.4329 22.4014 17.0959 22.4445 16.8372 22.5308C16.5784 22.617 16.3108 22.8094 16.0352 23.1082L11.7944 27.4355V23.5574C11.7944 23.1317 11.7052 22.8327 11.5271 22.6602C11.349 22.4877 11.0522 22.4014 10.6384 22.4014H9.59106C8.19981 22.4014 7.1889 22.0685 6.5564 21.4016C5.92452 20.7347 5.60791 19.7401 5.60791 18.4182V14.0078C5.60791 12.6859 5.9239 11.6954 6.5564 11.0342C7.1889 10.3736 8.20044 10.043 9.59106 10.043ZM29.9622 12.543C30.0247 13.0117 30.0562 13.499 30.0562 14.0115V15.043H30.2441C31.6379 15.043 32.65 15.3741 33.2812 16.0366C33.9125 16.6929 34.231 17.6865 34.231 19.0115V23.5305C34.231 24.8555 33.9125 25.849 33.2812 26.5115C32.65 27.1802 31.6379 27.5112 30.2441 27.5112H29.2004C28.7879 27.5112 28.488 27.5987 28.313 27.7737C28.1317 27.9424 28.0432 28.2422 28.0432 28.6672V32.5491L23.8 28.2241C23.525 27.9241 23.2567 27.7306 23.0005 27.6431C22.7442 27.5556 22.4059 27.5112 21.9934 27.5112C17.8053 27.5112 18.0582 27.5145 17.9932 27.5051L15.5872 29.6548C16.1003 29.8142 16.9156 29.999 18.125 29.999H21.8506L26.4746 34.136C26.9434 34.561 27.3378 34.8735 27.644 35.0735C27.9565 35.2735 28.3004 35.3738 28.6816 35.3738C29.2191 35.3738 29.6379 35.1989 29.9316 34.8489C30.2254 34.4989 30.3687 34.0242 30.3687 33.4304V29.999C31.7874 29.999 32.8437 29.7495 33.8062 29.2495C34.7687 28.7495 35.4877 28.0172 35.9814 27.0547C36.4689 26.0984 36.7126 24.9243 36.7126 23.5305V19.0115C36.7126 17.6177 36.4689 16.4425 35.9814 15.48C35.4877 14.5237 34.7687 13.7925 33.8062 13.2925C32.8437 12.7925 31.6629 12.543 30.2441 12.543H29.9622Z" fill="#0F172A"/>
</svg>
