<?xml version="1.0" encoding="UTF-8"?>
<svg xmlns="http://www.w3.org/2000/svg" viewBox="0 0 4562.81 4562.81">
  <defs>
    <style>
      .cls-1 {
        fill: #fff;
      }
    </style>
  </defs>
  <g id="Layer_2" data-name="Layer 2">
    <path class="cls-1" d="M1545.57,1207.24l-658.47,661.45c-14.83,14.9-40.82,12.03-50.08-6.85-2.54-5.19-3.97-11.02-3.97-17.18V333.05c0-21.58,17.49-39.07,39.07-39.07h669.78c21.58,0,39.07,17.49,39.07,39.07v806.8c0,21.58-19.02,54.64-35.41,67.39Z"/>
    <path class="cls-1" d="M1545.57,3420.89l-658.47-661.45c-14.83-14.9-40.82-12.03-50.08,6.85-2.54,5.19-3.97,11.02-3.97,17.18v1511.61c0,21.58,17.49,39.07,39.07,39.07h669.78c21.58,0,39.07-17.49,39.07-39.07v-806.8c0-21.58-19.02-54.64-35.41-67.39Z"/>
  </g>
  <g id="Layer_3" data-name="Layer 3">
    <path class="cls-1" d="M1877.05,2346.53l-978.84,15.95c-8.5-1.52-36.1-26.16-37.64-37.03-2.43-17.12,16.09-32.2,18.21-35.82L2766.42,397.13c91.06-86.61,148.75-98.77,170.33-99.03l897.45-4.12c18.5-.22,34.15,12.44,38.41,29.65,1.3,5.25-.71,10.78-4.55,14.59l-1956.42,1940.49c-21.45,15.57-18.36,54.87-34.59,67.82Z"/>
    <path class="cls-1" d="M1877.05,2280.94l-974.99-1.23c-8.5,1.52-34.6,31.3-36.14,42.17-2.43,17.12,15.35,27.8,17.47,31.42l1883.04,1877.04c91.06,86.61,148.75,98.77,170.33,99.03l897.45,4.12c18.5.22,34.15-12.44,38.41-29.65,1.3-5.25-.71-10.78-4.55-14.59l-1956.42-1940.49c-21.45-15.57-18.36-54.87-34.59-67.82Z"/>
  </g>
</svg>