<svg xmlns="http://www.w3.org/2000/svg"  viewBox="0 0 64 64" width="48px" height="48px"><path d="M 32 9 C 24.141 9 17.202734 12.969 13.052734 19 L 18.189453 19 C 21.654453 15.316 26.555 13 32 13 C 42.477 13 51 21.523 51 32 C 51 42.477 42.477 51 32 51 C 26.555 51 21.654453 48.684 18.189453 45 L 13.052734 45 C 17.202734 51.031 24.141 55 32 55 C 44.683 55 55 44.682 55 32 C 55 19.318 44.683 9 32 9 z M 17 23 C 16.49 23 15.980797 23.192078 15.591797 23.580078 L 8.5410156 30.580078 C 8.1630156 30.955078 7.9492188 31.467 7.9492188 32 C 7.9492187 32.533 8.1630156 33.043922 8.5410156 33.419922 L 15.591797 40.419922 C 16.375797 41.198922 17.643922 41.194156 18.419922 40.410156 C 19.197922 39.626156 19.192203 38.358078 18.408203 37.580078 L 14.802734 34 L 30 34 C 31.104 34 32 33.104 32 32 C 32 30.896 31.104 30 30 30 L 14.802734 30 L 18.408203 26.419922 C 19.192203 25.640922 19.197922 24.375797 18.419922 23.591797 C 18.028922 23.197797 17.515 23 17 23 z"/></svg>