<svg width="200" height="200" viewBox="0 0 200 200" fill="none" xmlns="http://www.w3.org/2000/svg">
<path d="M67.7473 52.9163L38.8848 81.9094C38.2347 82.5625 37.0955 82.4367 36.6896 81.6092C36.5783 81.3817 36.5156 81.1261 36.5156 80.8561V14.5983C36.5156 13.6524 37.2823 12.8857 38.2282 12.8857H67.5864C68.5323 12.8857 69.2989 13.6524 69.2989 14.5983V49.9625C69.2989 50.9084 68.4652 52.3575 67.7468 52.9163H67.7473Z" fill="white"/>
<path d="M67.7473 149.947L38.8848 120.954C38.2347 120.301 37.0955 120.426 36.6896 121.254C36.5783 121.481 36.5156 121.737 36.5156 122.007V188.265C36.5156 189.211 37.2823 189.977 38.2282 189.977H67.5864C68.5323 189.977 69.2989 189.211 69.2989 188.265V152.901C69.2989 151.955 68.4652 150.506 67.7468 149.947H67.7473Z" fill="white"/>
<path d="M82.2756 102.855L39.3704 103.554C38.9978 103.487 37.7881 102.407 37.7206 101.931C37.614 101.18 38.4258 100.519 38.5187 100.36L121.259 17.4072C125.25 13.6109 127.779 13.0779 128.725 13.0665L168.063 12.8859C168.874 12.8762 169.559 13.4311 169.746 14.1855C169.803 14.4156 169.715 14.658 169.547 14.825L83.7917 99.8818C82.8515 100.564 82.987 102.287 82.2756 102.855Z" fill="white"/>
<path d="M82.2758 99.9797L39.5394 99.9258C39.1668 99.9924 38.0228 101.298 37.9553 101.774C37.8488 102.525 38.6281 102.993 38.721 103.151L121.26 185.427C125.251 189.223 127.78 189.756 128.726 189.768L168.063 189.948C168.874 189.958 169.56 189.403 169.747 188.649C169.804 188.419 169.716 188.176 169.547 188.009L83.7924 102.952C82.8522 102.27 82.9876 100.547 82.2762 99.9797H82.2758Z" fill="white"/>
</svg>
