<svg width="30" height="30" viewBox="0 0 30 30" fill="none" xmlns="http://www.w3.org/2000/svg">
<path d="M9.09393 2.34375C7.43925 2.34375 6.09375 3.64204 6.09375 5.24048V21.947C6.09375 23.5455 7.43925 24.8438 9.09393 24.8438H9.38416C9.19806 24.4589 8.98359 23.8702 8.90625 23.4375H8.90533C8.11362 23.3761 7.53754 22.7342 7.53754 21.947V5.24048C7.53754 4.41079 8.23612 3.73627 9.09393 3.73627H21.8436C22.7014 3.73627 23.4 4.41079 23.4 5.24048V21.947C23.4 22.7767 22.7014 23.4512 21.8436 23.4512H18.6987C18.6284 23.9434 18.483 24.4125 18.2721 24.8438H21.8436C23.4983 24.8438 24.8438 23.5455 24.8438 21.947V5.24048C24.8438 3.64204 23.4983 2.34375 21.8436 2.34375H9.09393ZM10.0781 7.28302C9.69 7.28302 9.375 7.59755 9.375 7.98615C9.375 8.37474 9.69 8.68927 10.0781 8.68927H19.9219C20.31 8.68927 20.625 8.37474 20.625 7.98615C20.625 7.59755 20.31 7.28302 19.9219 7.28302H10.0781ZM10.0781 10.7813C9.69 10.7813 9.375 11.0958 9.375 11.4844C9.375 11.873 9.69 12.1875 10.0781 12.1875H17.1094C17.4975 12.1875 17.8125 11.873 17.8125 11.4844C17.8125 11.0958 17.4975 10.7813 17.1094 10.7813H10.0781ZM13.8281 19.2188C11.8875 19.2188 10.3125 20.7938 10.3125 22.7344C10.3125 23.6625 10.6731 24.5058 11.2637 25.134C11.2684 26.1605 11.2637 28.3731 11.2637 28.3731C11.2637 28.4762 11.522 28.6168 11.6345 28.5699C12.9048 28.0449 13.8419 27.6471 13.8419 27.6471C13.8419 27.6471 14.7708 28.0497 16.0364 28.5654C16.1489 28.6122 16.4062 28.4717 16.4062 28.3685V25.1157C16.9922 24.4875 17.3438 23.6531 17.3438 22.7344C17.3438 20.7938 15.7688 19.2188 13.8281 19.2188ZM13.8373 21.145C14.7092 21.145 15.4175 21.8533 15.4175 22.7252C15.4175 23.5971 14.7092 24.3045 13.8373 24.3045C12.9607 24.3045 12.2534 23.5971 12.2534 22.7252C12.2534 21.8533 12.9607 21.145 13.8373 21.145Z" fill="white"/>
</svg>
