<svg width="40" height="40" viewBox="0 0 40 40" fill="none" xmlns="http://www.w3.org/2000/svg">
<path d="M20 3.125C18.3884 3.125 17.0575 4.35188 16.8921 5.92041C11.584 7.24177 7.53939 11.8535 7.01416 17.5H6.25C5.56 17.5 5 18.06 5 18.75C5 19.44 5.56 20 6.25 20H8.75V20.8789C8.22375 21.4002 7.5 22.3362 7.5 23.5425C7.5 26.48 9.7528 27.6667 11.0291 28.1848C13.9672 33.5579 17.89 34.375 20 34.375C22.11 34.375 26.0328 33.5585 28.9709 28.186C30.2472 27.6679 32.5 26.48 32.5 23.5425C32.5 22.3362 31.7763 21.4002 31.25 20.8789V20H33.75C34.44 20 35 19.44 35 18.75C35 18.06 34.44 17.5 33.75 17.5H32.9858C32.4606 11.8535 28.416 7.24177 23.1079 5.92041C22.9425 4.35188 21.6116 3.125 20 3.125ZM20 5.625C20.345 5.625 20.625 5.90563 20.625 6.25V10.625C20.625 11.315 21.185 11.875 21.875 11.875C22.565 11.875 23.125 11.315 23.125 10.625V8.52295C27.0374 9.76217 29.9767 13.2488 30.4651 17.5H9.53491C10.0233 13.2488 12.9626 9.76217 16.875 8.52295V10.625C16.875 11.315 17.435 11.875 18.125 11.875C18.815 11.875 19.375 11.315 19.375 10.625V6.25C19.375 5.90563 19.655 5.625 20 5.625ZM11.25 20H28.75V22.0862L29.27 22.4609C29.4569 22.5953 30 23.1225 30 23.5425C30 24.875 29.1377 25.4581 27.6477 26.0168L27.1948 26.1865L26.9739 26.6162C24.6208 31.1925 21.595 31.875 20 31.875C18.405 31.875 15.3786 31.1918 13.0261 26.6162L12.8052 26.1865L12.3535 26.0181C10.8629 25.4593 10 24.875 10 23.5425C10 23.1387 10.5069 22.6266 10.73 22.4609L11.25 22.0862V20Z" fill="#0F172A"/>
</svg>
