<svg width="40" height="40" viewBox="0 0 40 40" fill="none" xmlns="http://www.w3.org/2000/svg">
<path d="M15 5C12.9319 5 11.25 6.68187 11.25 8.75H10C8.27688 8.75 6.875 10.1519 6.875 11.875V28.75C6.875 30.8181 8.55687 32.5 10.625 32.5H29.375C31.4431 32.5 33.125 30.8181 33.125 28.75V16.25C33.125 14.1819 31.4431 12.5 29.375 12.5H27.5V8.75C27.5 6.68187 25.8181 5 23.75 5H15ZM15 7.5H20V12.5H13.75V8.75C13.75 8.06062 14.3106 7.5 15 7.5ZM22.5 7.5H23.75C24.4394 7.5 25 8.06062 25 8.75V12.5H22.5V7.5ZM9.375 15H29.375C30.0644 15 30.625 15.5606 30.625 16.25V28.75C30.625 29.4394 30.0644 30 29.375 30H10.625C9.93562 30 9.375 29.4394 9.375 28.75V15ZM26.25 20.625C25.2144 20.625 24.375 21.4644 24.375 22.5C24.375 23.5356 25.2144 24.375 26.25 24.375C27.2856 24.375 28.125 23.5356 28.125 22.5C28.125 21.4644 27.2856 20.625 26.25 20.625Z" fill="#0F172A"/>
</svg>
