<svg width="30" height="30" viewBox="0 0 30 30" fill="none" xmlns="http://www.w3.org/2000/svg">
<path d="M8.60156 5.39998C8.31305 5.3959 8.0447 5.54749 7.89925 5.79668C7.7538 6.04588 7.7538 6.35409 7.89925 6.60328C8.0447 6.85248 8.31305 7.00405 8.60156 6.99997V8.89841C8.24933 8.7184 7.85434 8.59997 7.40156 8.59997C5.86461 8.59997 4.60156 9.86302 4.60156 11.4C4.60156 12.4809 5.30651 13.3215 6.14219 14.0109C6.97787 14.7003 8.02342 15.2805 9.05781 15.7718C9.97496 16.2075 10.8604 16.5547 11.5922 16.8234C12.563 18.1403 13.4016 19 13.4016 19H15.0016H16.6016C16.6016 19 17.4401 18.1403 18.4109 16.8234C19.1427 16.5547 20.0281 16.2075 20.9453 15.7718C21.9797 15.2805 23.0253 14.7003 23.8609 14.0109C24.6966 13.3215 25.4016 12.4809 25.4016 11.4C25.4016 9.86302 24.1385 8.59997 22.6016 8.59997C22.1488 8.59997 21.7538 8.7184 21.4016 8.89841V6.99997C21.6901 7.00405 21.9584 6.85247 22.1039 6.60328C22.2493 6.35408 22.2493 6.04587 22.1039 5.79668C21.9584 5.54748 21.6901 5.3959 21.4016 5.39998H8.60156ZM7.40156 10.2C7.9749 10.2 8.46675 10.7025 8.85469 11.3922C8.86124 11.4038 8.86544 11.4149 8.87187 11.4265C9.13784 12.4974 9.57521 13.5329 10.0844 14.4765C9.96948 14.4242 9.86046 14.3828 9.74531 14.3281C8.7797 13.8694 7.82527 13.3246 7.16094 12.7765C6.49662 12.2285 6.20156 11.719 6.20156 11.4C6.20156 10.7273 6.72891 10.2 7.40156 10.2ZM22.6016 10.2C23.2742 10.2 23.8016 10.7273 23.8016 11.4C23.8016 11.719 23.5065 12.2285 22.8422 12.7765C22.1779 13.3246 21.2234 13.8694 20.2578 14.3281C20.1427 14.3828 20.0336 14.4242 19.9187 14.4765C20.4279 13.5329 20.8653 12.4974 21.1312 11.4265C21.1377 11.4149 21.1419 11.4038 21.1484 11.3922C21.5364 10.7025 22.0282 10.2 22.6016 10.2ZM12.6016 20.6C11.7176 20.6 11.0016 21.316 11.0016 22.2V23C10.713 22.9959 10.4447 23.1475 10.2992 23.3967C10.1538 23.6459 10.1538 23.9541 10.2992 24.2033C10.4447 24.4525 10.713 24.604 11.0016 24.6H19.0016C19.2901 24.604 19.5584 24.4525 19.7039 24.2033C19.8493 23.9541 19.8493 23.6459 19.7039 23.3967C19.5584 23.1475 19.2901 22.9959 19.0016 23V22.2C19.0016 21.316 18.2856 20.6 17.4016 20.6H12.6016Z" fill="black"/>
</svg>
