<?xml version="1.0"?><svg xmlns="http://www.w3.org/2000/svg"  viewBox="0 0 30 30" width="30px" height="30px">    <path d="M15,3C8.373,3,3,8.373,3,15c0,6.627,5.373,12,12,12s12-5.373,12-12C27,8.373,21.627,3,15,3z M18.297,20h-7.595v-1.622 c1.203-0.169,2.027-1.054,2.047-2.189c0-0.162-0.034-0.318-0.074-0.459H10.73v-1.439h1.513c-0.236-0.574-0.399-1.074-0.399-1.642 c0-1.676,1.385-2.649,3.77-2.649c0.905,0,1.595,0.068,2.23,0.223v1.642c-0.649-0.155-1.243-0.223-1.939-0.223 c-1.243,0-2.013,0.527-2.013,1.378c0,0.459,0.122,0.865,0.284,1.27h2.818v1.439h-2.392c0.041,0.135,0.068,0.284,0.068,0.439 c0.041,0.818-0.392,1.588-1.115,1.966v0.128h4.743V20z"/></svg>