<svg xmlns="http://www.w3.org/2000/svg"  viewBox="0 0 64 64" width="50px" height="50px"><path d="M 24 11 C 21.791 11 20 12.791 20 15 L 20 38 L 14 38 C 11.79 38 10 39.79 10 42 L 10 44 C 10 48.97 14.03 53 19 53 L 45 53 C 45 53 45.087212 52.990098 45.121094 52.988281 C 48.923936 52.921932 52 49.818151 52 46 L 52 15 C 52 12.791 50.209 11 48 11 L 24 11 z M 25 15 L 47 15 C 47.552 15 48 15.448 48 16 L 48 46 C 48 47.654 46.653 48.989234 45 48.990234 L 44.910156 48.990234 C 43.292979 48.941751 42 47.629183 42 46 L 42 42 C 42 39.79 40.21 38 38 38 L 24 38 L 24 16 C 24 15.448 24.448 15 25 15 z M 29 20 C 27.895 20 27 20.895 27 22 C 27 23.105 27.895 24 29 24 C 30.105 24 31 23.105 31 22 C 31 20.895 30.105 20 29 20 z M 35 20 C 33.895 20 33 20.895 33 22 C 33 23.105 33.895 24 35 24 L 42 24 C 43.105 24 44 23.105 44 22 C 44 20.895 43.105 20 42 20 L 35 20 z M 29 27 C 27.895 27 27 27.895 27 29 C 27 30.105 27.895 31 29 31 C 30.105 31 31 30.105 31 29 C 31 27.895 30.105 27 29 27 z M 35 27 C 33.895 27 33 27.895 33 29 C 33 30.105 33.895 31 35 31 L 42 31 C 43.105 31 44 30.105 44 29 C 44 27.895 43.105 27 42 27 L 35 27 z"/></svg>