<svg width="50" height="50" viewBox="0 0 50 50" fill="none" xmlns="http://www.w3.org/2000/svg">
<path d="M39.15 7.7998C37.4188 7.7998 36.125 9.03418 36.125 10.6748C36.125 11.1592 36.3625 11.7998 36.775 12.8498C37.6625 15.1123 39.325 19.3186 39.325 24.9998C39.325 30.6529 37.7312 34.6717 36.775 37.0748C36.3594 38.1248 36.0812 38.8186 36.05 39.3998C36.05 40.5279 36.9812 42.1998 39 42.1998C40.0094 42.1998 40.9031 41.6842 41.45 40.7748C42.8844 38.3842 45 31.7373 45 25.0748C45 17.9748 42.8344 11.6654 41.4 9.1998C40.975 8.34668 40.0812 7.7998 39.15 7.7998ZM31.65 11.1498C29.9188 11.1498 28.6 12.4092 28.6 14.0498C28.6 14.5686 28.8375 15.1654 29.2 16.0748C29.9031 17.8279 31.075 20.7529 31.075 24.9998C31.075 29.6498 29.9344 32.2686 29.175 33.9998C28.8156 34.8217 28.5562 35.4311 28.525 36.0498C28.525 37.1779 29.4562 38.8498 31.475 38.8498C32.4844 38.8498 33.3812 38.3061 33.925 37.3998C35.2344 35.2217 36.75 30.6904 36.75 25.0748C36.75 20.3467 35.6719 15.6436 33.875 12.5498C33.45 11.6998 32.5812 11.1498 31.65 11.1498ZM22.925 14.5998C21.3719 14.5998 20.45 15.6717 20.45 17.4748C20.45 18.1529 20.7219 18.9467 21.075 19.9498C21.5438 21.2811 22.125 22.9311 22.125 24.6748C22.125 25.7279 21.9688 26.5342 21.825 26.9998C17.0312 23.2717 9.9875 17.7686 9.65 17.4748C9.6125 17.4373 9.56875 17.4029 9.525 17.3748C9.15938 17.1311 8.84062 16.9998 8.2 16.9998C7.2375 16.9998 5 17.7467 5 24.7498C5 30.9436 6.99375 33.1498 8.85 33.1498C10.3531 33.1498 11.25 32.0029 11.25 30.0498C11.25 29.4342 11.0438 28.2967 10.85 27.1998C10.7469 26.6217 10.6 25.8311 10.6 25.6498C10.6 25.5904 10.5969 25.5217 10.6 25.4748C10.6812 25.5311 10.7875 25.6092 10.9 25.6998C11.3 26.0436 13.3156 27.5873 18.975 31.8748C20.3688 32.9311 21.4594 33.7561 21.675 33.9248C22.0125 34.2436 22.6469 34.5998 23.8 34.5998C26.6469 34.5998 27.875 28.2436 27.875 24.9998C27.875 20.1904 25.7188 14.5998 22.925 14.5998Z" fill="black"/>
</svg>
