<svg width="64" height="64" viewBox="0 0 64 64" fill="none" xmlns="http://www.w3.org/2000/svg">
<path d="M44.8006 14.9331C48.3278 14.9331 51.2007 17.806 51.2007 21.3331V39.1109C51.2007 42.638 48.3278 45.5109 44.8006 45.5109H19.9117C16.3846 45.5109 13.5117 42.638 13.5117 39.1109V21.3331C13.5117 17.806 16.3846 14.9331 19.9117 14.9331H44.8006ZM30.6922 38.6202C30.6922 36.1029 29.1704 33.9482 27.0228 33.0949V28.046C29.1704 27.1785 30.6922 24.974 30.6922 22.3998C30.6922 21.7811 30.6069 21.1838 30.4433 20.622H25.0033C25.7713 20.622 26.4255 21.4327 26.4255 22.3998C26.4255 23.3669 25.7713 24.1776 25.0033 24.1776H19.2006V28.4442H22.7562V32.7109H19.2006V36.9776H25.0033C25.7855 36.9776 26.4255 37.7171 26.4255 38.6202C26.4255 39.0967 26.2477 39.5305 25.9633 39.822H30.5784C30.6495 39.438 30.6922 39.0327 30.6922 38.6202ZM45.5118 28.4442V24.1776H39.8229C38.6424 24.1776 37.6895 25.1305 37.6895 26.3109L37.6966 33.0665C37.6966 33.0665 34.134 34.1331 33.9562 38.6202C33.9398 39.0327 33.9989 39.438 34.07 39.822H38.6851C38.4006 39.5305 38.2229 39.0967 38.2229 38.6202C38.2229 37.7171 38.8629 36.9776 39.6451 36.9776H45.5118V32.7109H41.9562V28.4442H45.5118Z" fill="black"/>
</svg>
