<svg width="100" height="100" viewBox="0 0 100 100" fill="none" xmlns="http://www.w3.org/2000/svg">
<path d="M78.3 15.5996C74.8375 15.5996 72.25 18.0684 72.25 21.3496C72.25 22.3184 72.725 23.5996 73.55 25.6996C75.325 30.2246 78.65 38.6371 78.65 49.9996C78.65 61.3059 75.4625 69.3434 73.55 74.1496C72.7188 76.2496 72.1625 77.6371 72.1 78.7996C72.1 81.0559 73.9625 84.3996 78 84.3996C80.0188 84.3996 81.8063 83.3684 82.9 81.5496C85.7688 76.7684 90 63.4746 90 50.1496C90 35.9496 85.6688 23.3309 82.8 18.3996C81.95 16.6934 80.1625 15.5996 78.3 15.5996ZM63.3 22.2996C59.8375 22.2996 57.2 24.8184 57.2 28.0996C57.2 29.1371 57.675 30.3309 58.4 32.1496C59.8063 35.6559 62.15 41.5059 62.15 49.9996C62.15 59.2996 59.8688 64.5371 58.35 67.9996C57.6312 69.6434 57.1125 70.8621 57.05 72.0996C57.05 74.3559 58.9125 77.6996 62.95 77.6996C64.9688 77.6996 66.7625 76.6121 67.85 74.7996C70.4688 70.4434 73.5 61.3809 73.5 50.1496C73.5 40.6934 71.3437 31.2871 67.75 25.0996C66.9 23.3996 65.1625 22.2996 63.3 22.2996ZM45.85 29.1996C42.7437 29.1996 40.9 31.3434 40.9 34.9496C40.9 36.3059 41.4437 37.8934 42.15 39.8996C43.0875 42.5621 44.25 45.8621 44.25 49.3496C44.25 51.4559 43.9375 53.0684 43.65 53.9996C34.0625 46.5434 19.975 35.5371 19.3 34.9496C19.225 34.8746 19.1375 34.8059 19.05 34.7496C18.3188 34.2621 17.6812 33.9996 16.4 33.9996C14.475 33.9996 10 35.4934 10 49.4996C10 61.8871 13.9875 66.2996 17.7 66.2996C20.7063 66.2996 22.5 64.0059 22.5 60.0996C22.5 58.8684 22.0875 56.5934 21.7 54.3996C21.4937 53.2434 21.2 51.6621 21.2 51.2996C21.2 51.1809 21.1937 51.0434 21.2 50.9496C21.3625 51.0621 21.575 51.2184 21.8 51.3996C22.6 52.0871 26.6312 55.1746 37.95 63.7496C40.7375 65.8621 42.9188 67.5121 43.35 67.8496C44.025 68.4871 45.2937 69.1996 47.6 69.1996C53.2937 69.1996 55.75 56.4871 55.75 49.9996C55.75 40.3809 51.4375 29.1996 45.85 29.1996Z" fill="#0F172A"/>
</svg>
