<svg width="30" height="30" viewBox="0 0 30 30" fill="none" xmlns="http://www.w3.org/2000/svg">
<path d="M14.9982 1.3916C13.9838 1.3916 13.0056 1.53768 12.063 1.82831C11.1208 2.1194 10.262 2.51642 9.48761 3.02032C8.71323 3.52423 8.07311 4.09531 7.56592 4.73328C7.52186 4.79515 7.5 4.86027 7.5 4.93011C7.5 4.99996 7.52972 5.06599 7.58972 5.12787L8.51624 6.07727C8.5767 6.1504 8.6515 6.18537 8.73962 6.18256C8.82775 6.17974 8.90516 6.14169 8.97125 6.06903C9.76485 5.207 10.6752 4.55458 11.7032 4.11255C12.7312 3.67052 13.8291 3.44971 14.9973 3.44971C16.1771 3.44971 17.2807 3.67405 18.3087 4.1217C19.3362 4.56936 20.2501 5.22086 21.0489 6.07727C21.1098 6.13868 21.1819 6.16974 21.2677 6.16974C21.3535 6.16974 21.4265 6.13345 21.4874 6.06079L22.4139 5.12787C22.4688 5.06646 22.4977 5.00087 22.5 4.93103C22.5028 4.86072 22.4801 4.7956 22.4304 4.73419C21.9232 4.09575 21.2822 3.52423 20.5078 3.02032C19.7334 2.51642 18.8755 2.1194 17.9333 1.82831C16.9907 1.53721 16.0125 1.3916 14.9982 1.3916ZM14.9973 5.22858C14.3138 5.22858 13.6658 5.32391 13.0508 5.51422C12.4363 5.70453 11.8805 5.96208 11.3846 6.28693C10.8882 6.6113 10.4754 6.97772 10.145 7.38647C10.0953 7.44788 10.0717 7.51438 10.0745 7.58423C10.0773 7.65407 10.1092 7.71966 10.1697 7.78107L11.2033 8.82202C11.275 8.9003 11.3533 8.93483 11.4386 8.92639C11.5239 8.91795 11.6022 8.87467 11.6739 8.79639C12.054 8.35951 12.5407 7.99879 13.1332 7.71332C13.7257 7.42785 14.3471 7.28838 14.9973 7.29401C15.6587 7.28838 16.2866 7.43223 16.8787 7.72614C17.4712 8.02004 17.9622 8.38515 18.3536 8.82202C18.4197 8.89515 18.4931 8.93188 18.5733 8.93188C18.6535 8.93188 18.7286 8.89206 18.8004 8.81378L19.834 7.78107C19.8888 7.72529 19.9177 7.66055 19.92 7.58789C19.9229 7.51523 19.9028 7.44788 19.8587 7.38647C19.5282 6.97819 19.1141 6.61177 18.6182 6.28693C18.1222 5.96208 17.5674 5.70453 16.9528 5.51422C16.3388 5.32391 15.6863 5.22858 14.9973 5.22858ZM7.5 7.03125V25.3125C7.5 26.8641 8.76094 28.125 10.3125 28.125H19.6875C21.2391 28.125 22.5 26.8641 22.5 25.3125V7.03125L20.625 8.90625V23.4375H9.375V8.90625L7.5 7.03125ZM14.9982 9.07379C14.5186 9.07379 14.0857 9.18528 13.7 9.40887C13.3142 9.63294 13.0142 9.8931 12.7991 10.1898C12.7663 10.24 12.7566 10.2955 12.7707 10.3574C12.7848 10.4192 12.8193 10.4757 12.8741 10.5258L14.4525 12.0795C14.5847 12.2027 14.6892 12.288 14.7665 12.3358C14.8439 12.3836 14.9208 12.4072 14.9982 12.4072C15.0755 12.4072 15.1515 12.3854 15.2289 12.3404C15.3062 12.2954 15.4107 12.2093 15.5429 12.0804L17.1387 10.5258C17.1884 10.4752 17.2194 10.4145 17.2302 10.3418C17.2415 10.2691 17.2208 10.2018 17.1716 10.1404C16.9513 9.85491 16.6509 9.60521 16.2708 9.3924C15.8906 9.17958 15.4665 9.07379 14.9982 9.07379ZM15 24.8438C15.5156 24.8438 15.9375 25.2656 15.9375 25.7812C15.9375 26.2969 15.5156 26.7188 15 26.7188C14.4844 26.7188 14.0625 26.2969 14.0625 25.7812C14.0625 25.2656 14.4844 24.8438 15 24.8438Z" fill="white"/>
</svg>
