<svg width="40" height="40" viewBox="0 0 40 40" fill="none" xmlns="http://www.w3.org/2000/svg">
<path d="M32.1655 2.86719C31.5262 2.86797 30.887 3.18879 30.5298 3.8291L24.8108 14.0867C24.1139 15.3367 25.0171 16.8748 26.4478 16.8748H37.9187C39.3512 16.8748 40.2545 15.333 39.5532 14.083L33.8025 3.82544C33.4441 3.18575 32.8049 2.86641 32.1655 2.86719ZM32.196 6.2522C32.7823 6.2522 33.1274 6.59845 33.1274 7.1897C33.1274 7.25907 33.1233 7.35494 33.1177 7.43994L33.0212 10.7529C33.005 11.3017 32.7281 11.6221 32.1899 11.6221C31.6468 11.6221 31.3755 11.3017 31.3586 10.7529L31.2585 7.43994C31.2585 7.35432 31.2524 7.25907 31.2524 7.1897C31.2524 6.59845 31.6048 6.2522 32.196 6.2522ZM14.375 8.74976C12.9937 8.74976 11.875 9.86851 11.875 11.2498V13.1248H10.625C8.55625 13.1248 6.875 14.806 6.875 16.8748V26.8748C6.875 28.9435 8.55625 30.6248 10.625 30.6248H11.875V31.8748C11.875 33.2535 12.9962 34.3748 14.375 34.3748H25.625C27.0038 34.3748 28.125 33.2535 28.125 31.8748V30.6248H29.375C31.4437 30.6248 33.125 28.9435 33.125 26.8748V19.0623V18.7498H30.625V19.0354V26.8748C30.625 27.5623 30.0625 28.1248 29.375 28.1248H28.125V24.3748C28.125 22.996 27.0038 21.8748 25.625 21.8748H14.375C12.9962 21.8748 11.875 22.996 11.875 24.3748V28.1248H10.625C9.9375 28.1248 9.375 27.5623 9.375 26.8748V16.8748C9.375 16.1873 9.9375 15.6248 10.625 15.6248H22.7441C22.6066 14.7998 22.7663 13.9523 23.175 13.1748C23.1813 13.1623 23.1907 13.1404 23.1995 13.1248H14.375V11.8748C14.375 11.531 14.6562 11.2498 15 11.2498H24.2505L25.6433 8.74976H25.4761H14.375ZM32.1899 12.6072C32.7931 12.6072 33.2861 13.0648 33.2861 13.6448C33.2861 14.2304 32.7931 14.6885 32.1899 14.6885C31.5818 14.6885 31.0889 14.2304 31.0889 13.6448C31.0889 13.0648 31.5818 12.6072 32.1899 12.6072ZM15 24.3748H25C25.345 24.3748 25.625 24.6548 25.625 24.9998L25.6274 31.2498C25.6274 31.5948 25.3474 31.8748 25.0024 31.8748H15C14.655 31.8748 14.375 31.5948 14.375 31.2498V24.9998C14.375 24.6548 14.655 24.3748 15 24.3748Z" fill="#0F172A"/>
</svg>
