<svg width="100" height="100" viewBox="0 0 100 100" fill="none" xmlns="http://www.w3.org/2000/svg">
<path d="M80.4138 7.16846C78.8154 7.17041 77.2174 7.97246 76.3245 9.57325L62.027 35.2172C60.2848 38.3422 62.5428 42.1874 66.1194 42.1874H94.7968C98.378 42.1874 100.636 38.333 98.8831 35.208L84.5062 9.56409C83.6101 7.96487 82.0123 7.16651 80.4138 7.16846ZM80.4901 15.631C81.9557 15.631 82.8186 16.4966 82.8186 17.9747C82.8186 18.1482 82.8083 18.3878 82.7942 18.6003L82.5531 26.8828C82.5125 28.2547 81.8202 29.0557 80.4749 29.0557C79.117 29.0557 78.4388 28.2547 78.3966 26.8828L78.1464 18.6003C78.1464 18.3863 78.1311 18.1482 78.1311 17.9747C78.1311 16.4966 79.012 15.631 80.4901 15.631ZM35.9375 21.8749C32.4844 21.8749 29.6875 24.6718 29.6875 28.1249V32.8124H26.5625C21.3906 32.8124 17.1875 37.0155 17.1875 42.1874V67.1874C17.1875 72.3593 21.3906 76.5624 26.5625 76.5624H29.6875V79.6874C29.6875 83.1343 32.4906 85.9374 35.9375 85.9374H64.0625C67.5094 85.9374 70.3125 83.1343 70.3125 79.6874V76.5624H73.4375C78.6094 76.5624 82.8125 72.3593 82.8125 67.1874V47.6561V46.8749H76.5625V47.589V67.1874C76.5625 68.9061 75.1563 70.3124 73.4375 70.3124H70.3125V60.9374C70.3125 57.4905 67.5094 54.6874 64.0625 54.6874H35.9375C32.4906 54.6874 29.6875 57.4905 29.6875 60.9374V70.3124H26.5625C24.8437 70.3124 23.4375 68.9061 23.4375 67.1874V42.1874C23.4375 40.4686 24.8437 39.0624 26.5625 39.0624H56.8604C56.5166 36.9999 56.9157 34.8813 57.9376 32.9375C57.9532 32.9063 57.9768 32.8514 57.9987 32.8124H35.9375V29.6874C35.9375 28.828 36.6406 28.1249 37.5 28.1249H60.6262L64.1083 21.8749H63.6902H35.9375ZM80.4749 31.5184C81.9827 31.5184 83.2153 32.6624 83.2153 34.1124C83.2153 35.5765 81.9827 36.7217 80.4749 36.7217C78.9545 36.7217 77.7222 35.5765 77.7222 34.1124C77.7222 32.6624 78.9545 31.5184 80.4749 31.5184ZM37.5 60.9374H62.5C63.3625 60.9374 64.0625 61.6374 64.0625 62.4999L64.0686 78.1249C64.0686 78.9874 63.3686 79.6874 62.5061 79.6874H37.5C36.6375 79.6874 35.9375 78.9874 35.9375 78.1249V62.4999C35.9375 61.6374 36.6375 60.9374 37.5 60.9374Z" fill="#0F172A"/>
</svg>
