<svg width="100" height="100" viewBox="0 0 100 100" fill="none" xmlns="http://www.w3.org/2000/svg">
<path d="M50 15.625C46.3469 15.625 44.2292 18.1327 43.1854 20.4468C37.5479 21.578 27.7156 26.494 26.4984 38.6597C26.0406 45.8347 25.1852 59.1934 20.4102 61.4075C20.0789 61.5606 19.7738 61.7707 19.516 62.03C19.1176 62.4285 15.625 66.0844 15.625 71.875C15.625 73.6 17.025 75 18.75 75H39.4653C40.0819 80.2702 44.5668 84.375 50 84.375C55.4332 84.375 59.9181 80.2702 60.5347 75H81.25C82.975 75 84.375 73.6 84.375 71.875C84.375 66.0844 80.8824 62.4285 80.484 62.03C80.2262 61.7722 79.9211 61.5591 79.5898 61.4044C74.8164 59.1904 73.9581 45.8343 73.4894 38.5468C72.2784 26.478 62.4475 21.5734 56.8115 20.4437C55.7693 18.1312 53.6531 15.625 50 15.625ZM50 21.875C50.9422 21.875 51.198 22.8435 51.3855 23.8373C51.6621 25.2982 52.9444 26.4282 54.4647 26.4282C54.5803 26.4282 66.1122 27.5782 67.2638 39.0594C68.0591 51.4563 69.3592 62.8919 76.3092 66.745C76.6014 67.12 77.0843 67.8141 77.478 68.75H22.522C22.9173 67.8078 23.4003 67.1152 23.6847 66.748C30.6394 62.898 31.9411 51.4614 32.7271 39.1724C33.888 27.5786 45.4197 26.4282 45.5353 26.4282C47.0306 26.4282 48.335 25.2444 48.6084 23.8678C48.8006 22.9069 49.0563 21.875 50 21.875ZM45.8374 75H54.1626C53.6247 76.8005 51.973 78.125 50 78.125C48.027 78.125 46.3753 76.8005 45.8374 75Z" fill="#0F172A"/>
</svg>
