<svg width="100" height="100" viewBox="0 0 100 100" fill="none" xmlns="http://www.w3.org/2000/svg">
<path d="M40.3359 78.125H59.6656C57.9969 81.8047 54.2969 84.375 50.0016 84.375C45.7062 84.375 42.0047 81.8047 40.3359 78.125ZM80.4828 62.0297C80.8812 62.4281 84.375 66.0844 84.375 71.875C84.375 73.6 82.975 75 81.25 75H18.75C17.025 75 15.625 73.6 15.625 71.875C15.625 66.0844 19.1188 62.4281 19.5172 62.0297C19.775 61.7703 20.0781 61.5594 20.4094 61.4062C25.1844 59.1922 26.0406 45.8359 26.4984 38.6609C27.7156 26.4953 37.5484 21.5766 43.1859 20.4453C44.2297 18.1313 46.3469 15.625 50 15.625C53.6531 15.625 55.7703 18.1312 56.8125 20.4437C62.4484 21.5734 72.2797 26.4781 73.4906 38.5469C73.9594 45.8344 74.8156 59.1906 79.5891 61.4047C79.9203 61.5594 80.225 61.7719 80.4828 62.0297Z" fill="#0F172A"/>
</svg>
