<svg width="100" height="100" viewBox="0 0 100 100" fill="none" xmlns="http://www.w3.org/2000/svg">
<path d="M45.3125 10.9375C40.1344 10.9375 35.9375 15.1344 35.9375 20.3125H23.4375C18.2594 20.3125 14.0625 24.5094 14.0625 29.6875V70.3125C14.0625 75.4906 18.2594 79.6875 23.4375 79.6875H76.5625C81.7406 79.6875 85.9375 75.4906 85.9375 70.3125V29.6875C85.9375 24.5094 81.7406 20.3125 76.5625 20.3125H64.0625C64.0625 15.1344 59.8656 10.9375 54.6875 10.9375H45.3125ZM45.3125 17.1875H54.6875C56.4125 17.1875 57.8125 18.5859 57.8125 20.3125H42.1875C42.1875 18.5859 43.5875 17.1875 45.3125 17.1875ZM23.4375 26.5625H76.5625C78.2891 26.5625 79.6875 27.9609 79.6875 29.6875V42.7002C74.7817 43.5397 62.9327 45.3125 50 45.3125C37.0714 45.3125 25.222 43.5407 20.3125 42.7002V29.6875C20.3125 27.9609 21.7109 26.5625 23.4375 26.5625ZM20.3125 49.0387C24.768 49.7745 32.8034 50.8974 42.1875 51.3519V51.5625C42.1875 53.2891 43.5859 54.6875 45.3125 54.6875H53.125C54.8516 54.6875 56.25 53.2891 56.25 51.5625V51.4343C66.3095 51.04 74.9826 49.8154 79.6875 49.0387V70.3125C79.6875 72.0391 78.2891 73.4375 76.5625 73.4375H23.4375C21.7109 73.4375 20.3125 72.0391 20.3125 70.3125V49.0387Z" fill="#0F172A"/>
</svg>
