<svg width="100" height="100" viewBox="0 0 100 100" fill="none" xmlns="http://www.w3.org/2000/svg">
<path d="M49.9939 4.63867C46.6126 4.63867 43.3521 5.12561 40.21 6.09436C37.0693 7.06467 34.2066 8.38806 31.6254 10.0677C29.0441 11.7474 26.9104 13.651 25.2197 15.7776C25.0729 15.9838 25 16.2009 25 16.4337C25 16.6665 25.0991 16.8866 25.2991 17.0929L28.3875 20.2576C28.589 20.5013 28.8383 20.6179 29.1321 20.6085C29.4258 20.5991 29.6839 20.4723 29.9042 20.2301C32.5495 17.3567 35.5841 15.1819 39.0106 13.7085C42.4372 12.2351 46.0971 11.499 49.9908 11.499C53.9237 11.499 57.6025 12.2468 61.0291 13.739C64.4541 15.2312 67.5005 17.4029 70.163 20.2576C70.3661 20.4623 70.6064 20.5658 70.8923 20.5658C71.1783 20.5658 71.4216 20.4448 71.6248 20.2026L74.7131 17.0929C74.8959 16.8882 74.9922 16.6696 75 16.4368C75.0094 16.2024 74.9337 15.9853 74.7681 15.7806C73.0774 13.6525 70.9406 11.7474 68.3594 10.0677C65.7781 8.38806 62.9185 7.06467 59.7778 6.09436C56.6356 5.12405 53.3751 4.63867 49.9939 4.63867ZM49.9908 17.4286C47.7127 17.4286 45.5528 17.7464 43.5028 18.3807C41.4544 19.0151 39.6017 19.8736 37.9486 20.9564C36.2939 22.0377 34.9181 23.2591 33.8165 24.6216C33.6509 24.8263 33.5722 25.0479 33.5815 25.2808C33.5909 25.5136 33.6974 25.7322 33.8989 25.9369L37.3444 29.4067C37.5834 29.6677 37.8443 29.7828 38.1287 29.7546C38.413 29.7265 38.6739 29.5822 38.913 29.3213C40.1802 27.865 41.8025 26.6626 43.7775 25.7111C45.7525 24.7595 47.8237 24.2946 49.9908 24.3134C52.1955 24.2946 54.2888 24.7741 56.2622 25.7538C58.2372 26.7335 59.8739 27.9505 61.1786 29.4067C61.3989 29.6505 61.6438 29.7729 61.911 29.7729C62.1782 29.7729 62.4288 29.6402 62.6678 29.3793L66.1133 25.9369C66.2961 25.751 66.3923 25.5352 66.4001 25.293C66.4095 25.0508 66.3426 24.8263 66.1957 24.6216C65.0941 23.2606 63.7137 22.0392 62.0605 20.9564C60.4074 19.8736 58.5578 19.0151 56.5094 18.3807C54.4625 17.7464 52.2877 17.4286 49.9908 17.4286ZM25 23.4375V84.375C25 89.5469 29.2031 93.75 34.375 93.75H65.625C70.7969 93.75 75 89.5469 75 84.375V23.4375L68.75 29.6875V78.125H31.25V29.6875L25 23.4375ZM49.9939 30.246C48.3955 30.246 46.9524 30.6176 45.6665 31.3629C44.3806 32.1098 43.3808 32.977 42.6636 33.9661C42.5542 34.1333 42.5221 34.3183 42.569 34.5245C42.6158 34.7308 42.731 34.9189 42.9138 35.0861L48.175 40.2649C48.6157 40.6758 48.964 40.96 49.2218 41.1194C49.4796 41.2788 49.7361 41.3574 49.9939 41.3574C50.2517 41.3574 50.5051 41.2846 50.7629 41.1346C51.0208 40.9846 51.3691 40.6976 51.8097 40.2679L57.1289 35.0861C57.2945 34.9173 57.3981 34.7148 57.4341 34.4727C57.4716 34.2305 57.4028 34.006 57.2388 33.8013C56.5044 32.8497 55.503 32.0174 54.2358 31.308C52.9687 30.5986 51.5548 30.246 49.9939 30.246ZM50 82.8125C51.7188 82.8125 53.125 84.2187 53.125 85.9375C53.125 87.6563 51.7188 89.0625 50 89.0625C48.2812 89.0625 46.875 87.6563 46.875 85.9375C46.875 84.2187 48.2812 82.8125 50 82.8125Z" fill="#0F172A"/>
</svg>
