<svg width="50" height="50" viewBox="0 0 50 50" fill="none" xmlns="http://www.w3.org/2000/svg">
<path d="M12.9508 5.4248L5.42578 12.9498L17.3758 24.8498L24.8758 17.3498L23.7258 16.1998L20.7758 19.1748L19.6258 18.0248L22.6008 15.0748L21.3258 13.7998L19.1758 15.9748L18.0258 14.8248L20.2008 12.6748L18.9258 11.3998L15.9758 14.3748L14.8258 13.2248L17.8008 10.2748L16.5258 8.9998L14.3758 11.1748L13.2258 10.0248L15.4008 7.8748L12.9508 5.4248ZM39.5008 6.5998C38.5039 6.5998 37.5102 6.99043 36.7508 7.7498L35.3258 9.1498L18.5008 25.9748L8.55078 35.9498C8.39141 36.0561 8.27578 36.2154 8.22578 36.3998L6.62578 42.3998C6.55391 42.6748 6.63516 42.9654 6.83516 43.1654C7.03516 43.3654 7.32578 43.4467 7.60078 43.3748L13.6008 41.7748C13.7352 41.7311 13.857 41.6529 13.9508 41.5498L14.0008 41.5248C14.0383 41.4873 14.0727 41.4436 14.1008 41.3998L40.8508 14.6748V14.6498L41.3758 14.1248C41.7883 13.7123 42.2508 13.2498 42.2508 13.2498C43.7695 11.7279 43.7695 9.26856 42.2508 7.7498C41.4883 6.99043 40.4977 6.5998 39.5008 6.5998ZM39.5008 8.1998C40.1133 8.1998 40.6945 8.44356 41.1258 8.8748C42.0195 9.76856 42.0195 11.2311 41.1258 12.1248C41.0227 12.2279 40.9383 12.3123 40.8508 12.3998L37.6008 9.1498L37.8758 8.8748C38.3102 8.44043 38.8883 8.1998 39.5008 8.1998ZM33.3258 25.6248L31.1758 27.7748L30.5008 27.0998L25.1258 32.4748L37.0508 44.3998L44.5758 36.8748L42.9258 35.2248L40.7758 37.3748L39.6258 36.2498L41.8008 34.0748L40.5258 32.8248L37.5758 35.7748L36.4258 34.6498L39.4008 31.6748L38.1258 30.4248L35.9758 32.5748L34.8258 31.4498L37.0008 29.2748L35.7258 28.0248L32.7758 30.9748L31.6258 29.8498L34.6008 26.8748L33.3258 25.6248ZM9.42578 38.1498L11.8508 40.5748L8.52578 41.4748L9.42578 38.1498Z" fill="black"/>
</svg>
