<svg width="50" height="50" viewBox="0 0 50 50" fill="none" xmlns="http://www.w3.org/2000/svg">
<path d="M32.2016 5.7998H17.8016C16.0368 5.7998 14.6016 7.235 14.6016 8.9998V40.9998C14.6016 42.7646 16.0368 44.1998 17.8016 44.1998H32.2016C33.9664 44.1998 35.4016 42.7646 35.4016 40.9998V8.9998C35.4016 7.235 33.9664 5.7998 32.2016 5.7998ZM27.0016 10.5998C26.6928 10.5998 23.3104 10.5998 23.0016 10.5998C22.3392 10.5998 21.8016 10.0622 21.8016 9.3998C21.8016 8.7374 22.3392 8.1998 23.0016 8.1998C23.3104 8.1998 26.6928 8.1998 27.0016 8.1998C27.664 8.1998 28.2016 8.7374 28.2016 9.3998C28.2016 10.0622 27.664 10.5998 27.0016 10.5998Z" fill="black"/>
</svg>
