<svg width="40" height="40" viewBox="0 0 40 40" fill="none" xmlns="http://www.w3.org/2000/svg">
<path d="M12.5 6.25C10.4319 6.25 8.75 7.93187 8.75 10C8.75 12.0681 10.4319 13.75 12.5 13.75C12.8326 13.75 13.1535 13.7022 13.4607 13.6206L15.5591 16.5601C14.9403 17.3569 14.5289 18.3212 14.4116 19.375H11.6565C11.1403 17.9206 9.75446 16.875 8.125 16.875C6.05687 16.875 4.375 18.5569 4.375 20.625C4.375 22.6931 6.05687 24.375 8.125 24.375C9.75446 24.375 11.1403 23.3294 11.6565 21.875H14.7034C15.0305 22.796 15.5884 23.6057 16.311 24.2358L15.5347 25.6677C15.3596 25.6426 15.182 25.625 15 25.625C12.9319 25.625 11.25 27.3069 11.25 29.375C11.25 31.4431 12.9319 33.125 15 33.125C17.0681 33.125 18.75 31.4431 18.75 29.375C18.75 28.393 18.3675 27.5014 17.7478 26.8323L18.5144 25.4187C18.9884 25.5488 19.4852 25.625 20 25.625C21.3624 25.625 22.6133 25.1374 23.5876 24.3286L25.7886 25.7812C25.6829 26.1274 25.625 26.4946 25.625 26.875C25.625 28.9431 27.3069 30.625 29.375 30.625C31.4431 30.625 33.125 28.9431 33.125 26.875C33.125 24.8069 31.4431 23.125 29.375 23.125C28.5982 23.125 27.8758 23.3624 27.2766 23.7683L25.1086 22.3389C25.4365 21.6256 25.625 20.835 25.625 20C25.625 18.7267 25.1949 17.5552 24.4788 16.6113L26.7285 14.1028C27.1605 14.2768 27.6314 14.375 28.125 14.375C30.1931 14.375 31.875 12.6931 31.875 10.625C31.875 8.55687 30.1931 6.875 28.125 6.875C26.0569 6.875 24.375 8.55687 24.375 10.625C24.375 11.2877 24.5495 11.9092 24.8523 12.45L22.5659 15C21.7957 14.6031 20.9246 14.375 20 14.375C19.1005 14.375 18.2523 14.5925 17.4976 14.9695L15.5249 12.2083C15.9789 11.588 16.25 10.8259 16.25 10C16.25 7.93187 14.5681 6.25 12.5 6.25ZM12.5 8.75C13.1894 8.75 13.75 9.31062 13.75 10C13.75 10.6894 13.1894 11.25 12.5 11.25C11.8106 11.25 11.25 10.6894 11.25 10C11.25 9.31062 11.8106 8.75 12.5 8.75ZM28.125 9.375C28.8144 9.375 29.375 9.93562 29.375 10.625C29.375 11.3144 28.8144 11.875 28.125 11.875C27.4356 11.875 26.875 11.3144 26.875 10.625C26.875 9.93562 27.4356 9.375 28.125 9.375ZM20 16.875C21.7231 16.875 23.125 18.2769 23.125 20C23.125 21.7231 21.7231 23.125 20 23.125C18.2769 23.125 16.875 21.7231 16.875 20C16.875 18.2769 18.2769 16.875 20 16.875ZM8.125 19.375C8.81438 19.375 9.375 19.9356 9.375 20.625C9.375 21.3144 8.81438 21.875 8.125 21.875C7.43562 21.875 6.875 21.3144 6.875 20.625C6.875 19.9356 7.43562 19.375 8.125 19.375ZM29.375 25.625C30.0644 25.625 30.625 26.1856 30.625 26.875C30.625 27.5644 30.0644 28.125 29.375 28.125C28.6856 28.125 28.125 27.5644 28.125 26.875C28.125 26.1856 28.6856 25.625 29.375 25.625ZM15 28.125C15.6894 28.125 16.25 28.6856 16.25 29.375C16.25 30.0644 15.6894 30.625 15 30.625C14.3106 30.625 13.75 30.0644 13.75 29.375C13.75 28.6856 14.3106 28.125 15 28.125Z" fill="#0F172A"/>
</svg>
