<svg width="40" height="40" viewBox="0 0 40 40" fill="none" xmlns="http://www.w3.org/2000/svg">
<path d="M14.8584 7.5C8.03465 7.5 7.5 8.03402 7.5 14.8584V25.1416C7.5 31.9654 8.03465 32.5 14.8584 32.5H25.1416C31.9654 32.5 32.5 31.966 32.5 25.1416V14.8584C32.5 8.03402 31.966 7.5 25.1416 7.5H14.8584ZM13.23 10H26.77C29.7656 10 30 10.2344 30 13.23V26.77C30 29.7656 29.765 30 26.77 30H13.23C10.2344 30 10 29.765 10 26.77V13.23C10 10.2344 10.2344 10 13.23 10ZM25.6018 12.749C25.2005 12.7567 24.8104 12.9574 24.5764 13.3191L18.5083 22.6855L15.3149 19.054C14.8593 18.5365 14.0679 18.4854 13.5498 18.9417C13.0317 19.3979 12.9807 20.188 13.4363 20.7068L17.7209 25.5762C17.9597 25.8468 18.3022 25.9998 18.6597 25.9998C18.6897 25.9998 18.7206 25.9992 18.7512 25.9973C19.1418 25.9686 19.4951 25.7578 19.7083 25.4297L26.6748 14.679C27.0498 14.0996 26.8843 13.3261 26.3049 12.9504C26.087 12.8098 25.8426 12.7444 25.6018 12.749Z" fill="#0F172A"/>
</svg>
