<svg width="52" height="52" viewBox="0 0 52 52" fill="none" xmlns="http://www.w3.org/2000/svg">
<path d="M22.8 5.4502C17.7187 5.4502 13.35 8.8752 13.35 15.4502C13.35 19.7439 15.3625 24.1064 18 26.8002C19.025 29.4939 17.1812 30.5127 16.8 30.6502C11.4812 32.5752 5.25 36.0877 5.25 39.5502V40.8502C5.25 45.2939 13.3812 46.4752 21.4 46.6002C21.2875 45.9814 21.2687 45.3252 21.45 44.7002L23.45 37.9502C23.6562 37.2377 24.0812 36.6127 24.65 36.1002L29.7 31.0502C29.2937 30.9002 28.9 30.7814 28.5 30.6502C28.2437 30.5689 26.6437 29.8564 27.65 26.8002C30.2687 24.1002 32.25 19.7252 32.25 15.4502C32.25 8.88144 27.8812 5.4502 22.8 5.4502ZM41.7 24.6002C41.1875 24.6002 40.6875 24.8127 40.3 25.2002L39.45 26.0502L45.15 31.7502L46 30.9002C46.775 30.1252 46.7875 28.8377 46 28.0502L43.15 25.2002C42.7562 24.8064 42.2125 24.6002 41.7 24.6002ZM38.5 26.8502L37.15 28.1502L43.05 34.0502L44.45 32.8002L38.5 26.8502ZM36.25 29.1002L26.8 38.4502C26.6687 38.5564 26.55 38.6752 26.5 38.8502L24.55 45.6002C24.4625 45.9002 24.5312 46.2314 24.75 46.4502C24.9125 46.6127 25.1312 46.7002 25.35 46.7002C25.4312 46.7002 25.475 46.6752 25.55 46.6502L32.35 44.7002C32.5125 44.6564 32.6 44.5189 32.7 44.4002L42.2 35.0002L38.35 31.1502L36.25 29.1002ZM27.95 39.8502L28.45 40.3002L30.65 40.5002L30.8 42.7002L31.35 43.2502L27.7 44.3002L26.9 43.5002L27.95 39.8502Z" fill="black"/>
</svg>
