<svg width="64" height="64" viewBox="0 0 64 64" fill="none" xmlns="http://www.w3.org/2000/svg">
<path d="M19.2003 14.9331C16.8436 14.9331 14.9336 16.8432 14.9336 19.1998V25.5998C14.9336 27.9564 16.8436 29.8665 19.2003 29.8665H25.6003C27.9569 29.8665 29.8669 27.9564 29.8669 25.5998V19.1998C29.8669 16.8432 27.9569 14.9331 25.6003 14.9331H19.2003ZM38.4003 14.9331C36.0437 14.9331 34.1336 16.8432 34.1336 19.1998V25.5998C34.1336 27.9564 36.0437 29.8665 38.4003 29.8665H44.8003C47.1569 29.8665 49.067 27.9564 49.067 25.5998V19.1998C49.067 16.8432 47.1569 14.9331 44.8003 14.9331H38.4003ZM19.9114 19.1998H24.8892C25.2817 19.1998 25.6003 19.5184 25.6003 19.9109V24.8887C25.6003 25.2812 25.2817 25.5998 24.8892 25.5998H19.9114C19.5188 25.5998 19.2003 25.2812 19.2003 24.8887V19.9109C19.2003 19.5184 19.5188 19.1998 19.9114 19.1998ZM39.1114 19.1998H44.0892C44.4817 19.1998 44.8003 19.5184 44.8003 19.9109V24.8887C44.8003 25.2812 44.4817 25.5998 44.0892 25.5998H39.1114C38.7189 25.5998 38.4003 25.2812 38.4003 24.8887V19.9109C38.4003 19.5184 38.7189 19.1998 39.1114 19.1998ZM20.6225 20.622V24.1776H24.1781V20.622H20.6225ZM39.8225 20.622V24.1776H43.3781V20.622H39.8225ZM19.2003 34.1331C16.8436 34.1331 14.9336 36.0432 14.9336 38.3998V44.7998C14.9336 47.1564 16.8436 49.0665 19.2003 49.0665H25.6003C27.9569 49.0665 29.8669 47.1564 29.8669 44.7998V38.3998C29.8669 36.0432 27.9569 34.1331 25.6003 34.1331H19.2003ZM34.1336 34.1331V39.1109H39.1114V34.1331H34.1336ZM39.1114 39.1109V44.0887H44.0892V39.1109H39.1114ZM44.0892 39.1109H49.067V34.1331H44.0892V39.1109ZM44.0892 44.0887V49.0665H49.067V44.0887H44.0892ZM39.1114 44.0887H34.1336V49.0665H39.1114V44.0887ZM19.9114 38.3998H24.8892C25.2817 38.3998 25.6003 38.7184 25.6003 39.1109V44.0887C25.6003 44.4812 25.2817 44.7998 24.8892 44.7998H19.9114C19.5188 44.7998 19.2003 44.4812 19.2003 44.0887V39.1109C19.2003 38.7184 19.5188 38.3998 19.9114 38.3998ZM20.6225 39.822V43.3776H24.1781V39.822H20.6225Z" fill="black"/>
</svg>
