<svg width="100" height="100" viewBox="0 0 100 100" fill="none" xmlns="http://www.w3.org/2000/svg">
<path d="M24.9993 16.666C20.3966 16.666 16.666 20.3966 16.666 24.9993V37.4993C16.666 42.1021 20.3966 45.8327 24.9993 45.8327H37.4993C42.1021 45.8327 45.8327 42.1021 45.8327 37.4993V24.9993C45.8327 20.3966 42.1021 16.666 37.4993 16.666H24.9993ZM62.4993 16.666C57.8966 16.666 54.166 20.3966 54.166 24.9993V37.4993C54.166 42.1021 57.8966 45.8327 62.4993 45.8327H74.9993C79.6021 45.8327 83.3327 42.1021 83.3327 37.4993V24.9993C83.3327 20.3966 79.6021 16.666 74.9993 16.666H62.4993ZM26.3882 24.9993H36.1105C36.8771 24.9993 37.4993 25.6216 37.4993 26.3882V36.1105C37.4993 36.8771 36.8771 37.4993 36.1105 37.4993H26.3882C25.6216 37.4993 24.9993 36.8771 24.9993 36.1105V26.3882C24.9993 25.6216 25.6216 24.9993 26.3882 24.9993ZM63.8882 24.9993H73.6105C74.3771 24.9993 74.9993 25.6216 74.9993 26.3882V36.1105C74.9993 36.8771 74.3771 37.4993 73.6105 37.4993H63.8882C63.1216 37.4993 62.4993 36.8771 62.4993 36.1105V26.3882C62.4993 25.6216 63.1216 24.9993 63.8882 24.9993ZM27.7771 27.7771V34.7216H34.7216V27.7771H27.7771ZM65.2771 27.7771V34.7216H72.2216V27.7771H65.2771ZM24.9993 54.166C20.3966 54.166 16.666 57.8966 16.666 62.4993V74.9993C16.666 79.6021 20.3966 83.3327 24.9993 83.3327H37.4993C42.1021 83.3327 45.8327 79.6021 45.8327 74.9993V62.4993C45.8327 57.8966 42.1021 54.166 37.4993 54.166H24.9993ZM54.166 54.166V63.8882H63.8882V54.166H54.166ZM63.8882 63.8882V73.6105H73.6105V63.8882H63.8882ZM73.6105 63.8882H83.3327V54.166H73.6105V63.8882ZM73.6105 73.6105V83.3327H83.3327V73.6105H73.6105ZM63.8882 73.6105H54.166V83.3327H63.8882V73.6105ZM26.3882 62.4993H36.1105C36.8771 62.4993 37.4993 63.1216 37.4993 63.8882V73.6105C37.4993 74.3771 36.8771 74.9993 36.1105 74.9993H26.3882C25.6216 74.9993 24.9993 74.3771 24.9993 73.6105V63.8882C24.9993 63.1216 25.6216 62.4993 26.3882 62.4993ZM27.7771 65.2771V72.2216H34.7216V65.2771H27.7771Z" fill="#0F172A"/>
</svg>
