<svg width="50" height="50" viewBox="0 0 50 50" fill="none" xmlns="http://www.w3.org/2000/svg">
<path d="M25.0016 6.6001C14.856 6.6001 6.60156 14.8545 6.60156 25.0001C6.60156 35.1457 14.856 43.4001 25.0016 43.4001C35.1472 43.4001 43.4016 35.1457 43.4016 25.0001C43.4016 14.8545 35.1472 6.6001 25.0016 6.6001ZM26.4392 34.5481C26.4392 34.7209 26.324 34.8345 26.1528 34.8345H23.972C23.7984 34.8345 23.6848 34.7201 23.6848 34.5481V32.0809C23.6848 31.9089 23.7992 31.7945 23.972 31.7945H26.1528C26.3248 31.7945 26.4392 31.9097 26.4392 32.0809V34.5481ZM28.9632 23.6145L27.0408 26.2545C26.4672 27.0289 26.2944 27.4305 26.2944 28.4057V29.3233C26.2944 29.4953 26.18 29.6097 26.008 29.6097H24.1144C23.9424 29.6129 23.828 29.4977 23.828 29.3257V28.1497C23.828 27.0009 24.0856 26.3993 24.688 25.5665L26.6112 22.9265C27.6144 21.5497 27.9584 20.8897 27.9584 19.9137C27.9584 18.2785 26.8112 17.2457 25.1752 17.2457C23.5688 17.2457 22.536 18.2209 22.192 19.9713C22.1632 20.1433 22.0488 20.2297 21.876 20.2009L20.0688 19.8849C19.896 19.8561 19.8104 19.7417 19.8384 19.5689C20.2696 16.8145 22.2496 15.0065 25.2336 15.0065C28.3312 15.0065 30.4256 17.0433 30.4256 19.8841C30.4256 21.2617 29.9392 22.2657 28.9632 23.6145Z" fill="black"/>
</svg>
