<svg width="50" height="50" viewBox="0 0 50 50" fill="none" xmlns="http://www.w3.org/2000/svg">
<path d="M20.9992 8.2002C16.6055 8.2002 12.9992 11.8064 12.9992 16.2002V30.4002L10.6992 28.1002L8.44922 30.3752L14.5992 36.5252L20.7492 30.3752L18.4992 28.1252L16.1992 30.4002V16.2002C16.1992 13.5533 18.3523 11.4002 20.9992 11.4002H29.7992V8.2002H20.9992ZM35.3992 13.4752L29.2242 19.6502L31.4992 21.9002L33.7992 19.6002V33.8002C33.7992 36.4471 31.6461 38.6002 28.9992 38.6002H20.1992V41.8002H28.9992C33.393 41.8002 36.9992 38.1939 36.9992 33.8002V19.6002L39.2992 21.9002L41.5492 19.6252L35.3992 13.4752Z" fill="black"/>
</svg>
