<svg width="50" height="50" viewBox="0 0 50 50" fill="none" xmlns="http://www.w3.org/2000/svg">
<path d="M30.5985 9C28.1985 9 26.2735 10.7594 25.8735 13C27.4735 13 28.9298 13.6406 30.0485 14.6V13.25H29.0735L30.2735 12.05H31.2485V15.65H30.9985C31.5579 16.45 31.9579 17.3906 32.1985 18.35C34.1173 17.7094 35.4735 15.9594 35.4735 13.8C35.3923 11.1594 33.2392 9 30.5985 9ZM25.7985 13.8C22.6798 13.8 20.1985 16.2812 20.1985 19.4C20.1985 22.5188 22.6798 25 25.7985 25C28.9173 25 31.3985 22.5188 31.3985 19.4C31.3985 16.2812 28.9173 13.8 25.7985 13.8ZM25.3985 17.25H26.5235V21.55H25.0735V18.675H23.9485L25.3985 17.25ZM15.7235 25C13.7235 25 11.9579 25.7156 5.39855 28.675C4.99855 28.8344 4.83917 29.325 4.99855 29.725L9.24855 39.15C9.32979 39.3906 9.56417 39.5688 9.72355 39.65C9.96417 39.7312 10.1892 39.6312 10.3485 39.55L12.5235 38.125C13.4829 37.4844 13.8673 37.4094 15.1485 38.05L16.8485 38.925C18.8485 39.9656 21.5485 41.4 22.3485 41.8C23.6298 42.4406 24.6673 42.675 25.5485 42.675C27.1485 42.675 28.1892 42.0406 29.1485 41.4C30.1079 40.7594 41.8079 33.1688 42.8485 32.45C44.1298 31.5688 44.9235 30.525 44.9235 29.725C45.0048 27.4844 42.8423 26.925 40.9235 28.125L32.3485 33.875C30.9892 34.675 29.7985 34.6 28.9985 34.6H24.1985C22.0392 34.6 19.4048 33.8 19.3235 33.8C19.0829 33.7188 18.9923 33.4844 19.0735 33.325C19.1548 33.0844 19.3079 32.9938 19.5485 33.075H19.6485C19.8892 33.1562 22.5298 33.875 24.4485 33.875H28.9985C29.6392 33.875 30.1298 33.7156 30.4485 33.475C30.7673 33.2344 30.9892 32.9938 31.1485 32.675C31.1485 32.5938 31.2485 32.6062 31.2485 32.525V32.45C31.3298 32.2094 31.3235 32.0406 31.3235 31.8C31.3235 30.8406 30.5235 29.8812 28.9235 29.8C27.6423 29.7188 25.8892 29.4 24.4485 29C23.6485 28.7594 23.0673 28.5094 22.7485 28.35C22.5079 28.1906 22.2673 27.9688 21.9485 27.65C20.9892 26.6094 19.5642 25 15.7235 25ZM33.0735 25C32.1923 25 31.2485 25.3156 30.4485 25.875C29.8892 26.1938 27.4892 27.7188 26.0485 28.6C27.0892 28.8406 28.1985 29 28.9985 29C29.5579 29 30.1235 29.1656 30.5235 29.325L35.7235 25.8C35.7235 25.8 34.5142 25 33.0735 25ZM38.3485 25.875C37.5485 25.875 36.6079 26.1938 35.2485 27.075L31.2485 29.8C31.8892 30.3594 32.1985 31.0812 32.1985 31.8C32.1985 32.2812 32.0423 32.8438 31.7235 33.325L31.7985 33.25L31.8735 33.15L40.6735 27.325C40.4329 26.2844 39.1485 25.875 38.3485 25.875Z" fill="black"/>
</svg>
