<svg width="100" height="100" viewBox="0 0 100 100" fill="none" xmlns="http://www.w3.org/2000/svg">
<path d="M49.2912 15.6302C41.1807 15.7942 33.7667 18.7748 27.9685 23.6258L23.2505 18.3645C22.0536 17.0302 19.8474 17.6169 19.4755 19.3716L15.8469 36.4676C15.5391 37.9207 16.7324 39.2497 18.209 39.1012L35.5949 37.3526C37.3792 37.1729 38.2047 35.0432 37.0078 33.7088L32.1555 28.298C37.6085 23.7999 44.7651 21.3035 52.5321 21.987C65.7102 23.1464 76.5065 33.6676 77.9502 46.8161C79.8127 63.7755 66.582 78.1241 49.9992 78.1241C35.432 78.1241 23.4504 67.0476 22.0176 52.8586C21.8551 51.2429 20.55 49.9991 18.9109 49.9991C17.0765 49.9991 15.6093 51.5527 15.7859 53.3652C17.4781 70.7698 32.1507 84.3741 49.9992 84.3741C70.271 84.3741 86.4434 66.8272 84.1575 46.0928C82.395 30.1084 69.3944 17.3186 53.3866 15.7858C52.0058 15.6536 50.638 15.6029 49.2912 15.6302Z" fill="#0F172A"/>
</svg>
