<svg width="50" height="50" viewBox="0 0 50 50" fill="none" xmlns="http://www.w3.org/2000/svg">
<path d="M12.1992 18.5998C12.1992 29.6502 23.8952 43.3446 24.3928 43.9222C24.544 44.0974 24.764 44.199 24.996 44.1998C24.9968 44.1998 24.9984 44.1998 24.9992 44.1998C25.2296 44.1998 25.4488 44.1006 25.6008 43.9278C26.0984 43.3598 37.7992 29.891 37.7992 18.5998C37.7992 11.5422 32.0568 5.7998 24.9992 5.7998C17.9416 5.7998 12.1992 11.5422 12.1992 18.5998ZM18.8336 18.8342L24.4336 13.2342C24.7464 12.9214 25.252 12.9214 25.5648 13.2342C25.8776 13.547 25.8776 14.0526 25.5648 14.3654L21.3304 18.5998H30.5992C31.0416 18.5998 31.3992 18.9582 31.3992 19.3998C31.3992 19.8414 31.0416 20.1998 30.5992 20.1998H21.3304L25.5648 24.4342C25.8776 24.747 25.8776 25.2526 25.5648 25.5654C25.4088 25.7214 25.204 25.7998 24.9992 25.7998C24.7944 25.7998 24.5896 25.7214 24.4336 25.5654L18.8336 19.9654C18.5208 19.6526 18.5208 19.147 18.8336 18.8342Z" fill="black"/>
</svg>
