<svg width="100" height="100" viewBox="0 0 100 100" fill="none" xmlns="http://www.w3.org/2000/svg">
<path d="M71.8745 85.9375C71.3027 85.9375 70.7308 85.7813 70.223 85.4656L49.9995 72.8875L29.7761 85.4656C28.7136 86.1266 27.3605 86.0891 26.337 85.375C25.312 84.6594 24.8105 83.4031 25.0667 82.1797L30.0042 58.3297L12.012 42.6797C11.0714 41.8625 10.7073 40.5641 11.0839 39.3781C11.4589 38.1906 12.5058 37.3406 13.7448 37.2141L37.6214 34.7734L47.1323 12.8203C47.6261 11.6781 48.7542 10.9375 49.9995 10.9375C51.2448 10.9375 52.373 11.6781 52.8667 12.8203L62.3777 34.7734L86.2542 37.2141C87.4933 37.3406 88.5402 38.1906 88.9152 39.3781C89.2917 40.5656 88.9277 41.8625 87.987 42.6797L69.9964 58.3297L74.9339 82.1797C75.1886 83.4031 74.6886 84.6594 73.6636 85.375C73.1277 85.7484 72.5011 85.9375 71.8745 85.9375Z" fill="#0F172A"/>
</svg>
