<svg width="100" height="100" viewBox="0 0 100 100" fill="none" xmlns="http://www.w3.org/2000/svg">
<path d="M72.3088 34.7504C71.5088 34.7375 70.7014 35.0293 70.0811 35.6293C68.842 36.8293 68.8093 38.8092 70.0109 40.0483L76.621 46.875H16.0039C14.2789 46.875 12.8789 48.275 12.8789 50C12.8789 51.725 14.2789 53.125 16.0039 53.125H76.621L70.0109 59.9518C68.8109 61.1909 68.842 63.1692 70.0811 64.3708C70.6889 64.9583 71.4711 65.2497 72.2539 65.2497C73.0711 65.2497 73.8875 64.9319 74.5 64.2975L86.2401 52.1729C87.4135 50.962 87.4135 49.0381 86.2401 47.8272L74.5 35.7026C73.9016 35.0822 73.1088 34.7633 72.3088 34.7504Z" fill="#0F172A"/>
</svg>
