<svg width="100" height="100" viewBox="0 0 100 100" fill="none" xmlns="http://www.w3.org/2000/svg">
<path d="M31.25 17.1875C26.0719 17.1875 21.875 21.3844 21.875 26.5625V73.4375C21.875 78.6156 26.0719 82.8125 31.25 82.8125H75C76.7266 82.8125 78.125 81.4141 78.125 79.6875C78.125 78.4769 77.4313 77.4386 76.4252 76.9196L76.4343 76.9135C76.4343 76.9135 73.4375 75.6963 73.4375 72.6807C73.4375 69.7213 75.3113 68.5089 75.3113 68.5089L75.2625 68.4967C76.996 67.0636 78.125 64.9243 78.125 62.5V26.5625C78.125 21.3844 73.9281 17.1875 68.75 17.1875H31.25ZM31.25 23.4375H34.375V64.0625C29.7297 64.0625 28.125 64.8987 28.125 64.8987V26.5625C28.125 24.8359 29.5234 23.4375 31.25 23.4375ZM53.1525 31.2714C56.2009 31.2714 58.67 33.9956 58.67 37.3596C58.67 40.7237 56.2009 43.4509 53.1525 43.4509C50.104 43.4509 47.6318 40.7237 47.6318 37.3596C47.6318 33.9956 50.1056 31.2714 53.1525 31.2714ZM53.125 45.9961C55.8062 45.9961 58.5277 46.5754 61.3464 48.6176C62.6542 49.5644 64.9445 51.9216 64.9445 54.6326C64.9445 56.0935 63.4463 56.2683 62.9791 56.2683H43.2709C42.8037 56.2683 41.3055 56.0935 41.3055 54.6326C41.3055 51.9232 43.5958 49.5644 44.9036 48.6176C47.7223 46.5754 50.4438 45.9961 53.125 45.9961ZM31.25 70.3125H67.7551C67.4231 71.1528 67.1875 72.1731 67.1875 73.4375C67.1875 74.6965 67.5967 75.717 68.1671 76.5625H31.25C29.5234 76.5625 28.125 75.1641 28.125 73.4375C28.125 71.7109 29.5234 70.3125 31.25 70.3125Z" fill="#0F172A"/>
</svg>
