<svg width="18" height="18" viewBox="0 0 18 18" fill="none" xmlns="http://www.w3.org/2000/svg">
<path d="M9 2.25C8.6895 2.25 8.4375 2.502 8.4375 2.8125V10.7452L6.5863 8.88464C6.36721 8.66442 6.01111 8.66279 5.79089 8.88245C5.57096 9.10154 5.5696 9.45764 5.7887 9.67786L8.6012 12.5046C8.70695 12.6107 8.85038 12.6705 9 12.6705C9.14962 12.6705 9.29305 12.611 9.3988 12.5046L12.2113 9.67786C12.4304 9.45764 12.429 9.10154 12.2091 8.88245C11.9889 8.66307 11.6328 8.66471 11.4137 8.88464L9.5625 10.7452V2.8125C9.5625 2.502 9.3105 2.25 9 2.25ZM2.53125 10.6875C2.22075 10.6875 1.96875 10.9395 1.96875 11.25V13.5C1.96875 14.4307 2.72559 15.1875 3.65625 15.1875H14.3438C15.2744 15.1875 16.0312 14.4307 16.0312 13.5V11.25C16.0312 10.9395 15.7793 10.6875 15.4688 10.6875C15.1582 10.6875 14.9062 10.9395 14.9062 11.25V13.5C14.9062 13.8102 14.654 14.0625 14.3438 14.0625H3.65625C3.34603 14.0625 3.09375 13.8102 3.09375 13.5V11.25C3.09375 10.9395 2.84175 10.6875 2.53125 10.6875Z" fill="white"/>
</svg>
