<svg width="100" height="100" viewBox="0 0 100 100" fill="none" xmlns="http://www.w3.org/2000/svg">
<path d="M28.125 18.75C22.9531 18.75 18.75 22.9531 18.75 28.125V71.875C18.75 77.0469 22.9531 81.25 28.125 81.25H71.875C77.0469 81.25 81.25 77.0469 81.25 71.875V29.6875C81.25 28.8594 80.9221 28.0623 80.3284 27.4841L72.5159 19.6716C71.9377 19.0779 71.1406 18.75 70.3125 18.75H65.625V35.9375C65.625 38.5156 63.5156 40.625 60.9375 40.625H37.5C34.9219 40.625 32.8125 38.5156 32.8125 35.9375V18.75H28.125ZM51.5625 20.3125C50.7 20.3125 50 21.0125 50 21.875V34.375C50 35.2375 50.7 35.9375 51.5625 35.9375H56.25C57.1125 35.9375 57.8125 35.2375 57.8125 34.375V21.875C57.8125 21.0125 57.1125 20.3125 56.25 20.3125H51.5625ZM35.9375 54.6875H64.0625C66.6406 54.6875 68.75 56.7969 68.75 59.375V75H31.25V59.375C31.25 56.7969 33.3594 54.6875 35.9375 54.6875Z" fill="#0F172A"/>
</svg>
