<svg width="100" height="100" viewBox="0 0 100 100" fill="none" xmlns="http://www.w3.org/2000/svg">
<path d="M28.125 18.75C22.9547 18.75 18.75 22.9547 18.75 28.125V71.875C18.75 77.0453 22.9547 81.25 28.125 81.25H71.875C77.0453 81.25 81.25 77.0453 81.25 71.875V29.6875C81.25 28.8594 80.9204 28.064 80.3345 27.478L72.522 19.6655C71.936 19.0796 71.1406 18.75 70.3125 18.75H28.125ZM28.125 25H32.8125V37.5C32.8125 40.9516 35.6109 43.75 39.0625 43.75H59.375C62.8266 43.75 65.625 40.9516 65.625 37.5V25H69.0186L75 30.9814V71.875C75 73.5984 73.5984 75 71.875 75H68.75V59.375C68.75 55.9234 65.9516 53.125 62.5 53.125H37.5C34.0484 53.125 31.25 55.9234 31.25 59.375V75H28.125C26.4016 75 25 73.5984 25 71.875V28.125C25 26.4016 26.4016 25 28.125 25ZM39.0625 25H48.4375V32.8125C48.4375 33.675 49.1375 34.375 50 34.375H53.125C53.9875 34.375 54.6875 33.675 54.6875 32.8125V25H59.375V36.7188C59.375 37.15 59.025 37.5 58.5938 37.5H39.8438C39.4125 37.5 39.0625 37.15 39.0625 36.7188V25ZM38.2812 59.375H61.7188C62.15 59.375 62.5 59.725 62.5 60.1562V75H37.5V60.1562C37.5 59.725 37.85 59.375 38.2812 59.375Z" fill="#0F172A"/>
</svg>
