<svg width="30" height="30" viewBox="0 0 30 30" fill="none" xmlns="http://www.w3.org/2000/svg">
<path d="M11.868 2.34375C10.5161 2.34375 9.35338 3.30869 9.104 4.63806L8.05847 10.2155C7.11736 11.5765 6.5625 13.2238 6.5625 15C6.5625 16.7762 7.11736 18.4235 8.05847 19.7845L9.10492 25.3619C9.35383 26.6913 10.5156 27.6562 11.868 27.6562H18.132C19.4839 27.6562 20.6462 26.6913 20.8951 25.3619L21.9415 19.7845C22.4514 19.0472 22.8442 18.2248 23.0997 17.3438H23.4375C23.9555 17.3438 24.375 16.9242 24.375 16.4062V13.5938C24.375 13.0758 23.9555 12.6562 23.4375 12.6562H23.0997C22.844 11.7745 22.451 10.9514 21.9406 10.2136L20.8951 4.63806C20.6462 3.30869 19.4834 2.34375 18.1311 2.34375H11.868ZM11.868 4.21875H18.132C18.5825 4.21875 18.9696 4.54069 19.0521 4.98413L19.6069 7.94037C18.2809 7.07204 16.6999 6.5625 15 6.5625C13.2998 6.5625 11.7183 7.07177 10.3922 7.94037L10.947 4.98322C11.0299 4.54025 11.4175 4.21875 11.868 4.21875ZM15 8.4375C18.6187 8.4375 21.5625 11.3813 21.5625 15C21.5625 18.6187 18.6187 21.5625 15 21.5625C11.3812 21.5625 8.4375 18.6187 8.4375 15C8.4375 11.3813 11.3812 8.4375 15 8.4375ZM15 9.84375C14.4825 9.84375 14.0625 10.2633 14.0625 10.7812V14.0625H11.7188C11.2008 14.0625 10.7812 14.4825 10.7812 15C10.7812 15.5175 11.2008 15.9375 11.7188 15.9375H15C15.5175 15.9375 15.9375 15.518 15.9375 15V10.7812C15.9375 10.2633 15.5175 9.84375 15 9.84375ZM10.3931 22.0596C11.7191 22.928 13.3001 23.4375 15 23.4375C16.6999 23.4375 18.2809 22.928 19.6069 22.0596L19.0521 25.0168C18.9692 25.4598 18.5816 25.7812 18.1311 25.7812H11.868C11.4175 25.7812 11.0304 25.4593 10.9479 25.0159L10.3931 22.0596Z" fill="white"/>
</svg>
