<svg xmlns="http://www.w3.org/2000/svg"  viewBox="0 0 64 64" width="48px" height="48px"><path d="M32 31c-5.514 0-10-4.71-10-10.5S26.486 10 32 10s10 4.71 10 10.5S37.514 31 32 31zM32 14c-3.309 0-6 2.916-6 6.5s2.691 6.5 6 6.5 6-2.916 6-6.5S35.309 14 32 14zM35 48c0 1.397.226 2.739.634 4H17.055c-3.167 0-5.413-3.161-4.31-6.135 2.601-7.011 10.23-11.723 18.985-11.723 3.707 0 7.207.852 10.214 2.358-1.366.721-2.581 1.682-3.605 2.821-2.037-.755-4.281-1.18-6.609-1.18-6.98 0-13.245 3.748-15.235 9.114C16.418 47.465 16.548 48 17.055 48H35zM57.245 46.192C57.681 46.267 58 46.646 58 47.088v1.824c0 .443-.319.821-.755.896l-1.574.271c-.18.664-.44 1.294-.776 1.877l.921 1.303c.255.361.213.854-.1 1.167l-1.29 1.29c-.313.313-.806.355-1.167.1l-1.303-.921c-.583.335-1.213.596-1.877.776l-.271 1.574C49.733 57.681 49.354 58 48.912 58h-1.824c-.443 0-.821-.319-.896-.755l-.271-1.574c-.664-.18-1.294-.44-1.877-.776l-1.303.921c-.361.255-.854.213-1.167-.1l-1.29-1.29c-.313-.313-.355-.806-.1-1.167l.921-1.303c-.335-.583-.596-1.213-.776-1.877l-1.574-.271C38.319 49.733 38 49.354 38 48.912v-1.824c0-.443.319-.821.755-.896l1.574-.271c.18-.664.44-1.294.776-1.877l-.921-1.303c-.255-.361-.213-.854.1-1.167l1.29-1.29c.313-.313.806-.355 1.167-.1l1.303.921c.583-.335 1.213-.596 1.877-.776l.271-1.574C46.267 38.319 46.646 38 47.088 38h1.824c.443 0 .821.319.896.755l.271 1.574c.664.18 1.294.44 1.877.776l1.303-.921c.361-.255.854-.213 1.167.1l1.29 1.29c.313.313.355.806.1 1.167l-.921 1.303c.335.583.596 1.213.776 1.877L57.245 46.192zM48 52c2.209 0 4-1.791 4-4s-1.791-4-4-4-4 1.791-4 4S45.791 52 48 52z"/></svg>