<svg width="100" height="100" viewBox="0 0 100 100" fill="none" xmlns="http://www.w3.org/2000/svg">
<path d="M68.75 15.625C62.7203 15.625 57.8125 20.5313 57.8125 26.5625C57.8125 27.207 57.879 27.8343 57.9865 28.4485L34.1156 40.3839C32.566 39.5411 30.7905 39.0625 28.9062 39.0625C22.8766 39.0625 17.9688 43.9688 17.9688 50C17.9688 56.0312 22.8766 60.9375 28.9062 60.9375C31.1072 60.9375 33.1546 60.2787 34.8724 59.1553L57.8644 72.4274C57.8337 72.7604 57.8125 73.0966 57.8125 73.4375C57.8125 79.4687 62.7203 84.375 68.75 84.375C74.7797 84.375 79.6875 79.4687 79.6875 73.4375C79.6875 67.4063 74.7797 62.5 68.75 62.5C65.3146 62.5 62.2486 64.0973 60.2417 66.5833L38.9618 54.2999C39.5287 52.9794 39.8438 51.5258 39.8438 50C39.8438 48.2356 39.4141 46.573 38.6688 45.0958L60.788 34.0363C62.7847 36.162 65.6111 37.5 68.75 37.5C74.7797 37.5 79.6875 32.5937 79.6875 26.5625C79.6875 20.5313 74.7797 15.625 68.75 15.625Z" fill="#0F172A"/>
</svg>
