<svg width="100" height="100" viewBox="0 0 100 100" fill="none" xmlns="http://www.w3.org/2000/svg">
<path d="M10.1416 90.2139L15.7541 69.7243C12.2916 63.7285 10.4708 56.9243 10.4729 49.9556C10.4833 28.1535 28.2249 10.416 50.0291 10.416C60.6103 10.4202 70.5395 14.5389 78.0083 22.0118C85.4749 29.4868 89.5874 39.4202 89.5833 49.9868C89.5749 71.7889 71.8291 89.5285 50.0291 89.5285H50.0124C43.3937 89.5264 36.8874 87.866 31.1103 84.7139L10.1416 90.2139Z" fill="white"/>
<path d="M10.1413 91.2562C9.86634 91.2562 9.59968 91.1479 9.40176 90.9479C9.14134 90.6833 9.03926 90.2979 9.13718 89.9417L14.6351 69.8667C11.2268 63.8125 9.42884 56.9375 9.43301 49.9583C9.44134 27.5792 27.6518 9.375 50.0288 9.375C60.883 9.37917 71.0809 13.6063 78.7455 21.2771C86.4101 28.95 90.6288 39.1458 90.6247 49.9875C90.6163 72.3646 72.4038 90.5708 50.0288 90.5708C43.3851 90.5687 36.8122 88.9292 30.9788 85.8271L10.4059 91.2208C10.3184 91.2458 10.2309 91.2562 10.1413 91.2562Z" fill="white"/>
<path d="M50.0293 10.4173C60.6106 10.4215 70.5397 14.5402 78.0085 22.0132C85.4751 29.4882 89.5876 39.4215 89.5835 49.9881C89.5751 71.7902 71.8293 89.5298 50.0293 89.5298H50.0126C43.3939 89.5277 36.8876 87.8673 31.1106 84.7152L10.1418 90.2152L15.7543 69.7256C12.2918 63.7298 10.471 56.9256 10.4731 49.9569C10.4835 28.1548 28.2251 10.4173 50.0293 10.4173ZM50.0293 8.33398C27.0793 8.33398 8.40014 27.0048 8.38972 49.9569C8.38764 56.9715 10.1585 63.884 13.5168 70.0027L8.13139 89.6673C7.93556 90.3861 8.13556 91.1527 8.66056 91.6819C9.05639 92.0819 9.59181 92.3006 10.1418 92.3006C10.3189 92.3006 10.496 92.2777 10.671 92.2319L30.8522 86.9402C36.7439 89.9986 43.3481 91.6131 50.0126 91.6152C72.9793 91.6152 91.6585 72.9423 91.6689 49.9902C91.6731 38.8673 87.346 28.409 79.4856 20.5423C71.621 12.6736 61.1606 8.33815 50.0293 8.33398Z" fill="#CFD8DC"/>
<path d="M73.2837 26.7332C67.0754 20.5207 58.8233 17.0978 50.04 17.0957C31.9066 17.0957 17.1587 31.8374 17.1504 49.9582C17.1483 56.1686 18.8858 62.2144 22.1775 67.4499L22.9608 68.6936L19.6379 80.8207L32.0816 77.5582L33.2837 78.2707C38.3296 81.2665 44.1171 82.8499 50.0171 82.852H50.0296C68.1504 82.852 82.8983 68.1082 82.9046 49.9853C82.9066 41.204 79.4921 32.9457 73.2837 26.7332Z" fill="#40C351"/>
<path fill-rule="evenodd" clip-rule="evenodd" d="M40.1413 33.4266C39.4018 31.7808 38.6226 31.7474 37.9163 31.7183C37.3393 31.6933 36.6809 31.6954 36.0226 31.6954C35.3643 31.6954 34.2934 31.9433 33.3872 32.9329C32.4809 33.9224 29.9268 36.312 29.9268 41.1745C29.9268 46.037 33.4684 50.737 33.9622 51.3954C34.4559 52.0537 40.7997 62.3516 50.8455 66.3141C59.1934 69.6058 60.8934 68.9516 62.7059 68.787C64.5184 68.6224 68.5538 66.3974 69.3768 64.0891C70.1997 61.7808 70.1997 59.8037 69.9538 59.3912C69.7059 58.9787 69.0476 58.7329 68.0601 58.237C67.0726 57.7412 62.2122 55.3516 61.3059 55.0224C60.3997 54.6933 59.7413 54.5287 59.0809 55.5183C58.4226 56.5058 56.5288 58.7329 55.9518 59.3912C55.3747 60.0516 54.7976 60.1349 53.8101 59.6391C52.8226 59.1433 49.6393 58.1016 45.8622 54.7349C42.9247 52.1162 40.9413 48.8808 40.3643 47.8912C39.7872 46.9037 40.3018 46.3683 40.7976 45.8745C41.2413 45.4308 41.7851 44.7204 42.2809 44.1433C42.7747 43.5662 42.9393 43.1537 43.2684 42.4954C43.5976 41.8349 43.433 41.2579 43.1851 40.7641C42.9413 40.2683 41.0205 35.3808 40.1413 33.4266Z" fill="white"/>
</svg>
