<svg width="100" height="100" viewBox="0 0 100 100" fill="none" xmlns="http://www.w3.org/2000/svg">
<path d="M91.6663 48.959C91.6663 71.3965 73.0205 89.584 49.9997 89.584C46.5601 89.584 43.2288 89.1798 40.033 88.409C39.0643 88.1756 38.0518 88.2652 37.1601 88.7111L28.0413 93.2715C25.6872 94.4486 22.9163 92.7361 22.9163 90.1027V81.7173C22.9163 80.5194 22.3809 79.4027 21.4976 78.5944C13.3851 71.1777 8.33301 60.6465 8.33301 48.959C8.33301 26.5215 26.9788 8.33398 49.9997 8.33398C73.0205 8.33398 91.6663 26.5215 91.6663 48.959Z" fill="url(#paint0_radial_2928_184)"/>
<path opacity="0.05" d="M72.8999 36.0254C72.0083 36.0254 71.1437 36.3212 70.3999 36.8816L58.5374 45.6629C58.2604 45.8712 57.9541 45.9754 57.6312 45.9754C57.3187 45.9754 57.0249 45.8775 56.777 45.6921L48.502 39.4629C46.8187 38.2108 44.8354 37.5504 42.7583 37.5504C39.4749 37.5504 36.4562 39.1983 34.6833 41.9587L32.1604 45.8983L23.577 59.8462C22.7604 61.1254 22.6979 62.7046 23.4291 64.0421C24.1749 65.4046 25.5833 66.2504 27.1041 66.2504C27.9958 66.2504 28.8604 65.9546 29.6041 65.3941L41.4666 56.6129C41.7437 56.4046 42.0499 56.3004 42.3729 56.3004C42.6854 56.3004 42.9791 56.3983 43.227 56.5837L51.502 62.8129C53.1874 64.0671 55.1687 64.7254 57.2458 64.7254C60.5291 64.7254 63.5479 63.0775 65.3208 60.3171L67.8437 56.3775L76.427 42.4296C77.2437 41.1504 77.3062 39.5712 76.5749 38.2337C75.8291 36.8712 74.4208 36.0254 72.8999 36.0254Z" fill="#1A1A1A"/>
<path opacity="0.07" d="M72.8996 37.0664C72.235 37.0664 71.5871 37.2893 71.0266 37.7122L59.1579 46.4997C58.7079 46.8393 58.1829 47.0164 57.6329 47.0164C57.0933 47.0164 56.5829 46.8456 56.1537 46.5247L47.8766 40.2935C46.3787 39.1789 44.61 38.5914 42.7579 38.5914C39.8308 38.5914 37.1412 40.0602 35.56 42.5227L33.0391 46.4622L24.4662 60.3956C23.8475 61.3643 23.7996 62.5477 24.3454 63.5435C24.8996 64.556 25.985 65.2102 27.1058 65.2102C27.7704 65.2102 28.4183 64.9872 28.9787 64.5643L40.8475 55.7768C41.2975 55.4372 41.8225 55.2602 42.3725 55.2602C42.9121 55.2602 43.4225 55.431 43.8516 55.7518L52.1287 61.9831C53.6266 63.0977 55.3954 63.6852 57.2475 63.6852C60.1746 63.6852 62.8641 62.2164 64.4454 59.7539L66.9662 55.8143L75.5391 41.881C76.1579 40.9122 76.2058 39.7289 75.66 38.7331C75.1058 37.7206 74.0225 37.0664 72.8996 37.0664Z" fill="#1A1A1A"/>
<path d="M71.6543 38.5438L59.7793 47.3355C58.5084 48.2938 56.7793 48.2938 55.5293 47.3563L47.2501 41.1251C43.7501 38.5209 38.7918 39.4168 36.4376 43.0834L33.9168 47.0209L25.3543 60.9376C24.1043 62.8959 26.5001 65.1251 28.3543 63.7293L40.2293 54.9376C41.5001 53.9793 43.2293 53.9793 44.4793 54.9168L52.7584 61.148C56.2584 63.7522 61.2168 62.8563 63.5709 59.1897L66.0918 55.2522L74.6543 41.3355C75.9043 39.3772 73.5084 37.148 71.6543 38.5438Z" fill="white"/>
<defs>
<radialGradient id="paint0_radial_2928_184" cx="0" cy="0" r="1" gradientUnits="userSpaceOnUse" gradientTransform="translate(23.0976 89.5382) scale(99.1917 99.1917)">
<stop stop-color="#1292FF"/>
<stop offset="0.079" stop-color="#2982FF"/>
<stop offset="0.23" stop-color="#4E69FF"/>
<stop offset="0.351" stop-color="#6559FF"/>
<stop offset="0.428" stop-color="#6D53FF"/>
<stop offset="0.754" stop-color="#DF47AA"/>
<stop offset="0.946" stop-color="#FF6257"/>
</radialGradient>
</defs>
</svg>
