<svg width="100" height="100" viewBox="0 0 100 100" fill="none" xmlns="http://www.w3.org/2000/svg">
<path d="M72.9167 12.5H27.0833C19.0292 12.5 12.5 19.0292 12.5 27.0833V72.9167C12.5 80.9708 19.0292 87.5 27.0833 87.5H72.9167C80.9708 87.5 87.5 80.9708 87.5 72.9167V27.0833C87.5 19.0292 80.9708 12.5 72.9167 12.5Z" fill="#00FF00"/>
<path d="M50.0003 25C35.042 25 22.917 35.2604 22.917 47.9167C22.917 56.4042 28.3837 63.7958 36.4857 67.7562C35.2732 70.3604 33.5149 72.8104 31.2503 75C35.7545 74.2083 39.9816 72.5521 43.6191 70.1667C45.6691 70.5875 47.7982 70.8333 50.0003 70.8333C64.9587 70.8333 77.0837 60.5729 77.0837 47.9167C77.0837 35.2604 64.9587 25 50.0003 25Z" fill="white"/>
</svg>
