<svg width="100" height="100" viewBox="0 0 100 100" fill="none" xmlns="http://www.w3.org/2000/svg">
<path d="M90.8559 41.8402H87.4997V41.6673H49.9997V58.334H73.5476C70.1122 68.0361 60.8809 75.0006 49.9997 75.0006C36.1934 75.0006 24.9997 63.8069 24.9997 50.0006C24.9997 36.1944 36.1934 25.0007 49.9997 25.0007C56.3726 25.0007 62.1705 27.4048 66.5851 31.3319L78.3705 19.5465C70.9288 12.6111 60.9747 8.33398 49.9997 8.33398C26.9893 8.33398 8.33301 26.9902 8.33301 50.0006C8.33301 73.0111 26.9893 91.6673 49.9997 91.6673C73.0101 91.6673 91.6663 73.0111 91.6663 50.0006C91.6663 47.2069 91.3788 44.4798 90.8559 41.8402Z" fill="#FBC02D"/>
<path d="M13.1377 30.6069L26.8273 40.6465C30.5314 31.4757 39.5023 25.0007 50.0002 25.0007C56.3731 25.0007 62.171 27.4048 66.5856 31.3319L78.371 19.5465C70.9294 12.6111 60.9752 8.33398 50.0002 8.33398C33.996 8.33398 20.1169 17.3694 13.1377 30.6069Z" fill="#E53935"/>
<path d="M50 91.6661C60.7625 91.6661 70.5417 87.5474 77.9354 80.8495L65.0396 69.937C60.8562 73.1057 55.6562 74.9995 50 74.9995C39.1625 74.9995 29.9604 68.0891 26.4937 58.4453L12.9062 68.9141C19.8021 82.4078 33.8063 91.6661 50 91.6661Z" fill="#4CAF50"/>
<path d="M90.8562 41.8389L90.8229 41.666H87.5H50V58.3327H73.5479C71.8979 62.9931 68.9 67.0118 65.0333 69.9389L65.0396 69.9348L77.9354 80.8473C77.0229 81.6764 91.6667 70.8327 91.6667 49.9993C91.6667 47.2056 91.3792 44.4785 90.8562 41.8389Z" fill="#1565C0"/>
</svg>
