<svg width="30" height="30" viewBox="0 0 30 30" fill="none" xmlns="http://www.w3.org/2000/svg">
<path d="M7.5 5.15625C6.20766 5.15625 5.15625 6.20766 5.15625 7.5V11.25C5.15625 12.5423 6.20766 13.5938 7.5 13.5938H11.25C12.5423 13.5938 13.5938 12.5423 13.5938 11.25V7.5C13.5938 6.20766 12.5423 5.15625 11.25 5.15625H7.5ZM18.2812 5.15625C16.9889 5.15625 15.9375 6.20766 15.9375 7.5V11.25C15.9375 12.5423 16.9889 13.5938 18.2812 13.5938H22.0312C23.3236 13.5938 24.375 12.5423 24.375 11.25V7.5C24.375 6.20766 23.3236 5.15625 22.0312 5.15625H18.2812ZM7.5 7.03125H11.25C11.5087 7.03125 11.7188 7.24172 11.7188 7.5V11.25C11.7188 11.5083 11.5087 11.7188 11.25 11.7188H7.5C7.24125 11.7188 7.03125 11.5083 7.03125 11.25V7.5C7.03125 7.24172 7.24125 7.03125 7.5 7.03125ZM18.2812 7.03125H22.0312C22.29 7.03125 22.5 7.24172 22.5 7.5V11.25C22.5 11.5083 22.29 11.7188 22.0312 11.7188H18.2812C18.0225 11.7188 17.8125 11.5083 17.8125 11.25V7.5C17.8125 7.24172 18.0225 7.03125 18.2812 7.03125ZM8.4375 8.4375V10.3125H10.3125V8.4375H8.4375ZM19.2188 8.4375V10.3125H21.0938V8.4375H19.2188ZM7.5 15.9375C6.20766 15.9375 5.15625 16.9889 5.15625 18.2812V22.0312C5.15625 23.3236 6.20766 24.375 7.5 24.375H11.25C12.5423 24.375 13.5938 23.3236 13.5938 22.0312V18.2812C13.5938 16.9889 12.5423 15.9375 11.25 15.9375H7.5ZM15.9375 15.9375V18.75H18.75V15.9375H15.9375ZM18.75 18.75V21.5625H21.5625V18.75H18.75ZM21.5625 18.75H24.375V15.9375H21.5625V18.75ZM21.5625 21.5625V24.375H24.375V21.5625H21.5625ZM18.75 21.5625H15.9375V24.375H18.75V21.5625ZM7.5 17.8125H11.25C11.5087 17.8125 11.7188 18.023 11.7188 18.2812V22.0312C11.7188 22.2895 11.5087 22.5 11.25 22.5H7.5C7.24125 22.5 7.03125 22.2895 7.03125 22.0312V18.2812C7.03125 18.023 7.24125 17.8125 7.5 17.8125ZM8.4375 19.2188V21.0938H10.3125V19.2188H8.4375Z" fill="white"/>
</svg>
