<svg width="100" height="100" viewBox="0 0 100 100" fill="none" xmlns="http://www.w3.org/2000/svg">
<path d="M84.9997 67.4337C83.0667 71.727 82.1352 73.646 79.6489 77.435C76.168 82.7298 71.2585 89.3412 65.1933 89.3832C59.7934 89.4323 58.3997 85.8604 51.0668 85.9234C43.741 85.9584 42.2142 89.4533 36.8073 89.3972C30.7351 89.3412 26.0917 83.3881 22.6109 78.1003C12.8758 63.2735 11.8462 45.8904 17.8624 36.6455C22.1206 30.0901 28.8512 26.238 35.1755 26.238C41.6189 26.238 45.667 29.7749 50.9898 29.7749C56.1585 29.7749 59.3032 26.231 66.7551 26.231C72.3861 26.231 78.3392 29.2987 82.5974 34.5934C68.6741 42.2274 70.9363 62.1109 84.9997 67.4337ZM61.0961 20.3129C63.8065 16.8321 65.8656 11.9225 65.1162 6.92188C60.6969 7.22304 55.5282 10.0455 52.5096 13.7014C49.7712 17.0352 47.502 21.9798 48.3844 26.7633C53.21 26.9174 58.2036 24.0389 61.0961 20.3129Z" fill="#1A1A1A"/>
</svg>
