<svg width="100" height="100" viewBox="0 0 100 100" fill="none" xmlns="http://www.w3.org/2000/svg">
<path d="M87.8079 7.88926C86.9344 7.95058 86.0466 8.34743 85.3481 9.04587L82.4246 11.9359L88.1802 17.7312L91.0519 14.7893C92.4878 13.2783 92.6022 11.1974 91.1679 9.76303L90.1852 8.74375C89.543 8.10156 88.6813 7.82793 87.8079 7.88926ZM79.6444 14.7099L48.7942 45.5998L45.3945 53.0797C45.0164 53.9484 45.9998 54.9294 46.8685 54.5903L54.6108 51.3402L85.4611 20.49L79.6444 14.7099ZM26.5957 17.2215C21.4254 17.2215 17.2207 21.4262 17.2207 26.5965V73.4044C17.2207 78.5747 21.4254 82.7794 26.5957 82.7794H73.4036C78.5739 82.7794 82.7786 78.5747 82.7786 73.4044V29.8009L57.275 55.3075L48.6813 58.9116C47.9141 59.2147 47.4242 59.284 46.5023 59.3449C45.4164 59.4153 42.686 58.3407 41.5829 56.6563C40.5063 55.0173 40.3273 52.9778 41.0977 51.2059L44.8788 42.8868L70.5136 17.2215H26.5957Z" fill="#0F172A"/>
</svg>
