<svg width="100" height="100" viewBox="0 0 100 100" fill="none" xmlns="http://www.w3.org/2000/svg">
<path d="M43.75 17.1875C42.0234 17.1875 40.625 18.5859 40.625 20.3125V21.875H20.3125C18.5875 21.875 17.1875 23.275 17.1875 25C17.1875 26.725 18.5875 28.125 20.3125 28.125H22.1252L26.0956 75.7782C26.4956 80.5985 30.6026 84.375 35.4401 84.375H64.5599C69.3974 84.375 73.5029 80.5985 73.9044 75.7782L77.8748 28.125H79.6875C81.4125 28.125 82.8125 26.725 82.8125 25C82.8125 23.275 81.4125 21.875 79.6875 21.875H59.375V20.3125C59.375 18.5859 57.9766 17.1875 56.25 17.1875H43.75ZM28.3966 28.125H71.6064L67.6758 75.2594C67.5414 76.8656 66.1755 78.125 64.563 78.125H35.4401C33.826 78.125 32.457 76.8656 32.3242 75.2594L28.3966 28.125Z" fill="#1A1A1A"/>
</svg>
