<svg width="40" height="40" viewBox="0 0 40 40" fill="none" xmlns="http://www.w3.org/2000/svg">
<path d="M25.7437 6.13672C23.6641 6.13672 21.5847 6.92783 20.0003 8.51221L16.4627 12.0437C13.294 15.2125 13.294 20.3691 16.4627 23.5378C17.4252 24.4941 18.5571 25.1562 19.7696 25.5312C20.4953 24.8125 21.0472 24.3644 21.3565 23.3438C20.2128 23.175 19.1128 22.6503 18.2315 21.769C16.0378 19.5753 16.0378 16.0063 18.2315 13.8125L21.7691 10.2749C23.9629 8.0874 27.5319 8.0874 29.7257 10.2749C31.8332 12.3887 31.9094 15.7738 29.9625 17.9788C29.8944 18.0563 29.8232 18.1327 29.7501 18.207C30.0513 18.1633 31.2961 18.0007 32.7811 18.3132C32.833 18.2232 32.8831 18.1323 32.9313 18.041C34.5481 14.9798 34.0678 11.0916 31.4884 8.51221C29.904 6.92783 27.8234 6.13672 25.7437 6.13672ZM20.2311 14.4692L19.556 15.1382C19.1185 15.5757 18.8129 16.1005 18.6441 16.6567C19.7879 16.8255 20.8879 17.3502 21.7691 18.2314C22.8441 19.3064 23.3947 20.725 23.4134 22.1438C23.9947 21.2688 24.7253 20.5068 25.5753 19.8818C25.2065 18.6318 24.5254 17.4501 23.5379 16.4626C22.5754 15.5064 21.4436 14.8442 20.2311 14.4692ZM12.3502 16.1758C12.2502 16.2695 12.1438 16.3689 12.0438 16.4626L8.5123 20.0002C5.34355 23.169 5.34355 28.3195 8.5123 31.4883C11.6811 34.657 16.8316 34.657 20.0003 31.4883L22.1378 29.3508C21.8453 28.1902 21.8165 26.9728 21.9571 25.9878C21.8946 26.0565 18.2315 29.7256 18.2315 29.7256C16.0378 31.9131 12.4688 31.9131 10.275 29.7256C8.0875 27.5318 8.0875 23.9628 10.275 21.769L12.3941 19.6499C12.1754 18.4999 12.1627 17.3195 12.3502 16.1758ZM30.9378 20.0002C26.9685 20.0002 23.7503 23.2184 23.7503 27.1877C23.7503 31.1571 26.9685 34.3752 30.9378 34.3752C34.9072 34.3752 38.1253 31.1571 38.1253 27.1877C38.1253 23.2184 34.9072 20.0002 30.9378 20.0002ZM30.9378 23.1252C31.4553 23.1252 31.8753 23.5446 31.8753 24.0627V26.2502H34.0628C34.5803 26.2502 35.0003 26.6696 35.0003 27.1877C35.0003 27.7059 34.5803 28.1252 34.0628 28.1252H31.8753V30.3127C31.8753 30.8309 31.4553 31.2502 30.9378 31.2502C30.4203 31.2502 30.0003 30.8309 30.0003 30.3127V28.1252H27.8128C27.2953 28.1252 26.8753 27.7059 26.8753 27.1877C26.8753 26.6696 27.2953 26.2502 27.8128 26.2502H30.0003V24.0627C30.0003 23.5446 30.4203 23.1252 30.9378 23.1252Z" fill="#0F172A"/>
</svg>
