<svg width="100" height="100" viewBox="0 0 100 100" fill="none" xmlns="http://www.w3.org/2000/svg">
<path d="M70.8686 87.4785L29.2019 87.5181C20.0353 87.5264 12.529 80.0348 12.5186 70.8681L12.479 29.2014C12.4707 20.0348 19.9623 12.5285 29.129 12.5181L70.7957 12.4785C79.9623 12.4702 87.4686 19.9619 87.479 29.1285L87.5186 70.7952C87.529 79.9639 80.0353 87.4702 70.8686 87.4785Z" fill="url(#paint0_radial_2928_177)"/>
<path d="M70.8686 87.4785L29.2019 87.5181C20.0353 87.5264 12.529 80.0348 12.5186 70.8681L12.479 29.2014C12.4707 20.0348 19.9623 12.5285 29.129 12.5181L70.7957 12.4785C79.9623 12.4702 87.4686 19.9619 87.479 29.1285L87.5186 70.7952C87.529 79.9639 80.0353 87.4702 70.8686 87.4785Z" fill="url(#paint1_radial_2928_177)"/>
<path d="M49.9998 64.5827C41.9603 64.5827 35.4165 58.041 35.4165 49.9993C35.4165 41.9577 41.9603 35.416 49.9998 35.416C58.0394 35.416 64.5832 41.9577 64.5832 49.9993C64.5832 58.041 58.0394 64.5827 49.9998 64.5827ZM49.9998 39.5827C44.2561 39.5827 39.5832 44.2556 39.5832 49.9993C39.5832 55.7431 44.2561 60.416 49.9998 60.416C55.7436 60.416 60.4165 55.7431 60.4165 49.9993C60.4165 44.2556 55.7436 39.5827 49.9998 39.5827Z" fill="white"/>
<path d="M65.625 37.5C67.3509 37.5 68.75 36.1009 68.75 34.375C68.75 32.6491 67.3509 31.25 65.625 31.25C63.8991 31.25 62.5 32.6491 62.5 34.375C62.5 36.1009 63.8991 37.5 65.625 37.5Z" fill="white"/>
<path d="M62.4998 77.0827H37.4998C29.4603 77.0827 22.9165 70.541 22.9165 62.4993V37.4993C22.9165 29.4577 29.4603 22.916 37.4998 22.916H62.4998C70.5394 22.916 77.0832 29.4577 77.0832 37.4993V62.4993C77.0832 70.541 70.5394 77.0827 62.4998 77.0827ZM37.4998 27.0827C31.7561 27.0827 27.0832 31.7556 27.0832 37.4993V62.4993C27.0832 68.2431 31.7561 72.916 37.4998 72.916H62.4998C68.2436 72.916 72.9165 68.2431 72.9165 62.4993V37.4993C72.9165 31.7556 68.2436 27.0827 62.4998 27.0827H37.4998Z" fill="white"/>
<defs>
<radialGradient id="paint0_radial_2928_177" cx="0" cy="0" r="1" gradientUnits="userSpaceOnUse" gradientTransform="translate(40.3748 87.5723) scale(93.5396 93.5396)">
<stop stop-color="#FFDD55"/>
<stop offset="0.328" stop-color="#FF543F"/>
<stop offset="0.348" stop-color="#FC5245"/>
<stop offset="0.504" stop-color="#E64771"/>
<stop offset="0.643" stop-color="#D53E91"/>
<stop offset="0.761" stop-color="#CC39A4"/>
<stop offset="0.841" stop-color="#C837AB"/>
</radialGradient>
<radialGradient id="paint1_radial_2928_177" cx="0" cy="0" r="1" gradientUnits="userSpaceOnUse" gradientTransform="translate(24.554 11.5417) scale(62.1104 41.3842)">
<stop stop-color="#4168C9"/>
<stop offset="0.999" stop-color="#4168C9" stop-opacity="0"/>
</radialGradient>
</defs>
</svg>
