<svg width="100" height="100" viewBox="0 0 100 100" fill="none" xmlns="http://www.w3.org/2000/svg">
<path d="M62.5 15.625C60.775 15.625 59.375 17.025 59.375 18.75C59.375 20.475 60.775 21.875 62.5 21.875H73.7061L47.7905 47.7905C46.5702 49.0108 46.5702 50.9892 47.7905 52.2095C48.4015 52.8204 49.2 53.125 50 53.125C50.8 53.125 51.5985 52.8204 52.2095 52.2095L78.125 26.2939V37.5C78.125 39.225 79.525 40.625 81.25 40.625C82.975 40.625 84.375 39.225 84.375 37.5V18.75C84.375 17.025 82.975 15.625 81.25 15.625H62.5ZM28.125 18.75C22.9547 18.75 18.75 22.9547 18.75 28.125V71.875C18.75 77.0453 22.9547 81.25 28.125 81.25H71.875C77.0453 81.25 81.25 77.0453 81.25 71.875V53.125C81.25 51.4 79.85 50 78.125 50C76.4 50 75 51.4 75 53.125V71.875C75 73.5984 73.5984 75 71.875 75H28.125C26.4016 75 25 73.5984 25 71.875V28.125C25 26.4016 26.4016 25 28.125 25H46.875C48.6 25 50 23.6 50 21.875C50 20.15 48.6 18.75 46.875 18.75H28.125Z" fill="#1A1A1A"/>
</svg>
