<svg width="100" height="100" viewBox="0 0 100 100" fill="none" xmlns="http://www.w3.org/2000/svg">
<path d="M49.9998 10.416C39.5017 10.416 29.4335 14.5864 22.0102 22.0097C14.5869 29.433 10.4165 39.5012 10.4165 49.9993C10.4165 60.4975 14.5869 70.5657 22.0102 77.989C29.4335 85.4123 39.5017 89.5827 49.9998 89.5827C60.498 89.5827 70.5662 85.4123 77.9895 77.989C85.4128 70.5657 89.5832 60.4975 89.5832 49.9993C89.5832 39.5012 85.4128 29.433 77.9895 22.0097C70.5662 14.5864 60.498 10.416 49.9998 10.416Z" fill="#039BE5"/>
<path d="M55.3586 60.4909H65.6023L67.2106 50.0846H55.3565V44.3971C55.3565 40.0742 56.769 36.2409 60.8127 36.2409H67.3106V27.1596C66.169 27.0055 63.7544 26.668 59.1919 26.668C49.6648 26.668 44.0794 31.6992 44.0794 43.1617V50.0846H34.2856V60.4909H44.0794V89.093C46.019 89.3846 47.9836 89.5826 50.0002 89.5826C51.8231 89.5826 53.6023 89.4159 55.3586 89.1784V60.4909Z" fill="white"/>
</svg>
