<svg width="100" height="100" viewBox="0 0 100 100" fill="none" xmlns="http://www.w3.org/2000/svg">
<path d="M59.7231 16.666C56.655 16.666 54.1675 19.1535 54.1675 22.2216C54.1675 25.2896 56.655 27.7771 59.7231 27.7771H64.3672L48.8507 43.2936C46.6812 45.4631 46.6812 48.9801 48.8507 51.1495C49.934 52.2329 51.3578 52.7771 52.7786 52.7771C54.1995 52.7771 55.6233 52.2329 56.7066 51.1495L72.2231 35.633V40.2771C72.2231 43.3452 74.7106 45.8327 77.7786 45.8327C80.8467 45.8327 83.3342 43.3452 83.3342 40.2771V22.2216C83.3342 19.1535 80.8467 16.666 77.7786 16.666H59.7231ZM31.9453 19.4438C25.0523 19.4438 19.4453 25.0521 19.4453 31.9438V68.0549C19.4453 74.9466 25.0523 80.5549 31.9453 80.5549H68.0564C74.9495 80.5549 80.5564 74.9466 80.5564 68.0549V56.9438C80.5564 53.8757 78.0689 51.3882 75.0009 51.3882C71.9328 51.3882 69.4453 53.8757 69.4453 56.9438V68.0549C69.4453 68.8202 68.8231 69.4438 68.0564 69.4438H31.9453C31.1786 69.4438 30.5564 68.8202 30.5564 68.0549V31.9438C30.5564 31.1785 31.1786 30.5549 31.9453 30.5549H43.0564C46.1245 30.5549 48.612 28.0674 48.612 24.9993C48.612 21.9313 46.1245 19.4438 43.0564 19.4438H31.9453Z" fill="#0F172A"/>
</svg>
