<svg width="50" height="50" viewBox="0 0 50 50" fill="none" xmlns="http://www.w3.org/2000/svg">
<path d="M24.9984 5.07812C23.4136 5.07812 21.9816 5.83184 20 6.87344C17.4472 8.21664 13.949 10.0547 8.02657 11.3547L7.39844 11.4922V12.1359C7.39844 36.5079 24.4897 44.6802 24.6625 44.7594L25.0156 44.9219L25.3609 44.7453C25.5329 44.6573 42.5984 35.6959 42.5984 12.1359V11.4922L41.9703 11.3547C36.0479 10.0547 32.5497 8.21665 29.9969 6.87345C28.0153 5.83185 26.5832 5.07812 24.9984 5.07812ZM25.0391 15.3359L26.9422 20.3312L27.125 20.8156L27.6422 20.8469L32.9984 21.1625C33 21.1873 32.9925 21.2058 32.9797 21.2234L28.8656 24.5469L28.4625 24.8719L28.5937 25.3719L29.9625 30.5766L25.4891 27.6203L25.0531 27.3344L24.6156 27.6156L20.1719 30.4719C20.1439 30.4855 20.1131 30.5013 20.0875 30.5125C20.0835 30.5109 20.079 30.5078 20.075 30.5062C20.0702 30.4966 20.0665 30.4891 20.0641 30.4891L20.0625 30.4906L21.4219 25.2906L21.5516 24.7953L21.1578 24.4703L17.0781 21.1109L17.0469 21.0844L22.3766 20.7656L22.8922 20.7359L23.0766 20.2516L24.925 15.4016C24.9682 15.3712 25.0095 15.3479 25.0391 15.3359Z" fill="black"/>
</svg>
