<svg width="24" height="24" viewBox="0 0 24 24" fill="none" xmlns="http://www.w3.org/2000/svg">
<path d="M4.875 4.5C3.63412 4.5 2.625 5.50912 2.625 6.75V14.25C2.625 15.4909 3.63412 16.5 4.875 16.5H5.625V17.25C5.625 18.4909 6.63412 19.5 7.875 19.5H19.125C20.3659 19.5 21.375 18.4909 21.375 17.25V9.75C21.375 8.50912 20.3659 7.5 19.125 7.5H18.375V6.75C18.375 5.50912 17.3659 4.5 16.125 4.5H4.875ZM4.875 6H16.125C16.5386 6 16.875 6.33637 16.875 6.75V7.5H4.125V6.75C4.125 6.33637 4.46137 6 4.875 6ZM18.375 9H19.125C19.5386 9 19.875 9.33637 19.875 9.75V10.5H18.375V9ZM4.125 9.375H16.875V14.25C16.875 14.6636 16.5386 15 16.125 15H4.875C4.46137 15 4.125 14.6636 4.125 14.25V9.375ZM18.375 12.375H19.875V17.25C19.875 17.6636 19.5386 18 19.125 18H7.875C7.46137 18 7.125 17.6636 7.125 17.25V16.5H16.125C17.3659 16.5 18.375 15.4909 18.375 14.25V12.375Z" fill="#424D5C"/>
</svg>
