<svg width="24" height="24" viewBox="0 0 24 24" fill="none" xmlns="http://www.w3.org/2000/svg">
<path d="M11.9992 3C11.6575 3 11.316 3.11595 11.0375 3.34863L3.29951 9.81445C3.01264 10.0541 2.91052 10.472 3.10102 10.7937C3.34365 11.2032 3.88056 11.2832 4.22969 10.9915L4.49922 10.7666V17.625C4.49922 18.6604 5.33884 19.5 6.37422 19.5H9.74922C10.3706 19.5 10.8742 18.9964 10.8742 18.375V14.4375C10.8742 14.334 10.9582 14.25 11.0617 14.25H12.9367C13.0402 14.25 13.1242 14.334 13.1242 14.4375V18.375C13.1242 18.9964 13.6278 19.5 14.2492 19.5H17.6242C18.6596 19.5 19.4992 18.6604 19.4992 17.625V10.7673L19.7688 10.9922C19.909 11.1096 20.079 11.1665 20.2485 11.1665C20.5091 11.1665 20.7677 11.0312 20.9106 10.771C21.085 10.453 20.9823 10.0513 20.7041 9.81885L19.4992 8.81177V5.625C19.4992 5.21062 19.1636 4.875 18.7492 4.875H17.9992C17.5848 4.875 17.2492 5.21062 17.2492 5.625V6.93164L12.9609 3.34863C12.6825 3.11595 12.3409 3 11.9992 3ZM11.9992 4.55713C12.0423 4.55713 12.085 4.57182 12.1201 4.60107L17.9992 9.51343V17.25C17.9992 17.6644 17.6636 18 17.2492 18H14.8117C14.7082 18 14.6242 17.916 14.6242 17.8125V13.875C14.6242 13.2536 14.1206 12.75 13.4992 12.75H10.4992C9.87784 12.75 9.37422 13.2536 9.37422 13.875V17.8125C9.37422 17.916 9.29022 18 9.18672 18H6.74922C6.33484 18 5.99922 17.6644 5.99922 17.25V9.5127L11.8784 4.60107C11.9134 4.57182 11.9562 4.55713 11.9992 4.55713Z" fill="#424D5C"/>
</svg>
