<svg width="24" height="24" viewBox="0 0 24 24" fill="none" xmlns="http://www.w3.org/2000/svg">
<path d="M12 3.75C6.83063 3.75 2.625 7.1063 2.625 11.2324C2.625 13.8098 4.25489 16.1644 6.93164 17.532C6.16777 18.8197 5.4388 19.8568 5.43018 19.8691C5.2603 20.1106 5.24793 20.4293 5.39868 20.6836C5.53518 20.9127 5.78145 21.0513 6.04395 21.0513C6.07245 21.0513 6.10114 21.0495 6.12964 21.0461C6.22751 21.0349 8.49322 20.7547 11.2566 18.6907C11.5086 18.7068 11.7577 18.7148 12 18.7148C17.1694 18.7148 21.375 15.3585 21.375 11.2324C21.375 7.1063 17.1694 3.75 12 3.75ZM12 5.25C16.3421 5.25 19.875 7.93355 19.875 11.2324C19.875 14.5313 16.3421 17.2148 12 17.2148C11.7083 17.2148 11.4034 17.2019 11.094 17.1746C10.9065 17.1573 10.7181 17.2129 10.5688 17.3291C9.53835 18.1282 8.58049 18.6462 7.80762 18.9792C8.07574 18.5472 8.36537 18.0627 8.64624 17.5591C8.75124 17.372 8.77058 17.1485 8.69971 16.946C8.62883 16.7435 8.47474 16.5814 8.27637 16.5C5.71549 15.4489 4.125 13.4299 4.125 11.2324C4.125 7.93355 7.65788 5.25 12 5.25ZM12.0015 7.20996C10.8202 7.20996 9.94135 7.67636 9.5896 8.40161C9.47972 8.61011 9.42554 8.81941 9.42554 9.05566C9.42554 9.47304 9.69479 9.74194 10.1287 9.74194C10.4639 9.74194 10.7107 9.58832 10.8479 9.23657C11.0238 8.74757 11.3861 8.48364 11.9246 8.48364C12.5291 8.48364 12.9463 8.85774 12.9463 9.39624C12.9463 9.90174 12.7322 10.1759 12.0234 10.5989C11.3754 10.978 11.0405 11.4066 11.0405 12.0549V12.1318C11.0405 12.5822 11.3152 12.9005 11.7817 12.9009C12.1684 12.9009 12.3818 12.6896 12.4658 12.3274L12.468 12.3186C12.5393 11.8574 12.7043 11.621 13.4348 11.198C14.2096 10.742 14.6111 10.1759 14.6111 9.34644C14.6111 8.06656 13.5615 7.20996 12.0015 7.20996ZM11.7935 13.6201C11.2988 13.6201 10.8977 13.9988 10.8977 14.4822C10.8977 14.9656 11.2988 15.345 11.7935 15.345C12.2933 15.345 12.6943 14.9656 12.6943 14.4822C12.6943 13.9988 12.2933 13.6201 11.7935 13.6201Z" fill="#424D5C"/>
</svg>
