<svg width="100" height="100" viewBox="0 0 100 100" fill="none" xmlns="http://www.w3.org/2000/svg">
<path d="M84.375 39.0625V70.3125C84.375 75.4828 80.1703 79.6875 75 79.6875H25C19.8297 79.6875 15.625 75.4828 15.625 70.3125V39.0625H84.375ZM45.3125 68.75V46.875C45.3125 46.0125 44.6125 45.3125 43.75 45.3125H29.6875C28.825 45.3125 28.125 46.0125 28.125 46.875V68.75C28.125 69.6125 28.825 70.3125 29.6875 70.3125H43.75C44.6125 70.3125 45.3125 69.6125 45.3125 68.75ZM67.1875 61.7188C67.1875 60.4234 66.1375 59.375 64.8438 59.375H55.4688C54.175 59.375 53.125 60.4234 53.125 61.7188C53.125 63.0141 54.175 64.0625 55.4688 64.0625H64.8438C66.1375 64.0625 67.1875 63.0141 67.1875 61.7188ZM73.4375 52.3438C73.4375 51.0484 72.3875 50 71.0938 50H55.4688C54.175 50 53.125 51.0484 53.125 52.3438C53.125 53.6391 54.175 54.6875 55.4688 54.6875H71.0938C72.3875 54.6875 73.4375 53.6391 73.4375 52.3438ZM75 20.3125C80.1703 20.3125 84.375 24.5172 84.375 29.6875V34.375H15.625V29.6875C15.625 24.5172 19.8297 20.3125 25 20.3125H75ZM27.3438 29.6875C28.6375 29.6875 29.6875 28.6375 29.6875 27.3438C29.6875 26.05 28.6375 25 27.3438 25C26.05 25 25 26.05 25 27.3438C25 28.6375 26.05 29.6875 27.3438 29.6875ZM35.1562 29.6875C36.45 29.6875 37.5 28.6375 37.5 27.3438C37.5 26.05 36.45 25 35.1562 25C33.8625 25 32.8125 26.05 32.8125 27.3438C32.8125 28.6375 33.8625 29.6875 35.1562 29.6875ZM72.6562 29.6875C73.95 29.6875 75 28.6375 75 27.3438C75 26.05 73.95 25 72.6562 25H44.5312C43.2375 25 42.1875 26.05 42.1875 27.3438C42.1875 28.6375 43.2375 29.6875 44.5312 29.6875H72.6562Z" fill="#0F172A"/>
</svg>
