<svg width="100" height="100" viewBox="0 0 100 100" fill="none" xmlns="http://www.w3.org/2000/svg">
<path d="M79.6875 20.3125C81.4125 20.3125 82.8125 21.7125 82.8125 23.4375V81.25C82.8125 82.975 81.4125 84.375 79.6875 84.375H67.1875C65.4625 84.375 64.0625 82.975 64.0625 81.25V23.4375C64.0625 21.7125 65.4625 20.3125 67.1875 20.3125H79.6875ZM56.25 43.75C57.975 43.75 59.375 45.15 59.375 46.875V81.25C59.375 82.975 57.975 84.375 56.25 84.375H43.75C42.025 84.375 40.625 82.975 40.625 81.25V46.875C40.625 45.15 42.025 43.75 43.75 43.75H56.25ZM32.8125 35.9375C34.5375 35.9375 35.9375 37.3375 35.9375 39.0625V81.25C35.9375 82.975 34.5375 84.375 32.8125 84.375H20.3125C18.5875 84.375 17.1875 82.975 17.1875 81.25V39.0625C17.1875 37.3375 18.5875 35.9375 20.3125 35.9375H32.8125Z" fill="#0F172A"/>
</svg>
