<svg width="24" height="24" viewBox="0 0 24 24" fill="none" xmlns="http://www.w3.org/2000/svg">
<path d="M11.9992 3.375C11.7798 3.375 11.587 3.52526 11.5333 3.73901L11.3356 4.53076C10.9016 4.56884 10.481 4.65044 10.0714 4.75928L9.61146 4.07739C9.48808 3.89477 9.25594 3.82002 9.04969 3.89502C8.84344 3.97039 8.71334 4.17735 8.73621 4.39673L8.82118 5.21411C8.43152 5.39694 8.05891 5.60838 7.70936 5.85278L7.04578 5.37158C6.86766 5.24221 6.62345 5.25182 6.45545 5.39282C6.28745 5.53382 6.23603 5.7727 6.33241 5.9707L6.6891 6.70386C6.38649 7.00726 6.11394 7.33978 5.86659 7.69116L5.07777 7.46558C4.86589 7.40483 4.63906 7.49738 4.52918 7.6875C4.41931 7.87762 4.45332 8.11933 4.61195 8.27271L5.20228 8.84399C5.0231 9.22917 4.87662 9.6315 4.76429 10.0488L3.94398 10.1067C3.72423 10.1221 3.54313 10.2869 3.50526 10.5029C3.46738 10.7189 3.58147 10.9348 3.78285 11.0244L4.52845 11.3577C4.51046 11.5696 4.49915 11.7834 4.49915 12C4.49915 12.2168 4.51042 12.4309 4.52845 12.6431L3.78285 12.9756C3.58147 13.0652 3.46738 13.2818 3.50526 13.4978C3.54313 13.7138 3.72496 13.8779 3.94471 13.8933L4.76429 13.9512C4.87656 14.3683 5.02322 14.7703 5.20228 15.1553L4.61195 15.7266C4.45332 15.8796 4.41968 16.1216 4.52918 16.3118C4.63868 16.5019 4.86589 16.5944 5.07777 16.5337L5.86585 16.3081C6.11336 16.6598 6.38625 16.9925 6.6891 17.2961L6.33241 18.0286C6.23566 18.2269 6.28745 18.4654 6.45545 18.6064C6.62345 18.7478 6.86728 18.7571 7.04578 18.6277L7.70863 18.1465C8.05842 18.3911 8.43121 18.6029 8.82118 18.7859L8.73621 19.6033C8.71334 19.8226 8.84344 20.03 9.04969 20.105C9.25594 20.18 9.48882 20.1052 9.61219 19.9226L10.0722 19.2407C10.4816 19.3495 10.9018 19.4312 11.3356 19.4692L11.5333 20.261C11.587 20.4747 11.7798 20.625 11.9992 20.625C12.2185 20.625 12.4113 20.4747 12.465 20.261L12.6627 19.4692C13.0965 19.4312 13.5167 19.3495 13.9262 19.2407L14.3861 19.9226C14.5095 20.1052 14.7424 20.18 14.9486 20.105C15.1549 20.0296 15.285 19.8226 15.2621 19.6033L15.1771 18.7859C15.5666 18.6031 15.9388 18.3915 16.2882 18.1472L16.9518 18.6284C17.1299 18.7578 17.3749 18.7482 17.5429 18.6072C17.7109 18.4662 17.7623 18.2273 17.6659 18.0293L17.3092 17.2961C17.6118 16.9927 17.8844 16.6602 18.1317 16.3088L18.9205 16.5344C19.1324 16.5952 19.3592 16.5026 19.4691 16.3125C19.579 16.1224 19.545 15.8807 19.3864 15.7273L18.796 15.156C18.9752 14.7708 19.1217 14.3685 19.234 13.9512L20.0543 13.8933C20.2741 13.8779 20.4548 13.7138 20.493 13.4978C20.5309 13.2818 20.4168 13.0652 20.2155 12.9756L19.4699 12.6431C19.4879 12.4309 19.4992 12.2168 19.4992 12C19.4992 11.7832 19.4879 11.5691 19.4699 11.3569L20.2147 11.0244C20.4161 10.9348 20.5306 10.7182 20.4923 10.5022C20.4544 10.2862 20.2733 10.1221 20.0536 10.1067L19.234 10.0488C19.1217 9.6314 18.9745 9.22926 18.7953 8.84399L19.3864 8.27271C19.545 8.11971 19.5783 7.87762 19.4684 7.6875C19.3589 7.49738 19.1324 7.40483 18.9205 7.46558L18.1317 7.69116C17.8844 7.33978 17.6118 7.00726 17.3092 6.70386L17.6659 5.97144C17.7627 5.77306 17.7109 5.53455 17.5429 5.39355C17.3749 5.25218 17.1303 5.24294 16.9518 5.37231L16.2889 5.85352C15.9393 5.60901 15.5669 5.397 15.1771 5.21411L15.2621 4.39673C15.285 4.17735 15.1549 3.97002 14.9486 3.89502C14.7424 3.82002 14.5095 3.89477 14.3861 4.07739L13.9262 4.75928C13.5167 4.65054 13.0965 4.56882 12.6627 4.53076L12.465 3.73901C12.4113 3.52526 12.2185 3.375 11.9992 3.375ZM11.2492 6.05127V9.88037C10.3757 10.1894 9.74915 11.0205 9.74915 12C9.74915 12.1403 9.7634 12.277 9.78797 12.4102L6.4679 14.3276C6.16639 13.6119 5.99915 12.8254 5.99915 12C5.99915 8.94061 8.28998 6.42094 11.2492 6.05127ZM12.7492 6.05127C15.7083 6.42094 17.9992 8.94061 17.9992 12C17.9992 12.8254 17.8319 13.6119 17.5304 14.3276L14.2103 12.4102C14.2349 12.277 14.2492 12.1403 14.2492 12C14.2492 11.0205 13.6227 10.1894 12.7492 9.88037V6.05127ZM11.9992 11.25C12.4135 11.25 12.7492 11.5856 12.7492 12C12.7492 12.4144 12.4135 12.75 11.9992 12.75C11.5848 12.75 11.2492 12.4144 11.2492 12C11.2492 11.5856 11.5848 11.25 11.9992 11.25ZM10.538 13.7095C10.9312 14.046 11.4409 14.25 11.9992 14.25C12.5574 14.25 13.0671 14.046 13.4603 13.7095L16.7738 15.6226C15.678 17.0646 13.9502 18 11.9992 18C10.0482 18 8.32029 17.0646 7.2245 15.6226L10.538 13.7095Z" fill="#424D5C"/>
</svg>
