<svg width="24" height="24" viewBox="0 0 24 24" fill="none" xmlns="http://www.w3.org/2000/svg">
<path d="M19.125 20.25H16.125C15.711 20.25 15.375 19.914 15.375 19.5V5.625C15.375 5.211 15.711 4.875 16.125 4.875H19.125C19.539 4.875 19.875 5.211 19.875 5.625V19.5C19.875 19.914 19.539 20.25 19.125 20.25ZM16.875 18.75H18.375V6.375H16.875V18.75ZM13.5 20.25H10.5C10.086 20.25 9.75 19.914 9.75 19.5V11.25C9.75 10.836 10.086 10.5 10.5 10.5H13.5C13.914 10.5 14.25 10.836 14.25 11.25V19.5C14.25 19.914 13.914 20.25 13.5 20.25ZM11.25 18.75H12.75V12H11.25V18.75ZM7.875 20.25H4.875C4.461 20.25 4.125 19.914 4.125 19.5V9.375C4.125 8.961 4.461 8.625 4.875 8.625H7.875C8.289 8.625 8.625 8.961 8.625 9.375V19.5C8.625 19.914 8.289 20.25 7.875 20.25ZM5.625 18.75H7.125V10.125H5.625V18.75Z" fill="#424D5C"/>
</svg>
