<svg width="24" height="24" viewBox="0 0 24 24" fill="none" xmlns="http://www.w3.org/2000/svg">
<path d="M7.5 4.125C6.25725 4.125 5.25 5.13225 5.25 6.375V17.625C5.25 18.8678 6.25725 19.875 7.5 19.875H18C18.4144 19.875 18.75 19.5394 18.75 19.125C18.75 18.8344 18.5835 18.5853 18.342 18.4607L18.3442 18.4592C18.3442 18.4592 17.625 18.1671 17.625 17.4434C17.625 16.7331 18.0747 16.4421 18.0747 16.4421L18.063 16.4392C18.479 16.0953 18.75 15.5818 18.75 15V6.375C18.75 5.13225 17.7428 4.125 16.5 4.125H7.5ZM8.25 5.625H16.5C16.9144 5.625 17.25 5.96062 17.25 6.375V14.625C17.25 15.0394 16.9144 15.375 16.5 15.375H8.25V5.625ZM12.7566 7.50513C12.025 7.50513 11.4316 8.15893 11.4316 8.96631C11.4316 9.77368 12.0253 10.4282 12.7566 10.4282C13.4882 10.4282 14.0808 9.77368 14.0808 8.96631C14.0808 8.15893 13.4882 7.50513 12.7566 7.50513ZM12.75 11.0391C12.1065 11.0391 11.4534 11.1781 10.7769 11.6682C10.463 11.8955 9.91333 12.4612 9.91333 13.1118C9.91333 13.4624 10.2729 13.5044 10.385 13.5044H15.115C15.2271 13.5044 15.5867 13.4624 15.5867 13.1118C15.5867 12.4612 15.0366 11.8955 14.7231 11.6682C14.0466 11.1781 13.3935 11.0391 12.75 11.0391ZM7.5 16.875H16.2612C16.1815 17.0767 16.125 17.3215 16.125 17.625C16.125 17.9271 16.2232 18.1721 16.3601 18.375H7.5C7.08562 18.375 6.75 18.0394 6.75 17.625C6.75 17.2106 7.08562 16.875 7.5 16.875Z" fill="#424D5C"/>
</svg>
