<svg width="100" height="100" viewBox="0 0 100 100" fill="none" xmlns="http://www.w3.org/2000/svg">
<path d="M18.75 18.75C14.4359 18.75 10.9375 22.2484 10.9375 26.5625V29.6875H76.5625V26.5625C76.5625 22.2484 73.0641 18.75 68.75 18.75H18.75ZM81.25 32.8125V43.75H90.625V40.625C90.625 36.3109 87.1266 32.8125 82.8125 32.8125H81.25ZM10.9375 37.5V60.9375C10.9375 65.2516 14.4359 68.75 18.75 68.75H68.75C73.0641 68.75 76.5625 65.2516 76.5625 60.9375V37.5H10.9375ZM81.25 51.5625V60.9375C81.25 67.8406 75.6531 73.4375 68.75 73.4375H25V75C25 79.3141 28.4984 82.8125 32.8125 82.8125H82.8125C87.1266 82.8125 90.625 79.3141 90.625 75V51.5625H81.25Z" fill="#0F172A"/>
</svg>
