<svg width="24" height="24" viewBox="0 0 24 24" fill="none" xmlns="http://www.w3.org/2000/svg">
<path d="M6 4.875C4.75912 4.875 3.75 5.88412 3.75 7.125V16.875C3.75 18.1159 4.75912 19.125 6 19.125H18C19.2409 19.125 20.25 18.1159 20.25 16.875V7.125C20.25 5.88412 19.2409 4.875 18 4.875H6ZM6.5625 6C6.873 6 7.125 6.252 7.125 6.5625C7.125 6.873 6.873 7.125 6.5625 7.125C6.252 7.125 6 6.873 6 6.5625C6 6.252 6.252 6 6.5625 6ZM8.4375 6C8.748 6 9 6.252 9 6.5625C9 6.873 8.748 7.125 8.4375 7.125C8.127 7.125 7.875 6.873 7.875 6.5625C7.875 6.252 8.127 6 8.4375 6ZM10.6875 6H17.4375C17.748 6 18 6.252 18 6.5625C18 6.873 17.748 7.125 17.4375 7.125H10.6875C10.377 7.125 10.125 6.873 10.125 6.5625C10.125 6.252 10.377 6 10.6875 6ZM6 8.25H18C18.414 8.25 18.75 8.58562 18.75 9V9.375V16.875C18.75 17.2886 18.4136 17.625 18 17.625H6C5.58637 17.625 5.25 17.2886 5.25 16.875V9.375V9C5.25 8.58562 5.586 8.25 6 8.25ZM7.125 9.75C6.918 9.75 6.75 9.918 6.75 10.125V15.75C6.75 15.957 6.918 16.125 7.125 16.125H10.5C10.707 16.125 10.875 15.957 10.875 15.75V10.125C10.875 9.918 10.707 9.75 10.5 9.75H7.125ZM12.9375 11.25C12.627 11.25 12.375 11.5016 12.375 11.8125C12.375 12.1234 12.627 12.375 12.9375 12.375H16.6875C16.998 12.375 17.25 12.1234 17.25 11.8125C17.25 11.5016 16.998 11.25 16.6875 11.25H12.9375ZM12.9375 13.5C12.627 13.5 12.375 13.7516 12.375 14.0625C12.375 14.3734 12.627 14.625 12.9375 14.625H15.1875C15.498 14.625 15.75 14.3734 15.75 14.0625C15.75 13.7516 15.498 13.5 15.1875 13.5H12.9375Z" fill="#0F172A"/>
</svg>
