<svg width="100" height="100" viewBox="0 0 100 100" fill="none" xmlns="http://www.w3.org/2000/svg">
<path d="M50 15.625C68.9844 15.625 84.375 31.0156 84.375 50C84.375 68.9844 68.9844 84.375 50 84.375C31.0156 84.375 15.625 68.9844 15.625 50C15.625 31.0156 31.0156 15.625 50 15.625ZM49.2125 67.1984C51.6625 67.1984 53.1281 65.2813 53.1281 63.4516C53.1281 61.6219 51.6094 59.7047 49.2125 59.7047C46.8156 59.7047 45.2953 61.7313 45.2953 63.4516C45.2953 65.1719 46.7625 67.1984 49.2125 67.1984ZM52.3625 54.0438C52.3625 48.8625 61.4297 49.3906 61.4297 41.1C61.4297 36.9375 57.6109 32.5453 50.4047 32.5453C44.7969 32.5453 39.2938 35.4844 39.2938 39.9094C39.2938 40.7328 39.8078 42.4641 41.8906 42.4641C43.0234 42.4641 43.7672 42.0047 44.4047 41.3703C45.8297 39.9516 46.7141 37.6531 50.1922 37.6531C51.5828 37.6531 54.7891 38.3578 54.7891 41.6969C54.7891 46.7469 46.275 46.5484 46.275 53.7437C46.275 55.9953 47.2594 56.9797 49.2969 56.9797C52.525 56.9812 52.3625 54.3375 52.3625 54.0438Z" fill="#0F172A"/>
</svg>
