<svg width="24" height="24" viewBox="0 0 24 24" fill="none" xmlns="http://www.w3.org/2000/svg">
<path d="M7.5 3.75C6.25912 3.75 5.25 4.75912 5.25 6C5.25 7.24088 6.25912 8.25 7.5 8.25C7.69954 8.25 7.89209 8.22132 8.07642 8.17236L9.33545 9.93604C8.96418 10.4141 8.71732 10.9927 8.64697 11.625H6.9939C6.68417 10.7523 5.85268 10.125 4.875 10.125C3.63412 10.125 2.625 11.1341 2.625 12.375C2.625 13.6159 3.63412 14.625 4.875 14.625C5.85268 14.625 6.68417 13.9977 6.9939 13.125H8.82202C9.01828 13.6776 9.35301 14.1634 9.78662 14.5415L9.3208 15.4006C9.21574 15.3855 9.10918 15.375 9 15.375C7.75912 15.375 6.75 16.3841 6.75 17.625C6.75 18.8659 7.75912 19.875 9 19.875C10.2409 19.875 11.25 18.8659 11.25 17.625C11.25 17.0358 11.0205 16.5008 10.6487 16.0994L11.1086 15.2512C11.3931 15.3293 11.6911 15.375 12 15.375C12.8174 15.375 13.568 15.0824 14.1526 14.5972L15.4731 15.4688C15.4097 15.6765 15.375 15.8968 15.375 16.125C15.375 17.3659 16.3841 18.375 17.625 18.375C18.8659 18.375 19.875 17.3659 19.875 16.125C19.875 14.8841 18.8659 13.875 17.625 13.875C17.1589 13.875 16.7255 14.0175 16.366 14.261L15.0652 13.4033C15.2619 12.9753 15.375 12.501 15.375 12C15.375 11.236 15.1169 10.5331 14.6873 9.9668L16.0371 8.46167C16.2963 8.56608 16.5788 8.625 16.875 8.625C18.1159 8.625 19.125 7.61588 19.125 6.375C19.125 5.13412 18.1159 4.125 16.875 4.125C15.6341 4.125 14.625 5.13412 14.625 6.375C14.625 6.77263 14.7297 7.14552 14.9114 7.46997L13.5396 9C13.0774 8.76187 12.5547 8.625 12 8.625C11.4603 8.625 10.9514 8.75547 10.4985 8.98169L9.31494 7.32495C9.58732 6.95283 9.75 6.49556 9.75 6C9.75 4.75912 8.74088 3.75 7.5 3.75ZM7.5 5.25C7.91363 5.25 8.25 5.58637 8.25 6C8.25 6.41363 7.91363 6.75 7.5 6.75C7.08637 6.75 6.75 6.41363 6.75 6C6.75 5.58637 7.08637 5.25 7.5 5.25ZM16.875 5.625C17.2886 5.625 17.625 5.96137 17.625 6.375C17.625 6.78863 17.2886 7.125 16.875 7.125C16.4614 7.125 16.125 6.78863 16.125 6.375C16.125 5.96137 16.4614 5.625 16.875 5.625ZM12 10.125C13.0339 10.125 13.875 10.9661 13.875 12C13.875 13.0339 13.0339 13.875 12 13.875C10.9661 13.875 10.125 13.0339 10.125 12C10.125 10.9661 10.9661 10.125 12 10.125ZM4.875 11.625C5.28863 11.625 5.625 11.9614 5.625 12.375C5.625 12.7886 5.28863 13.125 4.875 13.125C4.46137 13.125 4.125 12.7886 4.125 12.375C4.125 11.9614 4.46137 11.625 4.875 11.625ZM17.625 15.375C18.0386 15.375 18.375 15.7114 18.375 16.125C18.375 16.5386 18.0386 16.875 17.625 16.875C17.2114 16.875 16.875 16.5386 16.875 16.125C16.875 15.7114 17.2114 15.375 17.625 15.375ZM9 16.875C9.41363 16.875 9.75 17.2114 9.75 17.625C9.75 18.0386 9.41363 18.375 9 18.375C8.58637 18.375 8.25 18.0386 8.25 17.625C8.25 17.2114 8.58637 16.875 9 16.875Z" fill="#424D5C"/>
</svg>
