<svg width="100" height="100" viewBox="0 0 100 100" fill="none" xmlns="http://www.w3.org/2000/svg">
<path d="M31.25 15.625C26.0797 15.625 21.875 19.8297 21.875 25C21.875 30.1703 26.0797 34.375 31.25 34.375C32.0814 34.375 32.8837 34.2555 33.6517 34.0515L38.8977 41.4001C37.3507 43.3922 36.3222 45.803 36.0291 48.4375H29.1412C27.8507 44.8014 24.3862 42.1875 20.3125 42.1875C15.1422 42.1875 10.9375 46.3922 10.9375 51.5625C10.9375 56.7328 15.1422 60.9375 20.3125 60.9375C24.3862 60.9375 27.8507 58.3236 29.1412 54.6875H36.7584C37.5762 56.9901 38.9709 59.0143 40.7776 60.5896L38.8367 64.1693C38.3989 64.1064 37.9549 64.0625 37.5 64.0625C32.3297 64.0625 28.125 68.2672 28.125 73.4375C28.125 78.6078 32.3297 82.8125 37.5 82.8125C42.6703 82.8125 46.875 78.6078 46.875 73.4375C46.875 70.9825 45.9187 68.7535 44.3695 67.0807L46.286 63.5468C47.4711 63.8721 48.713 64.0625 50 64.0625C53.4059 64.0625 56.5333 62.8435 58.9691 60.8215L64.4714 64.4531C64.2071 65.3185 64.0625 66.2366 64.0625 67.1875C64.0625 72.3578 68.2672 76.5625 73.4375 76.5625C78.6078 76.5625 82.8125 72.3578 82.8125 67.1875C82.8125 62.0172 78.6078 57.8125 73.4375 57.8125C71.4956 57.8125 69.6894 58.4061 68.1915 59.4208L62.7716 55.8472C63.5913 54.0639 64.0625 52.0875 64.0625 50C64.0625 46.8167 62.9872 43.8881 61.1969 41.5283L66.8213 35.257C67.9013 35.692 69.0784 35.9375 70.3125 35.9375C75.4828 35.9375 79.6875 31.7328 79.6875 26.5625C79.6875 21.3922 75.4828 17.1875 70.3125 17.1875C65.1422 17.1875 60.9375 21.3922 60.9375 26.5625C60.9375 28.2193 61.3738 29.773 62.1307 31.1249L56.4148 37.5C54.4892 36.5078 52.3114 35.9375 50 35.9375C47.7511 35.9375 45.6308 36.4811 43.7439 37.4237L38.8123 30.5206C39.9472 28.9701 40.625 27.0648 40.625 25C40.625 19.8297 36.4203 15.625 31.25 15.625Z" fill="#0F172A"/>
</svg>
