<svg width="24" height="24" viewBox="0 0 24 24" fill="none" xmlns="http://www.w3.org/2000/svg">
<path d="M11.9995 3.375C9.05239 3.375 6.45054 4.86337 4.89429 7.125H6.82056C8.11993 5.7435 9.95764 4.875 11.9995 4.875C15.9284 4.875 19.1245 8.07113 19.1245 12C19.1245 15.9289 15.9284 19.125 11.9995 19.125C9.95764 19.125 8.11993 18.2565 6.82056 16.875H4.89429C6.45054 19.1366 9.05239 20.625 11.9995 20.625C16.7556 20.625 20.6245 16.7557 20.6245 12C20.6245 7.24425 16.7556 3.375 11.9995 3.375ZM6.37451 8.625C6.18326 8.625 5.99231 8.69703 5.84644 8.84253L3.20239 11.4675C3.06064 11.6082 2.98047 11.8001 2.98047 12C2.98047 12.1999 3.06064 12.3915 3.20239 12.5325L5.84644 15.1575C6.14044 15.4496 6.61598 15.4478 6.90698 15.1538C7.19873 14.8598 7.19659 14.3843 6.90259 14.0925L5.55054 12.75H11.2495C11.6635 12.75 11.9995 12.414 11.9995 12C11.9995 11.586 11.6635 11.25 11.2495 11.25H5.55054L6.90259 9.90747C7.19659 9.61535 7.19873 9.14092 6.90698 8.84692C6.76036 8.69917 6.56764 8.625 6.37451 8.625Z" fill="#F91616"/>
</svg>
