<svg width="100" height="100" viewBox="0 0 100 100" fill="none" xmlns="http://www.w3.org/2000/svg">
<path d="M50 12.5C48.5762 12.5 47.1532 12.9831 45.993 13.9526L13.7512 40.8936C12.5559 41.892 12.1304 43.6331 12.9242 44.9738C13.9351 46.68 16.1723 47.0134 17.6269 45.7977L49.4965 19.1711C49.7886 18.9274 50.2113 18.9274 50.5035 19.1711L82.373 45.8008C82.9574 46.2898 83.6657 46.5271 84.3719 46.5271C85.4579 46.5271 86.5354 45.9635 87.1307 44.8792C87.8573 43.5542 87.4295 41.8806 86.2701 40.9119L81.25 36.7157V23.4375C81.25 21.7109 79.8516 20.3125 78.125 20.3125H75C73.2734 20.3125 71.875 21.7109 71.875 23.4375V28.8818L54.007 13.9526C52.8468 12.9831 51.4238 12.5 50 12.5ZM50 25L18.75 51.1108V73.4375C18.75 77.75 22.25 81.25 26.5625 81.25H39.0625C41.6562 81.25 43.75 79.1562 43.75 76.5625V60.9375C43.75 59.2187 45.1562 57.8125 46.875 57.8125H53.125C54.8437 57.8125 56.25 59.2187 56.25 60.9375V76.5625C56.25 79.1562 58.3437 81.25 60.9375 81.25H73.4375C77.75 81.25 81.25 77.75 81.25 73.4375V51.1108L50 25Z" fill="#0F172A"/>
</svg>
