<svg width="100" height="100" viewBox="0 0 100 100" fill="none" xmlns="http://www.w3.org/2000/svg">
<path d="M81.7797 43.7859C83.2797 44.0438 84.375 45.3437 84.375 46.8656V53.1344C84.375 54.6563 83.2797 55.9563 81.7797 56.2141L76.3672 57.1453C75.75 59.4281 74.8531 61.5922 73.7 63.5969L76.8656 68.0781C77.7438 69.3203 77.5984 71.0156 76.5234 72.0906L72.0906 76.5234C71.0141 77.6 69.3203 77.7438 68.0781 76.8656L63.5969 73.7016C61.5922 74.8547 59.4281 75.75 57.1453 76.3687L56.2141 81.7813C55.9563 83.2797 54.6563 84.375 53.1344 84.375H46.8656C45.3437 84.375 44.0438 83.2797 43.7859 81.7797L42.8547 76.3672C40.5719 75.75 38.4078 74.8531 36.4031 73.7L31.9219 76.8641C30.6797 77.7422 28.9844 77.5969 27.9094 76.5219L23.4766 72.0891C22.4016 71.0125 22.2562 69.3188 23.1344 68.0766L26.3 63.5953C25.1469 61.5906 24.25 59.4266 23.6328 57.1437L18.2203 56.2125C16.7203 55.9563 15.625 54.6563 15.625 53.1344V46.8656C15.625 45.3437 16.7203 44.0438 18.2203 43.7859L23.6328 42.8547C24.25 40.5719 25.1469 38.4078 26.3 36.4031L23.1344 31.9219C22.2562 30.6797 22.4016 28.9844 23.4766 27.9094L27.9094 23.4766C28.9859 22.4016 30.6797 22.2562 31.9219 23.1344L36.4031 26.3C38.4078 25.1469 40.5719 24.2516 42.8547 23.6328L43.7859 18.2203C44.0438 16.7203 45.3437 15.625 46.8656 15.625H53.1344C54.6563 15.625 55.9563 16.7203 56.2141 18.2203L57.1453 23.6328C59.4281 24.25 61.5922 25.1469 63.5969 26.3L68.0781 23.1344C69.3203 22.2562 71.0156 22.4016 72.0906 23.4766L76.5234 27.9094C77.5984 28.9844 77.7438 30.6797 76.8656 31.9219L73.7 36.4031C74.8531 38.4078 75.75 40.5719 76.3672 42.8547L81.7797 43.7859ZM50 62.5C56.9031 62.5 62.5 56.9031 62.5 50C62.5 43.0969 56.9031 37.5 50 37.5C43.0969 37.5 37.5 43.0969 37.5 50C37.5 56.9031 43.0969 62.5 50 62.5Z" fill="#0F172A"/>
</svg>
