<svg width="40" height="40" viewBox="0 0 40 40" fill="none" xmlns="http://www.w3.org/2000/svg">
<path d="M19.9976 1.85547C18.6451 1.85547 17.3409 2.05024 16.084 2.43774C14.8277 2.82587 13.6826 3.35522 12.6501 4.0271C11.6176 4.69897 10.7641 5.46041 10.0879 6.31104C10.0291 6.39354 10 6.48036 10 6.57349C10 6.66661 10.0396 6.75466 10.1196 6.83716L11.355 8.10303C11.4356 8.20053 11.5353 8.24716 11.6528 8.24341C11.7703 8.23966 11.8735 8.18892 11.9617 8.09204C13.0198 6.94267 14.2336 6.07277 15.6042 5.4834C16.9749 4.89402 18.4388 4.59961 19.9963 4.59961C21.5695 4.59961 23.041 4.89873 24.4116 5.49561C25.7816 6.09248 27.0002 6.96115 28.0652 8.10303C28.1464 8.1849 28.2426 8.22632 28.3569 8.22632C28.4713 8.22632 28.5687 8.17793 28.6499 8.08106L29.8853 6.83716C29.9584 6.75528 29.9969 6.66783 30 6.57471C30.0038 6.48096 29.9735 6.39413 29.9072 6.31226C29.231 5.46101 28.3762 4.69897 27.3438 4.0271C26.3113 3.35522 25.1674 2.82587 23.9111 2.43774C22.6543 2.04962 21.3501 1.85547 19.9976 1.85547ZM19.9963 6.97144C19.0851 6.97144 18.2211 7.09854 17.4011 7.35229C16.5817 7.60604 15.8407 7.94944 15.1794 8.38257C14.5176 8.81507 13.9672 9.30363 13.5266 9.84863C13.4604 9.93051 13.4289 10.0192 13.4326 10.1123C13.4364 10.2054 13.4789 10.2929 13.5596 10.3748L14.9377 11.7627C15.0334 11.8671 15.1377 11.9131 15.2515 11.9019C15.3652 11.8906 15.4696 11.8329 15.5652 11.7285C16.0721 11.146 16.721 10.665 17.511 10.2844C18.301 9.9038 19.1295 9.71784 19.9963 9.72534C20.8782 9.71784 21.7155 9.90964 22.5049 10.3015C23.2949 10.6934 23.9496 11.1802 24.4714 11.7627C24.5596 11.8602 24.6575 11.9092 24.7644 11.9092C24.8713 11.9092 24.9715 11.8561 25.0671 11.7517L26.4453 10.3748C26.5184 10.3004 26.5569 10.2141 26.5601 10.1172C26.5638 10.0203 26.537 9.93051 26.4783 9.84863C26.0376 9.30426 25.4855 8.81569 24.8242 8.38257C24.163 7.94944 23.4231 7.60604 22.6038 7.35229C21.785 7.09854 20.9151 6.97144 19.9963 6.97144ZM10 9.375V33.75C10 35.8187 11.6813 37.5 13.75 37.5H26.25C28.3187 37.5 30 35.8187 30 33.75V9.375L27.5 11.875V31.25H12.5V11.875L10 9.375ZM19.9976 12.0984C19.3582 12.0984 18.781 12.247 18.2666 12.5452C17.7522 12.8439 17.3523 13.1908 17.0654 13.5864C17.0217 13.6533 17.0088 13.7273 17.0276 13.8098C17.0463 13.8923 17.0924 13.9675 17.1655 14.0344L19.27 16.106C19.4463 16.2703 19.5856 16.384 19.6887 16.4478C19.7918 16.5115 19.8944 16.543 19.9976 16.543C20.1007 16.543 20.2021 16.5139 20.3052 16.4539C20.4083 16.3939 20.5476 16.2791 20.7239 16.1072L22.8516 14.0344C22.9178 13.9669 22.9593 13.8859 22.9736 13.7891C22.9886 13.6922 22.9611 13.6024 22.8955 13.5205C22.6018 13.1399 22.2012 12.8069 21.6943 12.5232C21.1875 12.2394 20.6219 12.0984 19.9976 12.0984ZM20 33.125C20.6875 33.125 21.25 33.6875 21.25 34.375C21.25 35.0625 20.6875 35.625 20 35.625C19.3125 35.625 18.75 35.0625 18.75 34.375C18.75 33.6875 19.3125 33.125 20 33.125Z" fill="#0F172A"/>
</svg>
