<svg xmlns="http://www.w3.org/2000/svg"  viewBox="0 0 72 72" width="64px" height="64px"><path d="M54,17c3.86,0,7,3.14,7,7v24c0,3.86-3.14,7-7,7h-4v-1c0-1.66-1.34-3-3-3s-3,1.34-3,3v1H28v-1c0-1.66-1.34-3-3-3s-3,1.34-3,3	v1h-4c-3.86,0-7-3.14-7-7V20c0-3.86,3.14-7,7-7h14c2.79,0,5.2,1.64,6.32,4H54z M33.92,42c0.257,0,1.08-0.097,1.08-0.9	c0-1.491-1.259-2.787-1.978-3.308c-1.55-1.123-3.047-1.442-4.522-1.442s-2.971,0.318-4.522,1.442C23.259,38.313,22,39.609,22,41.1	c0,0.803,0.823,0.9,1.08,0.9S33.663,42,33.92,42z M28.515,34.95c1.676,0,3.035-1.5,3.035-3.35s-1.359-3.35-3.035-3.35	s-3.035,1.5-3.035,3.35S26.839,34.95,28.515,34.95z M47,41c1.104,0,2-0.896,2-2s-0.896-2-2-2h-6c-1.104,0-2,0.896-2,2s0.896,2,2,2	H47z M47,34c1.104,0,2-0.896,2-2s-0.896-2-2-2h-6c-1.104,0-2,0.896-2,2s0.896,2,2,2H47z"/></svg>