<svg xmlns="http://www.w3.org/2000/svg"  viewBox="0 0 64 64" width="48px" height="48px"><path d="M 24 11 C 21.24 11 19 13.24 19 16 L 19 22 L 16 22 C 13.24 22 11 24.24 11 27 L 11 45 C 11 48.31 13.69 51 17 51 L 34.070312 51 C 34.220313 49.6 34.570078 48.25 35.080078 47 L 22.660156 47 C 22.880156 46.37 23 45.7 23 45 L 23 16 C 23 15.45 23.45 15 24 15 L 48 15 C 48.55 15 49 15.45 49 16 L 49 38.009766 C 50.39 38.059766 51.74 38.300703 53 38.720703 L 53 16 C 53 13.24 50.76 11 48 11 L 24 11 z M 28 19 C 26.896 19 26 19.895 26 21 C 26 22.105 26.896 23 28 23 L 44 23 C 45.104 23 46 22.105 46 21 C 46 19.895 45.104 19 44 19 L 28 19 z M 16 26 L 19 26 L 19 45 C 19 46.1 18.1 47 17 47 C 15.9 47 15 46.1 15 45 L 15 27 C 15 26.45 15.45 26 16 26 z M 28 26 C 26.896 26 26 26.895 26 28 C 26 29.105 26.896 30 28 30 L 44 30 C 45.104 30 46 29.105 46 28 C 46 26.895 45.104 26 44 26 L 28 26 z M 28 33 C 26.895 33 26 33.895 26 35 L 26 41 C 26 42.105 26.895 43 28 43 L 34 43 C 35.105 43 36 42.105 36 41 L 36 35 C 36 33.895 35.105 33 34 33 L 28 33 z M 40 33 C 38.896 33 38 33.895 38 35 C 38 36.105 38.896 37 40 37 L 44 37 C 45.104 37 46 36.105 46 35 C 46 33.895 45.104 33 44 33 L 40 33 z M 48.5 41 C 42.149 41 37 46.149 37 52.5 C 37 58.851 42.149 64 48.5 64 C 54.851 64 60 58.851 60 52.5 C 60 46.149 54.851 41 48.5 41 z M 48.484375 45.761719 C 50.388375 45.761719 52.155297 46.581063 53.404297 47.914062 L 53.910156 47.572266 C 54.771156 46.992266 55.9315 47.604578 55.9375 48.642578 L 55.953125 51.472656 C 55.958125 52.400656 55.018156 53.035594 54.160156 52.683594 L 51.541016 51.607422 C 50.580016 51.213422 50.445641 49.909125 51.306641 49.328125 L 51.712891 49.054688 C 50.852891 48.253687 49.712375 47.761719 48.484375 47.761719 C 45.872375 47.761719 43.748047 49.886047 43.748047 52.498047 C 43.748047 55.110047 45.872375 57.236328 48.484375 57.236328 C 50.076375 57.236328 51.553547 56.443234 52.435547 55.115234 C 52.740547 54.654234 53.359313 54.528937 53.820312 54.835938 C 54.280313 55.140938 54.407562 55.760703 54.101562 56.220703 C 52.848562 58.108703 50.748375 59.236328 48.484375 59.236328 C 44.769375 59.236328 41.748047 56.213047 41.748047 52.498047 C 41.748047 48.783047 44.769375 45.761719 48.484375 45.761719 z"/></svg>