<svg width="30" height="30" viewBox="0 0 30 30" fill="none" xmlns="http://www.w3.org/2000/svg">
<path d="M12.168 4C10.6047 4 9.33471 5.27 9.33471 6.83334C9.33471 7.84667 9.87122 8.74024 10.6746 9.24024V7.17969C10.6746 6.23969 11.2645 5.3698 12.2045 5.3698C13.0478 5.3698 13.6615 6.03003 13.6648 6.94336V9.23699C14.4681 8.73699 15.0014 7.84667 15.0014 6.83334C15.0014 5.27 13.7314 4 12.168 4ZM12.1081 5.70639C11.3881 5.75972 11.0079 6.50636 11.0079 7.17969L11.0014 17.8334C11.0014 17.9267 10.928 18 10.8347 18C10.7414 18 10.668 17.9267 10.668 17.8334V13.1335L9.66153 13.5267C8.18486 14.1034 7.41452 15.7264 7.89785 17.2331C8.16785 18.0864 8.48785 19.0368 8.81452 19.9134C9.70119 22.2901 11.5515 23.3634 12.6648 23.8034C16.4281 25.2834 19.8083 23.267 21.0183 20.517C21.7716 18.8136 21.6511 16.9834 21.6511 15.75C21.6511 11.557 19.5158 12.0192 19.4148 12.0469C19.2048 12.1036 19.0047 12.2368 19.0014 12.4668V14.5C19.0014 14.5934 18.9281 14.6667 18.8347 14.6667C18.7414 14.6667 18.6681 14.5934 18.6681 14.5V12.0964C18.6681 11.0964 17.7247 10.6667 16.9181 10.6667C16.5481 10.6667 16.3347 10.9735 16.3347 11.4102V14.1667C16.3347 14.26 16.2614 14.3334 16.1681 14.3334C16.0747 14.3334 16.0014 14.26 16.0014 14.1667V11.0964C16.0014 10.0964 15.058 9.66668 14.2514 9.66668C13.8814 9.66668 13.668 9.97351 13.668 10.4102V13.5C13.668 13.5934 13.5947 13.6667 13.5014 13.6667C13.408 13.6667 13.3347 13.5934 13.3347 13.5L13.3315 6.94337C13.3281 6.18671 12.8281 5.65305 12.1081 5.70639Z" fill="black"/>
</svg>
