<svg width="40" height="40" viewBox="0 0 40 40" fill="none" xmlns="http://www.w3.org/2000/svg">
<path d="M14.6875 10.625C13.2438 10.625 12.0645 11.7227 11.9067 13.125H4.0625C2.50938 13.125 1.25 14.3844 1.25 15.9375V26.5625C1.25 28.1156 2.50938 29.375 4.0625 29.375H11.9067C12.0645 30.7773 13.2438 31.875 14.6875 31.875H25.3125C26.7562 31.875 27.9355 30.7773 28.0933 29.375H35.9375C37.4906 29.375 38.75 28.1156 38.75 26.5625V15.9375C38.75 14.3844 37.4906 13.125 35.9375 13.125H28.0933C27.9355 11.7227 26.7562 10.625 25.3125 10.625H14.6875ZM14.6875 13.125H25.3125C25.4844 13.125 25.625 13.265 25.625 13.4375V27.4084C24.6153 25.6138 22.4744 24.375 19.9902 24.375C17.5217 24.375 15.3925 25.5991 14.375 27.3755V13.4375C14.375 13.265 14.5156 13.125 14.6875 13.125ZM4.0625 15.625H11.875V25.1184C10.8785 24.2715 9.56886 23.75 8.125 23.75C6.35604 23.75 4.78306 24.5265 3.75 25.7361V15.9375C3.75 15.765 3.89 15.625 4.0625 15.625ZM28.125 15.625H35.9375C36.11 15.625 36.25 15.765 36.25 15.9375V25.7288C35.2169 24.5219 33.6418 23.75 31.875 23.75C30.4327 23.75 29.1212 24.2668 28.125 25.1123V15.625ZM20 16.25C18.2744 16.25 16.875 17.7887 16.875 19.6875C16.875 21.5863 18.2744 23.125 20 23.125C21.7256 23.125 23.125 21.5863 23.125 19.6875C23.125 17.7887 21.7256 16.25 20 16.25ZM8.125 17.3938C6.74437 17.3938 5.625 18.6134 5.625 20.1184C5.625 21.6234 6.74437 22.8442 8.125 22.8442C9.50563 22.8442 10.625 21.6234 10.625 20.1184C10.625 18.6134 9.50563 17.3938 8.125 17.3938ZM31.875 17.3938C30.4944 17.3938 29.375 18.6134 29.375 20.1184C29.375 21.6234 30.4944 22.8442 31.875 22.8442C33.2556 22.8442 34.375 21.6234 34.375 20.1184C34.375 18.6134 33.2556 17.3938 31.875 17.3938Z" fill="#0F172A"/>
</svg>
