<svg width="30" height="30" viewBox="0 0 30 30" fill="none" xmlns="http://www.w3.org/2000/svg">
<path fill-rule="evenodd" clip-rule="evenodd" d="M16.4062 23.7272L13.5938 24.1406V17.3438H11.7188V14.9864H13.5938C13.5938 14.9864 13.5938 13.7808 13.5938 12.5367C13.5938 11.8223 13.8773 11.1375 14.3827 10.6327C14.8875 10.1273 15.5723 9.84375 16.2867 9.84375H18.2812V11.7188C18.2812 11.7188 17.8936 11.7188 17.4703 11.7188C16.8825 11.7188 16.4062 12.195 16.4062 12.7828V15L19.2188 14.9864L18.2812 17.3438H16.4062V23.7272Z" fill="#0F172A"/>
<path d="M15 25.3125C9.31359 25.3125 4.6875 20.6864 4.6875 15C4.6875 9.31359 9.31359 4.6875 15 4.6875C20.6864 4.6875 25.3125 9.31359 25.3125 15C25.3125 20.6864 20.6864 25.3125 15 25.3125ZM15 6.5625C10.3477 6.5625 6.5625 10.3477 6.5625 15C6.5625 19.6523 10.3477 23.4375 15 23.4375C19.6523 23.4375 23.4375 19.6523 23.4375 15C23.4375 10.3477 19.6523 6.5625 15 6.5625Z" fill="#0F172A"/>
</svg>
