<svg width="30" height="30" viewBox="0 0 30 30" fill="none" xmlns="http://www.w3.org/2000/svg">
<path d="M11.1438 5.625C6.02599 5.625 5.625 6.02552 5.625 11.1438V18.8562C5.625 23.974 6.02599 24.375 11.1438 24.375H18.8562C23.974 24.375 24.375 23.9745 24.375 18.8562V11.1438C24.375 6.02552 23.9745 5.625 18.8562 5.625H11.1438ZM9.92249 7.5H20.0775C22.3242 7.5 22.5 7.67577 22.5 9.92249V20.0775C22.5 22.3242 22.3238 22.5 20.0775 22.5H9.92249C7.67577 22.5 7.5 22.3238 7.5 20.0775V9.92249C7.5 7.67577 7.67577 7.5 9.92249 7.5ZM10.5478 8.67371C9.7842 8.67371 9.16534 9.29258 9.16534 10.0552C9.16534 10.8179 9.78373 11.4377 10.5478 11.4377C11.3095 11.4377 11.9284 10.8184 11.9284 10.0552C11.9284 9.29352 11.3095 8.67371 10.5478 8.67371ZM17.7814 12.3386C16.6282 12.3386 15.8547 12.9713 15.5383 13.5709H15.5054V12.529H13.2321V20.1562H15.6006V16.3824C15.6006 15.3873 15.7909 14.4241 17.0242 14.4241C18.2402 14.4241 18.2556 15.5629 18.2556 16.4474V20.1562H20.625V15.9723C20.625 13.9182 20.1818 12.3386 17.7814 12.3386ZM9.36218 12.529V20.1562H11.7325V12.529H9.36218Z" fill="#0F172A"/>
</svg>
