<svg width="30" height="30" viewBox="0 0 30 30" fill="none" xmlns="http://www.w3.org/2000/svg">
<path d="M15 2.5C8.09625 2.5 2.5 8.09625 2.5 15C2.5 21.9037 8.09625 27.5 15 27.5C21.9037 27.5 27.5 21.9037 27.5 15C27.5 8.09625 21.9037 2.5 15 2.5Z" fill="url(#paint0_linear_2864_12)"/>
<path d="M16.6915 18.3134H19.9265L20.4346 15.0272H16.6915V13.2309C16.6915 11.8659 17.1377 10.6553 18.4146 10.6553H20.4665V7.78781C20.1059 7.73906 19.3434 7.63281 17.9027 7.63281C14.894 7.63281 13.1302 9.22156 13.1302 12.8416V15.0278H10.0371V18.3141H13.1296V27.3466C13.7421 27.4378 14.3627 27.5003 14.9996 27.5003C15.5752 27.5003 16.1371 27.4478 16.6915 27.3728V18.3134Z" fill="white"/>
<defs>
<linearGradient id="paint0_linear_2864_12" x1="6.24562" y1="6.24562" x2="25.3844" y2="25.3844" gradientUnits="userSpaceOnUse">
<stop stop-color="#2AA4F4"/>
<stop offset="1" stop-color="#007AD9"/>
</linearGradient>
</defs>
</svg>
