<svg width="30" height="30" viewBox="0 0 30 30" fill="none" xmlns="http://www.w3.org/2000/svg">
<path d="M23.91 18.0928C24.5733 18.5395 24.8836 19.3485 24.682 20.106C24.1134 22.2449 22.6054 23.1656 21.779 23.571C21.0942 23.9062 20.0644 23.8767 19.9444 23.8649C18.0187 23.6774 13.1081 22.7245 9.1242 17.9437C5.55466 13.6607 5.05873 10.101 5.08076 8.36057C5.09341 7.39026 5.46232 6.49026 6.11998 5.82604C6.74388 5.19557 7.56607 4.64854 8.14544 4.30073C8.98216 3.79776 10.0476 4.01667 10.6228 4.80886L13.4123 8.64417C13.9579 9.39557 13.8778 10.4165 13.2225 11.0728L12.3998 11.8949C12.2217 12.0731 12.2161 12.3595 12.3867 12.5446L16.1892 16.6631C16.3584 16.8464 16.642 16.8651 16.8337 16.7053L18.0553 15.6871C18.7158 15.1359 19.6622 15.104 20.3564 15.6098C20.9704 16.057 22.2501 16.9743 23.91 18.0928ZM20.1267 21.9989C21.0942 22.0312 22.3528 21.0628 22.7517 19.9973C22.83 19.7882 22.7583 19.5506 22.5722 19.4278C21.2494 18.5517 20.1909 17.8031 19.5445 17.3376C19.3706 17.2124 19.1372 17.2228 18.9726 17.3601L17.6915 18.4307C16.9237 19.071 15.7912 18.997 15.1129 18.262L10.7039 13.4854C10.0209 12.7457 10.0444 11.5987 10.7559 10.8871L11.6128 10.0307C11.7759 9.86761 11.7961 9.61026 11.6606 9.4237L9.36326 6.26526C9.21701 6.06417 8.94091 6.00979 8.73232 6.14479C8.30857 6.41854 7.0317 7.49995 6.95576 8.38448C6.88451 9.21136 7.07951 10.5384 7.7592 12.2137C8.2931 13.53 9.16357 15.0628 10.5642 16.7437C11.8237 18.255 13.1826 19.3349 14.4876 20.107C16.8497 21.5048 19.0294 21.9618 20.1267 21.9989Z" fill="#1A1A1A"/>
</svg>
