<svg width="30" height="30" viewBox="0 0 30 30" fill="none" xmlns="http://www.w3.org/2000/svg">
<path d="M8.125 26.25H21.875C24.2912 26.25 26.25 24.2912 26.25 21.875V8.125C26.25 5.70875 24.2912 3.75 21.875 3.75H8.125C5.70875 3.75 3.75 5.70875 3.75 8.125V21.875C3.75 24.2912 5.70875 26.25 8.125 26.25Z" fill="#00DF00"/>
<path d="M22.1559 19.4012L19.2734 17.4943C18.9215 17.2812 18.4815 17.2774 18.1259 17.4837C18.1259 17.4837 18.1259 17.4837 16.8896 18.2043C16.724 18.3006 16.5646 18.3187 16.4359 18.2949C16.2721 18.2649 16.1596 18.1756 16.1521 18.1693C15.4727 17.6712 14.679 17.0118 13.8327 16.1662C12.9871 15.3206 12.3277 14.5268 11.8296 13.8468C11.824 13.8387 11.734 13.7262 11.704 13.5631C11.6809 13.4343 11.6984 13.2756 11.7946 13.1093C12.5152 11.8731 12.5152 11.8731 12.5152 11.8731C12.7221 11.5174 12.7177 11.0768 12.5046 10.7256L10.5977 7.84306C10.3615 7.48619 9.87836 7.39181 9.52649 7.63556C9.52649 7.63556 8.62336 8.25369 8.32524 8.46369C7.84774 8.79994 7.69399 9.31119 7.69336 10.0237C7.69211 11.0262 8.55586 14.1668 12.194 17.8049C15.8327 21.4437 18.9727 22.3068 19.9752 22.3056C20.6877 22.3049 21.199 22.1506 21.5352 21.6737C21.7452 21.3756 22.3634 20.4724 22.3634 20.4724C22.6071 20.1206 22.5134 19.6374 22.1559 19.4012Z" fill="white"/>
</svg>
