<svg width="40" height="40" viewBox="0 0 40 40" fill="none" xmlns="http://www.w3.org/2000/svg">
<path d="M18.1592 6.25C17.3223 6.25 16.6073 6.85263 16.4661 7.677L16.1023 9.79004C15.911 9.86316 15.7203 9.93885 15.5347 10.022L13.7866 8.78662C13.0191 8.256 12.1146 8.45021 11.5796 8.97583L8.97583 11.5784C8.38396 12.1702 8.30534 13.1017 8.78784 13.7854L10.022 15.5347C9.93822 15.7203 9.86316 15.9098 9.79004 16.1011L7.677 16.4648C6.852 16.6067 6.25 17.3223 6.25 18.1592V21.8408C6.25 22.6777 6.85263 23.3927 7.677 23.5339L9.79004 23.8977C9.86316 24.089 9.93885 24.2797 10.022 24.4653L8.78662 26.2134C8.30412 26.8965 8.38396 27.8285 8.97583 28.4204L11.5784 31.0242C12.2559 31.6867 13.2029 31.634 13.7854 31.2122L15.5347 29.978C15.7203 30.0618 15.9098 30.1368 16.1011 30.21L16.4648 32.323C16.6067 33.148 17.3223 33.75 18.1592 33.75H21.8408C22.6777 33.75 23.3927 33.1474 23.5339 32.323L23.8977 30.21C24.089 30.1368 24.2797 30.0612 24.4653 29.978L26.2134 31.2134C26.729 31.5934 27.7148 31.7304 28.4204 31.0242L31.0242 28.4216C31.616 27.8298 31.6947 26.8983 31.2122 26.2146L29.978 24.4653C30.0618 24.2797 30.1368 24.0902 30.21 23.8989L32.323 23.5352C33.148 23.3933 33.75 22.6777 33.75 21.8408V18.1592C33.75 17.3223 33.1474 16.6073 32.323 16.4661L30.21 16.1023C30.1368 15.911 30.0612 15.7203 29.978 15.5347L31.2134 13.7866C31.6959 13.1035 31.616 12.1715 31.0242 11.5796L28.4216 8.97583C27.761 8.33083 26.8452 8.34472 26.2146 8.78784L24.4653 10.022C24.2797 9.93822 24.0902 9.86316 23.8989 9.79004L23.5352 7.677C23.3933 6.852 22.6777 6.25 21.8408 6.25H18.1592ZM18.8843 8.75H21.1169C21.1551 8.75 21.1876 8.7772 21.1938 8.8147L21.676 11.6187C22.781 12.0155 23.8155 12.4338 24.7437 12.887L27.0642 11.2476C27.0955 11.2257 27.1387 11.2292 27.1655 11.2561L28.7439 12.8357C28.7708 12.8626 28.7755 12.9045 28.7537 12.9358L27.113 15.2576C27.5874 16.2607 28.0151 17.2808 28.3813 18.324L31.1853 18.8074C31.2228 18.8136 31.25 18.8462 31.25 18.8843V21.1169C31.25 21.1551 31.2222 21.1876 31.1841 21.1938L28.3813 21.676C28.0157 22.7192 27.593 23.7412 27.113 24.7437L28.7537 27.0654C28.7755 27.0967 28.7708 27.1387 28.7439 27.1655L27.1655 28.7451C27.1387 28.772 27.0955 28.7755 27.0642 28.7537L24.7437 27.1143C23.7187 27.5961 22.696 28.0182 21.676 28.3826L21.1926 31.1853C21.1864 31.2228 21.1538 31.25 21.1157 31.25H18.8831C18.8449 31.25 18.8124 31.2222 18.8062 31.1841L18.324 28.3813C17.3183 28.032 16.297 27.6155 15.2563 27.113L12.9346 28.7537C12.9033 28.7755 12.8613 28.7708 12.8345 28.7439L11.2549 27.1655C11.228 27.1387 11.2245 27.0955 11.2463 27.0642L12.8857 24.7437C12.3989 23.703 11.9762 22.6804 11.6174 21.676L8.8147 21.1926C8.7772 21.1864 8.75 21.1538 8.75 21.1157V18.8831C8.75 18.8449 8.7772 18.813 8.8147 18.8062L11.6187 18.3228C11.9818 17.3003 12.3982 16.2782 12.887 15.2563L11.2463 12.9346C11.2245 12.9033 11.2292 12.8613 11.2561 12.8345L12.8345 11.2549C12.8613 11.228 12.9045 11.2245 12.9358 11.2463L15.2563 12.8857C16.2238 12.4214 17.2496 12.0012 18.324 11.6174L18.8074 8.8147C18.8136 8.7772 18.8462 8.75 18.8843 8.75ZM20 14.375C16.8931 14.375 14.375 16.8931 14.375 20C14.375 23.1069 16.8931 25.625 20 25.625C23.1069 25.625 25.625 23.1069 25.625 20C25.625 16.8931 23.1069 14.375 20 14.375ZM20 16.875C21.7256 16.875 23.125 18.2744 23.125 20C23.125 21.7256 21.7256 23.125 20 23.125C18.2744 23.125 16.875 21.7256 16.875 20C16.875 18.2744 18.2744 16.875 20 16.875Z" fill="#1A1A1A"/>
</svg>
