<svg width="30" height="30" viewBox="0 0 30 30" fill="none" xmlns="http://www.w3.org/2000/svg">
<path fill-rule="evenodd" clip-rule="evenodd" d="M6.815 3.75H23.1844C24.8775 3.75 26.25 5.1225 26.25 6.815V23.1844C26.25 24.8775 24.8775 26.25 23.185 26.25H6.815C5.1225 26.25 3.75 24.8775 3.75 23.185V6.815C3.75 5.1225 5.1225 3.75 6.815 3.75Z" fill="#212121"/>
<path fill-rule="evenodd" clip-rule="evenodd" d="M18.2547 12.8793C19.2397 13.583 20.4466 13.9968 21.7497 13.9968V11.4899C21.5028 11.4899 21.2572 11.4643 21.0159 11.413V13.3862C19.7128 13.3862 18.5066 12.9718 17.5209 12.2687V17.3837C17.5209 19.9424 15.4453 22.0168 12.8853 22.0168C11.9303 22.0168 11.0422 21.728 10.3047 21.233C11.1466 22.093 12.3203 22.6268 13.6191 22.6268C16.1791 22.6268 18.2547 20.5524 18.2547 17.9937V12.8793ZM19.1603 10.3505C18.6572 9.80117 18.3266 9.09055 18.2547 8.30492V7.98242H17.5591C17.7341 8.98055 18.3316 9.83367 19.1603 10.3505ZM11.9241 19.2699C11.6428 18.9012 11.4909 18.4505 11.4916 17.9868C11.4916 16.8162 12.4409 15.8674 13.6122 15.8674C13.8303 15.8674 14.0472 15.9005 14.2553 15.9668V13.4043C14.0122 13.3712 13.7672 13.3568 13.5216 13.3618V15.3562C13.3134 15.2899 13.0966 15.2568 12.8778 15.2568C11.7066 15.2568 10.7572 16.2055 10.7572 17.3762C10.7578 18.2043 11.2322 18.9212 11.9241 19.2699Z" fill="#EC407A"/>
<path fill-rule="evenodd" clip-rule="evenodd" d="M17.5206 12.2687C18.5056 12.9724 19.7125 13.3862 21.0156 13.3862V11.413C20.2881 11.258 19.6444 10.878 19.16 10.3499C18.3312 9.83305 17.7344 8.98055 17.5594 7.98242H15.7325V17.9937C15.7281 19.1605 14.7806 20.1055 13.6119 20.1055C12.9231 20.1055 12.3112 19.7774 11.9237 19.2693C11.2319 18.9205 10.7575 18.2037 10.7575 17.3762C10.7575 16.2055 11.7069 15.2568 12.8781 15.2568C13.1025 15.2568 13.3187 15.2918 13.5219 15.3562V13.3624C11.0069 13.4143 8.98438 15.468 8.98438 17.9943C8.98438 19.2555 9.48812 20.3987 10.3056 21.2337C11.0431 21.7287 11.9312 22.0174 12.8862 22.0174C15.4462 22.0174 17.5219 19.943 17.5219 17.3843L17.5206 12.2687Z" fill="white"/>
<path fill-rule="evenodd" clip-rule="evenodd" d="M21.0162 11.413V10.8792C20.36 10.8805 19.7175 10.6967 19.1606 10.3492C19.6531 10.8886 20.3019 11.2605 21.0162 11.413ZM17.5594 7.98172C17.5425 7.88609 17.53 7.79047 17.5213 7.69359V7.37109H14.9987V17.383C14.995 18.5498 14.0469 19.4948 12.8781 19.4948C12.535 19.4948 12.2113 19.4136 11.9244 19.2686C12.3119 19.7767 12.9238 20.1048 13.6125 20.1048C14.7813 20.1048 15.7288 19.1598 15.7331 17.993V7.98172H17.5594ZM13.5219 13.3617V12.7936C13.3113 12.7648 13.0988 12.7505 12.8856 12.7505C10.325 12.7505 8.25 14.8248 8.25 17.3836C8.25 18.988 9.06563 20.4017 10.305 21.233C9.4875 20.398 8.98375 19.2548 8.98375 17.9936C8.98375 15.4673 11.0069 13.4136 13.5219 13.3617Z" fill="#81D4FA"/>
</svg>
