<svg width="30" height="30" viewBox="0 0 30 30" fill="none" xmlns="http://www.w3.org/2000/svg">
<path d="M9.38542 5.75C7.52503 5.75 6 7.27503 6 9.13542V21.1146C6 22.975 7.52503 24.5 9.38542 24.5H21.3646C23.225 24.5 24.75 22.975 24.75 21.1146V9.13542C24.75 7.27503 23.225 5.75 21.3646 5.75H9.38542ZM9.38542 7.3125H21.3646C22.3802 7.3125 23.1875 8.11976 23.1875 9.13542V21.1146C23.1875 22.1302 22.3802 22.9375 21.3646 22.9375H9.38542C8.36976 22.9375 7.5625 22.1302 7.5625 21.1146V9.13542C7.5625 8.11976 8.36976 7.3125 9.38542 7.3125ZM10.0771 9.91667L14.1065 15.6753L10.0741 20.3333H11.1381L14.5775 16.3498L17.3647 20.3333H20.7176L16.4299 14.2054L20.1337 9.91667H19.092L15.9599 13.533L13.43 9.91667H10.0771ZM11.6956 10.7996H13.0302L19.0992 19.4504H17.7645L11.6956 10.7996Z" fill="black"/>
</svg>
