<svg width="100" height="100" viewBox="0 0 100 100" fill="none" xmlns="http://www.w3.org/2000/svg">
<path d="M50 14.0625C38.8 14.0625 29.6875 23.175 29.6875 34.375V42.7307C26.0479 44.0185 23.4375 47.4814 23.4375 51.5625V76.5625C23.4375 81.7406 27.6344 85.9375 32.8125 85.9375H67.1875C72.3656 85.9375 76.5625 81.7406 76.5625 76.5625V51.5625C76.5625 47.4814 73.9521 44.0185 70.3125 42.7307V34.375C70.3125 23.175 61.2 14.0625 50 14.0625ZM50 20.3125C57.7547 20.3125 64.0625 26.6219 64.0625 34.375V42.1875H35.9375V34.375C35.9375 26.6219 42.2453 20.3125 50 20.3125ZM32.8125 48.4375H67.1875C68.9141 48.4375 70.3125 49.8359 70.3125 51.5625V76.5625C70.3125 78.2891 68.9141 79.6875 67.1875 79.6875H32.8125C31.0859 79.6875 29.6875 78.2891 29.6875 76.5625V51.5625C29.6875 49.8359 31.0859 48.4375 32.8125 48.4375Z" fill="#0F172A"/>
</svg>
