<svg width="30" height="30" viewBox="0 0 30 30" fill="none" xmlns="http://www.w3.org/2000/svg">
<path d="M6.59406 6.5625C5.61484 6.5625 4.8514 6.84756 4.30249 7.41943C3.75358 7.99131 3.47852 8.8545 3.47852 10.0076V19.9915C3.47852 21.1446 3.77195 22.0069 4.35742 22.5787C4.94336 23.1506 5.81655 23.4366 6.97858 23.4366H23.405C24.3837 23.4366 25.1476 23.1506 25.6965 22.5787C26.2454 22.0069 26.5196 21.1446 26.5196 19.9915V10.0076C26.5196 8.8545 26.2271 7.99131 25.6416 7.41943C25.0557 6.84756 24.1816 6.5625 23.0195 6.5625H6.59406ZM6.89709 8.42926H23.0891C23.179 8.42926 23.2612 8.43879 23.3436 8.44757L16.2968 15.4248C16.0592 15.6536 15.837 15.8232 15.6312 15.9329C15.4254 16.0426 15.2173 16.0977 15.0068 16.0977C14.787 16.0977 14.5736 16.0426 14.3678 15.9329C14.162 15.8232 13.9403 15.6536 13.7022 15.4248L6.6554 8.44666C6.73394 8.43873 6.81173 8.42926 6.89709 8.42926ZM5.38007 9.70367L10.7368 14.9854L5.3819 20.3192C5.36868 20.2156 5.35992 20.1079 5.35992 19.9915V9.9939C5.35992 9.8911 5.36938 9.79654 5.38007 9.70367ZM24.6199 9.71375C24.6307 9.80788 24.64 9.90321 24.64 10.0076V20.0052C24.64 20.1203 24.6317 20.2275 24.618 20.3302L19.2631 14.9863L24.6199 9.71375ZM17.9896 16.2396L23.3152 21.5543C23.2412 21.5612 23.169 21.5698 23.0891 21.5698H6.89709C6.82588 21.5698 6.76213 21.5607 6.69568 21.5552L12.0158 16.246L12.6594 16.8805C13.0527 17.2649 13.4414 17.5434 13.8258 17.7173C14.2102 17.8912 14.6042 17.9782 15.0068 17.9782C15.4095 17.9782 15.8004 17.8912 16.1805 17.7173C16.5602 17.5434 16.9463 17.264 17.3396 16.8796L17.9896 16.2396Z" fill="#1A1A1A"/>
</svg>
