<svg width="30" height="30" viewBox="0 0 30 30" fill="none" xmlns="http://www.w3.org/2000/svg">
<path d="M11.1438 5.625C6.02599 5.625 5.625 6.02552 5.625 11.1438V18.8562C5.625 23.974 6.02599 24.375 11.1438 24.375H18.8562C23.974 24.375 24.375 23.9745 24.375 18.8562V11.1438C24.375 6.02552 23.9745 5.625 18.8562 5.625H11.1438ZM9.92249 7.5H20.0775C22.3242 7.5 22.5 7.67577 22.5 9.92249V20.0775C22.5 22.3242 22.3238 22.5 20.0775 22.5H9.92249C7.67577 22.5 7.5 22.3238 7.5 20.0775V9.92249C7.5 7.67577 7.67577 7.5 9.92249 7.5ZM15.347 9.23126V17.0132C15.347 18.0829 14.4169 18.6356 13.7494 18.6356C13.2464 18.6356 12.1024 18.2412 12.1024 17.0004C12.1024 15.6978 13.1697 15.3653 13.7613 15.3653C14.1058 15.3653 14.241 15.4395 14.241 15.4395V13.363C14.241 13.363 13.9829 13.3246 13.688 13.3246C11.5698 13.3246 10.0616 15.0392 10.0616 17.0004C10.0616 18.6575 11.3575 20.6635 13.7247 20.6635C16.2461 20.6635 17.4005 18.5606 17.4005 17.0123V13.1525C17.4005 13.1525 18.5243 13.9389 20.0308 13.9389V11.9724C18.3025 11.8491 17.3787 10.6881 17.3145 9.23126H15.347Z" fill="#0F172A"/>
</svg>
