<svg width="30" height="30" viewBox="0 0 30 30" fill="none" xmlns="http://www.w3.org/2000/svg">
<path d="M14.9158 5.625C6.29968 5.625 5.625 6.29968 5.625 14.9158V15.0842C5.625 23.7003 6.29968 24.375 14.9158 24.375H15.0842C23.7003 24.375 24.375 23.7003 24.375 15.0842V15C24.375 6.30562 23.6944 5.625 15 5.625H14.9158ZM13.125 7.5H16.875C22.0917 7.5 22.5 7.90828 22.5 13.125V16.875C22.5 22.0917 22.0917 22.5 16.875 22.5H13.125C7.90828 22.5 7.5 22.0917 7.5 16.875V13.125C7.5 7.90828 7.90828 7.5 13.125 7.5ZM19.6848 9.375C19.1668 9.37641 18.7486 9.79728 18.75 10.3152C18.7514 10.8332 19.1723 11.2514 19.6902 11.25C20.2082 11.2486 20.6264 10.8277 20.625 10.3098C20.6236 9.79178 20.2027 9.37359 19.6848 9.375ZM14.989 10.3125C12.4006 10.3186 10.3064 12.4225 10.3125 15.011C10.3186 17.5994 12.4225 19.6936 15.011 19.6875C17.5994 19.6814 19.6936 17.5775 19.6875 14.989C19.6814 12.4006 17.5775 10.3064 14.989 10.3125ZM14.9936 12.1875C16.5466 12.1838 17.8088 13.4406 17.8125 14.9936C17.8158 16.5466 16.5594 17.8088 15.0064 17.8125C13.4534 17.8162 12.1912 16.5598 12.1875 15.0064C12.1838 13.4534 13.4406 12.1912 14.9936 12.1875Z" fill="#0F172A"/>
</svg>
