<svg width="30" height="30" viewBox="0 0 30 30" fill="none" xmlns="http://www.w3.org/2000/svg">
<path d="M10.312 5.625C7.72732 5.625 5.62451 7.72781 5.62451 10.3125V10.7812C5.62451 11.2987 6.04451 11.7188 6.56201 11.7188C7.07951 11.7188 7.49951 11.2987 7.49951 10.7812V10.3125C7.49951 8.76141 8.76092 7.5 10.312 7.5H19.687C21.2381 7.5 22.4995 8.76141 22.4995 10.3125V11.25H21.1436C20.7246 11.25 20.477 11.7203 20.7161 12.0648L23.0104 15.3809C23.2166 15.6795 23.6578 15.6795 23.8646 15.3809L26.1589 12.0648C26.397 11.7203 26.1504 11.25 25.7313 11.25H24.3745V10.3125C24.3745 7.72781 22.2717 5.625 19.687 5.625H10.312ZM6.56201 14.3948C6.4 14.3948 6.23782 14.4698 6.13446 14.6191L3.84106 17.9352C3.60294 18.2797 3.84955 18.75 4.26862 18.75H5.62451V19.6875C5.62451 22.2722 7.72732 24.375 10.312 24.375H19.687C22.2717 24.375 24.3745 22.2722 24.3745 19.6875V19.2188C24.3745 18.7013 23.9545 18.2812 23.437 18.2812C22.9195 18.2812 22.4995 18.7013 22.4995 19.2188V19.6875C22.4995 21.2386 21.2381 22.5 19.687 22.5H10.312C8.76092 22.5 7.49951 21.2386 7.49951 19.6875V18.75H8.85541C9.27447 18.75 9.52202 18.2797 9.28296 17.9352L6.98865 14.6191C6.88552 14.4698 6.72402 14.3948 6.56201 14.3948Z" fill="#FF9500"/>
</svg>
