<svg width="50" height="50" viewBox="0 0 50 50" fill="none" xmlns="http://www.w3.org/2000/svg">
<path d="M17.2125 6.6626C12.4702 8.65115 8.65262 12.4687 6.66406 17.211L8.13906 17.8298C9.96331 13.4793 13.4808 9.96185 17.8312 8.13761L17.2125 6.6626ZM25.0016 8.20009C15.7384 8.20009 8.20157 15.7369 8.20157 25.0001C8.20157 34.2633 15.7384 41.8001 25.0016 41.8001C34.2648 41.8001 41.8016 34.2633 41.8016 25.0001C41.8016 15.7369 34.2648 8.20009 25.0016 8.20009ZM24.2016 13.0001H25.8016V23.622C26.2776 23.8988 26.6016 24.4089 26.6016 25.0001C26.6016 25.1425 26.5766 25.2775 26.5422 25.4095L31.1672 30.0345L30.0359 31.1657L25.4109 26.5407C25.2789 26.5751 25.144 26.6001 25.0016 26.6001C24.1176 26.6001 23.4016 25.8841 23.4016 25.0001C23.4016 24.4097 23.7256 23.8996 24.2016 23.622V13.0001ZM41.8688 32.161C39.9674 36.5269 36.5195 40.0395 32.1719 41.8626L32.7906 43.3376C37.5358 41.3478 41.2758 37.527 43.3344 32.8001L41.8688 32.161Z" fill="black"/>
</svg>
