<svg width="40" height="40" viewBox="0 0 40 40" fill="none" xmlns="http://www.w3.org/2000/svg">
<path d="M9.45557 9.375C9.06619 9.375 8.75 9.6906 8.75 10.0793V13.6694C8.75 14.0588 9.06619 14.375 9.45557 14.375H12.5V21.25H8.125V19.375C8.125 18.685 7.565 18.125 6.875 18.125C6.185 18.125 5.625 18.685 5.625 19.375V32.5C5.625 33.19 6.185 33.75 6.875 33.75H33.125C33.815 33.75 34.375 33.19 34.375 32.5V19.375C34.375 18.685 33.815 18.125 33.125 18.125C32.435 18.125 31.875 18.685 31.875 19.375V21.25H28.125V16.9922C29.2444 16.3435 30 15.1371 30 13.75C30 12.3575 29.2391 11.1449 28.1116 10.4993C27.8403 10.3436 27.5 10.5536 27.5 10.8667V13.0579C27.5 13.681 27.0743 14.2579 26.46 14.3579C25.6768 14.4854 25 13.8844 25 13.125V10.8643C25 10.553 24.6633 10.3419 24.3933 10.4956C23.0589 11.2575 22.2363 12.8115 22.5769 14.5203C22.7867 15.5718 23.465 16.476 24.375 17.002V21.25H16.25V14.375H19.9194C20.3088 14.375 20.625 14.0588 20.625 13.6694V12.8418C20.625 12.6262 20.5258 12.4213 20.3564 12.2876L17.1643 9.77051C16.8393 9.51426 16.4379 9.375 16.0242 9.375H9.45557ZM8.125 23.75H31.875V26.25H8.125V23.75ZM8.125 28.75H31.875V31.25H8.125V28.75Z" fill="#0F172A"/>
</svg>
