<svg width="100" height="100" viewBox="0 0 100 100" fill="none" xmlns="http://www.w3.org/2000/svg">
<path d="M50 14.0625C33.6094 14.0625 20.3125 27.3594 20.3125 43.75C20.3125 64.0625 46.3604 85.6874 47.4854 86.5936C48.2041 87.203 49.1094 87.5 50 87.5C50.8906 87.5 51.7959 87.203 52.5146 86.5936C53.6396 85.6874 79.6875 64.0625 79.6875 43.75C79.6875 27.3594 66.3906 14.0625 50 14.0625ZM50 31.2653C56.8906 31.2653 62.5 36.8594 62.5 43.75C62.5 50.6406 56.8906 56.2347 50 56.2347C43.1094 56.2347 37.5 50.6406 37.5 43.75C37.5 36.8594 43.1094 31.2653 50 31.2653ZM50 35.9528C45.6875 35.9528 42.1875 39.4375 42.1875 43.75C42.1875 48.0625 45.6875 51.5472 50 51.5472C54.3125 51.5472 57.8125 48.0625 57.8125 43.75C57.8125 42.9375 57.6864 42.1559 57.4677 41.4215C56.8583 42.7809 55.5 43.75 53.9062 43.75C51.75 43.75 50 41.9996 50 39.859C50 38.2653 50.9539 36.8914 52.3132 36.2976C51.5789 36.0789 50.7969 35.9528 50 35.9528Z" fill="#0F172A"/>
</svg>
