<svg width="50" height="50" viewBox="0 0 50 50" fill="none" xmlns="http://www.w3.org/2000/svg">
<path d="M24.9992 6.6001C17.943 6.6001 12.1992 12.3439 12.1992 19.4001C12.1992 29.0626 23.9023 42.5563 24.3992 43.1251C24.5523 43.3001 24.768 43.4001 24.9992 43.4001C25.2305 43.4001 25.4461 43.297 25.5992 43.1251C26.0961 42.5563 37.7992 29.122 37.7992 19.4001C37.7992 12.3439 32.0555 6.6001 24.9992 6.6001ZM19.3992 15.4001H30.5992V25.8001H19.3992V15.4001ZM20.9992 17.0001V24.2001H28.9992V17.0001H20.9992ZM23.3992 18.6001H26.5992C27.043 18.6001 27.3992 18.9595 27.3992 19.4001C27.3992 19.8407 27.043 20.2001 26.5992 20.2001H23.3992C22.9555 20.2001 22.5992 19.8407 22.5992 19.4001C22.5992 18.9595 22.9555 18.6001 23.3992 18.6001Z" fill="black"/>
</svg>
