<svg width="34" height="28" viewBox="0 0 34 28" fill="none" xmlns="http://www.w3.org/2000/svg">
<path d="M8.99922 6.6001C1.94297 6.6001 -3.80078 12.3439 -3.80078 19.4001C-3.80078 29.0626 7.90235 42.5563 8.39922 43.1251C8.55235 43.3001 8.76797 43.4001 8.99922 43.4001C9.23047 43.4001 9.44609 43.297 9.59922 43.1251C10.0961 42.5563 21.7992 29.122 21.7992 19.4001C21.7992 12.3439 16.0555 6.6001 8.99922 6.6001ZM3.39922 15.4001H14.5992V25.8001H3.39922V15.4001ZM4.99922 17.0001V24.2001H12.9992V17.0001H4.99922ZM7.39922 18.6001H10.5992C11.043 18.6001 11.3992 18.9595 11.3992 19.4001C11.3992 19.8407 11.043 20.2001 10.5992 20.2001H7.39922C6.95547 20.2001 6.59922 19.8407 6.59922 19.4001C6.59922 18.9595 6.95547 18.6001 7.39922 18.6001Z" fill="black"/>
</svg>
