<svg width="100" height="100" viewBox="0 0 100 100" fill="none" xmlns="http://www.w3.org/2000/svg">
<path d="M21.874 26.5625C16.7037 26.5625 12.499 31.1187 12.499 36.7188C12.499 42.3188 16.7037 46.875 21.874 46.875C27.0444 46.875 31.249 42.3188 31.249 36.7188C31.249 31.1187 27.0444 26.5625 21.874 26.5625ZM78.124 26.5625C72.9537 26.5625 68.749 31.1187 68.749 36.7188C68.749 42.3188 72.9537 46.875 78.124 46.875C83.2943 46.875 87.499 42.3188 87.499 36.7188C87.499 31.1187 83.2943 26.5625 78.124 26.5625ZM49.999 29.6875C43.1069 29.6875 37.499 35.6453 37.499 42.9688C37.499 50.2922 43.1069 56.25 49.999 56.25C56.8912 56.25 62.499 50.2922 62.499 42.9688C62.499 35.6453 56.8912 29.6875 49.999 29.6875ZM49.999 35.9375C53.4459 35.9375 56.249 39.0922 56.249 42.9688C56.249 46.8453 53.4459 50 49.999 50C46.5522 50 43.749 46.8453 43.749 42.9688C43.749 39.0922 46.5522 35.9375 49.999 35.9375ZM21.874 50C12.8803 50 5.50158 55.5008 4.71095 62.793C4.42189 65.4258 6.65207 67.1875 8.72707 67.1875H31.2765C29.6205 68.8515 28.2481 70.7442 27.2421 72.8333C24.9233 77.6489 28.7558 82.8125 33.7027 82.8125H67.861C72.5578 82.8125 76.7497 77.8817 74.3185 72.8333C73.3125 70.7442 71.9401 68.8515 70.2841 67.1875H91.2619C93.3415 67.1875 95.5731 65.4385 95.2871 62.7838C94.4871 55.4963 87.11 50 78.124 50C69.6964 50 62.6865 54.8298 61.1868 61.438C57.9861 60.2459 54.4597 59.5886 50.7803 59.5886C46.5306 59.5886 42.485 60.4642 38.912 62.0331C37.7031 55.1245 30.5467 50 21.874 50ZM50.7803 65.8386C58.6944 65.8386 65.9255 69.7244 68.688 75.5463C68.9396 76.0744 68.3454 76.5625 67.8579 76.5625H33.6996C33.209 76.5625 32.6195 76.0713 32.8695 75.5432C35.6336 69.7229 42.8662 65.8386 50.7803 65.8386Z" fill="#0F172A"/>
</svg>
