<svg width="100" height="100" viewBox="0 0 100 100" fill="none" xmlns="http://www.w3.org/2000/svg">
<path d="M50 15.625C31.0453 15.625 15.625 31.0453 15.625 50C15.625 51.7219 15.7518 53.4515 16.0065 55.1453C16.2393 56.6953 17.573 57.8064 19.0948 57.8064C19.248 57.8064 19.4055 57.7978 19.5618 57.7728C21.268 57.5181 22.4425 55.9238 22.1863 54.2175C21.9785 52.83 21.875 51.4109 21.875 50C21.875 34.4922 34.4922 21.875 50 21.875C56.4744 21.875 62.7011 24.1142 67.6697 28.125H64.0625C62.3375 28.125 60.9375 29.525 60.9375 31.25C60.9375 32.975 62.3375 34.375 64.0625 34.375H75C76.725 34.375 78.125 32.975 78.125 31.25V20.3125C78.125 18.5875 76.725 17.1875 75 17.1875C73.275 17.1875 71.875 18.5875 71.875 20.3125V23.4863C65.7581 18.4421 58.0331 15.625 50 15.625ZM81.0699 42.1967C80.8627 42.1861 80.6515 42.1944 80.4382 42.2272C78.732 42.4819 77.5575 44.0762 77.8137 45.7825C78.0215 47.17 78.125 48.5891 78.125 50C78.125 65.5078 65.5078 78.125 50 78.125C43.5299 78.125 37.3031 75.8861 32.3334 71.875H35.9375C37.6625 71.875 39.0625 70.475 39.0625 68.75C39.0625 67.025 37.6625 65.625 35.9375 65.625H25C23.275 65.625 21.875 67.025 21.875 68.75V79.6875C21.875 81.4125 23.275 82.8125 25 82.8125C26.725 82.8125 28.125 81.4125 28.125 79.6875V76.5106C34.2427 81.5555 41.9693 84.375 50 84.375C68.9547 84.375 84.375 68.9547 84.375 50C84.375 48.2781 84.2482 46.5469 83.9935 44.8547C83.7693 43.359 82.521 42.2703 81.0699 42.1967Z" fill="#0F172A"/>
</svg>
