<svg width="40" height="40" viewBox="0 0 40 40" fill="none" xmlns="http://www.w3.org/2000/svg">
<path d="M10 8.125C7.93125 8.125 6.25 9.80625 6.25 11.875V28.125C6.25 30.1938 7.93125 31.875 10 31.875H25L27.5 29.375H10C9.3125 29.375 8.75 28.8125 8.75 28.125V15C8.75 14.3125 9.3125 13.75 10 13.75H30C30.6875 13.75 31.25 14.3125 31.25 15V25.625L33.75 23.125V11.875C33.75 9.80625 32.0688 8.125 30 8.125H10ZM14.0625 15.9375C13.3719 15.9375 12.8125 16.4969 12.8125 17.1875C12.8125 17.8781 13.3719 18.4375 14.0625 18.4375C14.7531 18.4375 15.3125 17.8781 15.3125 17.1875C15.3125 16.4969 14.7531 15.9375 14.0625 15.9375ZM17.8125 16.25C17.295 16.25 16.875 16.6694 16.875 17.1875C16.875 17.7056 17.295 18.125 17.8125 18.125H25.9375C26.455 18.125 26.875 17.7056 26.875 17.1875C26.875 16.6694 26.455 16.25 25.9375 16.25H17.8125ZM14.0625 20.3125C13.3719 20.3125 12.8125 20.8719 12.8125 21.5625C12.8125 22.2531 13.3719 22.8125 14.0625 22.8125C14.7531 22.8125 15.3125 22.2531 15.3125 21.5625C15.3125 20.8719 14.7531 20.3125 14.0625 20.3125ZM17.8125 20.625C17.295 20.625 16.875 21.0444 16.875 21.5625C16.875 22.0806 17.295 22.5 17.8125 22.5H25.9375C26.455 22.5 26.875 22.0806 26.875 21.5625C26.875 21.0444 26.455 20.625 25.9375 20.625H17.8125ZM35.8398 23.7512C35.6295 23.766 35.4159 23.8614 35.2478 24.0295L34.5422 24.7266L35.929 26.123L36.6211 25.4126C36.9667 25.0488 36.9936 24.5485 36.6479 24.2029L36.4124 23.9575C36.2577 23.8028 36.0502 23.7365 35.8398 23.7512ZM14.0625 24.6875C13.3719 24.6875 12.8125 25.2469 12.8125 25.9375C12.8125 26.6281 13.3719 27.1875 14.0625 27.1875C14.7531 27.1875 15.3125 26.6281 15.3125 25.9375C15.3125 25.2469 14.7531 24.6875 14.0625 24.6875ZM17.8125 25C17.295 25 16.875 25.4194 16.875 25.9375C16.875 26.4556 17.295 26.875 17.8125 26.875H25.9375C26.455 26.875 26.875 26.4556 26.875 25.9375C26.875 25.4194 26.455 25 25.9375 25H17.8125ZM33.8733 25.3955L26.4441 32.8333L25.6262 34.6338C25.5356 34.8432 25.7708 35.0794 25.9802 34.9976L27.8455 34.2163L35.2747 26.7871L33.8733 25.3955Z" fill="#0F172A"/>
</svg>
