<svg width="100" height="100" viewBox="0 0 100 100" fill="none" xmlns="http://www.w3.org/2000/svg">
<path d="M31.25 15.625C21.7734 15.625 14.0625 23.3359 14.0625 32.8125C14.0625 36.4771 15.2251 39.8708 17.1875 42.6636V71.875C17.1875 77.0453 21.3922 81.25 26.5625 81.25H73.4375C78.6078 81.25 82.8125 77.0453 82.8125 71.875V28.125C82.8125 22.9547 78.6078 18.75 73.4375 18.75H41.1011C38.3083 16.7876 34.9146 15.625 31.25 15.625ZM31.25 21.875C37.2797 21.875 42.1875 26.7813 42.1875 32.8125C42.1875 38.8437 37.2797 43.75 31.25 43.75C25.2203 43.75 20.3125 38.8437 20.3125 32.8125C20.3125 26.7813 25.2203 21.875 31.25 21.875ZM30.4688 25.7812C29.175 25.7812 28.125 26.8297 28.125 28.125V33.6365C28.125 34.263 28.377 34.8652 28.8239 35.3058L31.9489 38.3881C32.4051 38.8381 32.9984 39.0625 33.5938 39.0625C34.2 39.0625 34.8021 38.8293 35.2631 38.3636C36.1709 37.4418 36.1621 35.9588 35.2386 35.0494L32.8125 32.6569V28.125C32.8125 26.8297 31.7625 25.7812 30.4688 25.7812ZM48.1384 35.9375H73.4375C75.1609 35.9375 76.5625 37.3391 76.5625 39.0625V71.875C76.5625 73.5984 75.1609 75 73.4375 75H26.5625C24.8391 75 23.4375 73.5984 23.4375 71.875V48.1018C25.7848 49.3064 28.4354 50 31.25 50C39.6586 50 46.6633 43.9259 48.1384 35.9375ZM57.8125 53.125C56.0859 53.125 54.6875 54.5234 54.6875 56.25V64.0625C54.6875 65.7891 56.0859 67.1875 57.8125 67.1875H65.625C67.3516 67.1875 68.75 65.7891 68.75 64.0625V56.25C68.75 54.5234 67.3516 53.125 65.625 53.125H57.8125Z" fill="#0F172A"/>
</svg>
