<svg width="100" height="100" viewBox="0 0 100 100" fill="none" xmlns="http://www.w3.org/2000/svg">
<path d="M50 14.0625C32.0172 14.0625 20.3125 24.3391 20.3125 42.1875V50C20.3125 50 18.75 52.8953 18.75 56.25C18.75 60.7422 22.4031 64.3453 25 65.625C27.9625 77.9812 42.1875 85.9375 50 85.9375C57.8125 85.9375 72.0375 77.9812 75 65.625C77.5969 64.3453 81.25 60.1898 81.25 55.6976C81.25 52.3429 79.6875 50 79.6875 50V42.1875C79.6875 21.1156 64.5905 19.931 64.5905 19.931C64.5905 19.931 60.1266 14.0625 50 14.0625ZM50 20.3125C59.4703 20.3125 60.9619 26.0376 60.9619 26.0376C60.9619 26.0376 73.4375 26.9156 73.4375 42.1875V48.4375H72.8851C71.4492 42.1297 67.4809 34.2836 60.1074 32.193C60.1074 32.193 52.9331 43.0109 30.7159 42.1875L27.5909 48.4375H26.5625V42.1875C26.5625 28.2859 35.1047 20.3125 50 20.3125ZM61.5784 39.9475C63.9471 42.0694 67.9244 49.6234 67.9932 54.6875H74.9023C74.9595 55.0018 75 55.332 75 55.6976C75 59.1445 69.6075 61.3159 69.6075 61.3159C69.6075 71.6644 55.3391 79.6875 50 79.6875C44.6609 79.6875 30.3925 71.0472 30.3925 61.3159C30.3925 61.3159 25 59.7625 25 56.25C25 55.6732 25.0692 55.1629 25.1617 54.6875H31.4575L34.5886 48.4222C47.8871 48.216 55.6362 45.8163 61.5784 39.9475Z" fill="#0F172A"/>
</svg>
