<svg width="100" height="100" viewBox="0 0 100 100" fill="none" xmlns="http://www.w3.org/2000/svg">
<path d="M25 17.1875C20.6922 17.1875 17.1875 20.6922 17.1875 25V37.5C17.1875 41.8078 20.6922 45.3125 25 45.3125H37.5C41.8078 45.3125 45.3125 41.8078 45.3125 37.5V25C45.3125 20.6922 41.8078 17.1875 37.5 17.1875H25ZM60.9375 17.1875C56.6297 17.1875 53.125 20.6922 53.125 25V37.5C53.125 41.8078 56.6297 45.3125 60.9375 45.3125H73.4375C77.7453 45.3125 81.25 41.8078 81.25 37.5V25C81.25 20.6922 77.7453 17.1875 73.4375 17.1875H60.9375ZM25 23.4375H37.5C38.3625 23.4375 39.0625 24.1391 39.0625 25V37.5C39.0625 38.3609 38.3625 39.0625 37.5 39.0625H25C24.1375 39.0625 23.4375 38.3609 23.4375 37.5V25C23.4375 24.1391 24.1375 23.4375 25 23.4375ZM60.9375 23.4375H73.4375C74.3 23.4375 75 24.1391 75 25V37.5C75 38.3609 74.3 39.0625 73.4375 39.0625H60.9375C60.075 39.0625 59.375 38.3609 59.375 37.5V25C59.375 24.1391 60.075 23.4375 60.9375 23.4375ZM28.125 28.125V34.375H34.375V28.125H28.125ZM64.0625 28.125V34.375H70.3125V28.125H64.0625ZM25 53.125C20.6922 53.125 17.1875 56.6297 17.1875 60.9375V73.4375C17.1875 77.7453 20.6922 81.25 25 81.25H37.5C41.8078 81.25 45.3125 77.7453 45.3125 73.4375V60.9375C45.3125 56.6297 41.8078 53.125 37.5 53.125H25ZM53.125 53.125V62.5H62.5V53.125H53.125ZM62.5 62.5V71.875H71.875V62.5H62.5ZM71.875 62.5H81.25V53.125H71.875V62.5ZM71.875 71.875V81.25H81.25V71.875H71.875ZM62.5 71.875H53.125V81.25H62.5V71.875ZM25 59.375H37.5C38.3625 59.375 39.0625 60.0766 39.0625 60.9375V73.4375C39.0625 74.2984 38.3625 75 37.5 75H25C24.1375 75 23.4375 74.2984 23.4375 73.4375V60.9375C23.4375 60.0766 24.1375 59.375 25 59.375ZM28.125 64.0625V70.3125H34.375V64.0625H28.125Z" fill="#0F172A"/>
</svg>
