<svg width="30" height="30" viewBox="0 0 30 30" fill="none" xmlns="http://www.w3.org/2000/svg">
<path d="M10.3125 3.28125C8.76141 3.28125 7.5 4.54266 7.5 6.09375V23.9062C7.5 25.4573 8.76141 26.7188 10.3125 26.7188H19.6875C21.2386 26.7188 22.5 25.4573 22.5 23.9062V6.09375C22.5 4.54266 21.2386 3.28125 19.6875 3.28125H18.75H11.25H10.3125ZM10.3125 5.15625H11.25C11.25 6.19172 12.0895 7.03125 13.125 7.03125H16.875C17.9105 7.03125 18.75 6.19172 18.75 5.15625H19.6875C20.2045 5.15625 20.625 5.57672 20.625 6.09375V23.9062C20.625 24.4233 20.2045 24.8438 19.6875 24.8438H10.3125C9.79547 24.8438 9.375 24.4233 9.375 23.9062V6.09375C9.375 5.57672 9.79547 5.15625 10.3125 5.15625Z" fill="white"/>
</svg>
