<svg width="40" height="40" viewBox="0 0 40 40" fill="none" xmlns="http://www.w3.org/2000/svg">
<path d="M13.75 4.375C11.6819 4.375 10 6.05687 10 8.125V31.875C10 33.9431 11.6819 35.625 13.75 35.625H26.25C28.3181 35.625 30 33.9431 30 31.875V8.125C30 6.05687 28.3181 4.375 26.25 4.375H25H15H13.75ZM13.75 6.875H15C15 8.25563 16.1194 9.375 17.5 9.375H22.5C23.8806 9.375 25 8.25563 25 6.875H26.25C26.9394 6.875 27.5 7.43563 27.5 8.125V31.875C27.5 32.5644 26.9394 33.125 26.25 33.125H13.75C13.0606 33.125 12.5 32.5644 12.5 31.875V8.125C12.5 7.43563 13.0606 6.875 13.75 6.875Z" fill="#0F172A"/>
</svg>
