<svg width="50" height="50" viewBox="0 0 50 50" fill="none" xmlns="http://www.w3.org/2000/svg">
<path d="M25.0016 6.6001C14.849 6.6001 6.60156 14.8475 6.60156 25.0001C6.60156 35.1527 14.849 43.4001 25.0016 43.4001C35.1541 43.4001 43.4016 35.1527 43.4016 25.0001C43.4016 14.8475 35.1541 6.6001 25.0016 6.6001ZM24.2016 11.4001L25.8016 12.2001L24.2016 13.8001L23.4016 16.2001L21.8016 14.6001L20.2016 15.4001L21.0016 16.2001V17.8001L18.6016 19.4001L19.4016 20.2001L18.6016 23.4001L17.0016 25.8001L15.4016 23.4001L13.0016 25.8001L11.4016 23.4001H10.6016L9.00156 24.2001L8.20156 25.0001C8.20156 20.1948 10.2228 15.876 13.45 12.8157L16.1219 12.2001L17.8016 13.0001L24.2016 11.4001ZM29.0016 12.2001H31.4016L36.2016 13.8001L36.8609 13.097C39.0701 15.2981 40.6667 18.1111 41.3813 21.2626L41.0016 21.8001L40.2016 23.4001L38.6016 22.6001H37.8016L37.0016 25.0001L33.8016 20.3595V18.2798L32.2016 15.6407L31.4016 15.4001L29.0016 14.6001V12.2001ZM40.2016 25.8798L41.3219 27.7204L41.5313 27.9923C40.9409 31.283 39.3884 34.2301 37.1828 36.5548L35.4016 37.0001L35.7219 35.0001L38.0422 31.7204L38.4422 30.6001L37.8016 29.8001L37.4813 27.5595L38.3609 27.3204L38.6813 26.4407L40.2016 25.8798ZM19.5609 26.1204L20.0422 26.6001L19.1609 27.4001H18.2813L18.1219 26.7595L19.5609 26.1204ZM15.8016 26.6001L17.4813 28.5204L16.6016 29.0001L15.8016 26.6001ZM23.8016 27.6407L25.2422 29.3204L26.2016 27.9595L27.4813 30.2001L28.2016 31.7204L27.0813 34.0407L26.1219 34.2798L24.4422 32.6798L23.4813 32.4407L21.5609 33.3204L20.7609 32.6001L20.5219 29.8798L23.8016 27.6407Z" fill="black"/>
</svg>
