<svg width="40" height="40" viewBox="0 0 40 40" fill="none" xmlns="http://www.w3.org/2000/svg">
<path d="M14.8584 7.5C8.03465 7.5 7.5 8.03402 7.5 14.8584V25.1416C7.5 31.9654 8.03465 32.5 14.8584 32.5H25.1416C31.9654 32.5 32.5 31.966 32.5 25.1416V14.8584C32.5 8.03402 31.966 7.5 25.1416 7.5H14.8584ZM13.23 10H26.77C29.7656 10 30 10.2344 30 13.23V26.77C30 29.7656 29.765 30 26.77 30H13.23C10.2344 30 10 29.765 10 26.77V13.23C10 10.2344 10.2344 10 13.23 10ZM16.0229 14.7729C15.7031 14.7729 15.3832 14.8951 15.1392 15.1392C14.651 15.6273 14.651 16.4186 15.1392 16.9067L18.2324 20L15.1392 23.0933C14.651 23.5814 14.651 24.3727 15.1392 24.8608C15.6273 25.349 16.4186 25.349 16.9067 24.8608L20 21.7676L23.0933 24.8608C23.5814 25.349 24.3727 25.349 24.8608 24.8608C25.349 24.3727 25.349 23.5814 24.8608 23.0933L21.7676 20L24.8608 16.9067C25.349 16.4186 25.349 15.6273 24.8608 15.1392C24.3727 14.651 23.5814 14.651 23.0933 15.1392L20 18.2324L16.9067 15.1392C16.6627 14.8951 16.3428 14.7729 16.0229 14.7729Z" fill="#0F172A"/>
</svg>
