<svg width="40" height="40" viewBox="0 0 40 40" fill="none" xmlns="http://www.w3.org/2000/svg">
<path d="M8.75 6.875C6.68125 6.875 5 8.55625 5 10.625V23.75C5 25.8188 6.68125 27.5 8.75 27.5H10.625V29.375C10.625 31.4431 12.3069 33.125 14.375 33.125H31.875C33.9431 33.125 35.625 31.4431 35.625 29.375V16.25C35.625 14.1819 33.9431 12.5 31.875 12.5H30V10.625C30 8.55625 28.3188 6.875 26.25 6.875H8.75ZM8.75 9.375H26.25C26.9375 9.375 27.5 9.9375 27.5 10.625V12.5H14.375C12.3069 12.5 10.625 14.1819 10.625 16.25V25H8.75C8.0625 25 7.5 24.4375 7.5 23.75V10.625C7.5 9.9375 8.0625 9.375 8.75 9.375ZM14.375 15H31.875C32.5644 15 33.125 15.5606 33.125 16.25V27.5037L28.2312 23.103C27.4187 22.3724 26.1866 22.373 25.376 23.1055L20.9399 27.1143L19.1296 25.5664C18.329 24.882 17.1488 24.8838 16.3513 25.5713L13.125 28.3521V16.25C13.125 15.5606 13.6856 15 14.375 15ZM18.4375 18.125C17.2294 18.125 16.25 19.1044 16.25 20.3125C16.25 21.5206 17.2294 22.5 18.4375 22.5C19.6456 22.5 20.625 21.5206 20.625 20.3125C20.625 19.1044 19.6456 18.125 18.4375 18.125Z" fill="#0F172A"/>
</svg>
